<svg version="1.1" viewBox="0.0 0.0 642.0 107.0" fill="none" stroke="none" stroke-linecap="square" stroke-miterlimit="10" width="642" height="107" xmlns:xlink="http://www.w3.org/1999/xlink" xmlns="http://www.w3.org/2000/svg"><path fill="#ffffff" d="M0 0L642.0 0L642.0 107.0L0 107.0L0 0Z" fill-rule="nonzero"/><path stroke="#333333" stroke-width="1.0" stroke-linecap="butt" d="M112.5 32.5L112.5 81.5" fill-rule="nonzero"/><path stroke="#cccccc" stroke-width="1.0" stroke-linecap="butt" d="M172.5 32.5L172.5 81.5" fill-rule="nonzero"/><path stroke="#cccccc" stroke-width="1.0" stroke-linecap="butt" d="M232.5 32.5L232.5 81.5" fill-rule="nonzero"/><path stroke="#cccccc" stroke-width="1.0" stroke-linecap="butt" d="M293.5 32.5L293.5 81.5" fill-rule="nonzero"/><path stroke="#cccccc" stroke-width="1.0" stroke-linecap="butt" d="M353.5 32.5L353.5 81.5" fill-rule="nonzero"/><path stroke="#cccccc" stroke-width="1.0" stroke-linecap="butt" d="M413.5 32.5L413.5 81.5" fill-rule="nonzero"/><path stroke="#cccccc" stroke-width="1.0" stroke-linecap="butt" d="M473.5 32.5L473.5 81.5" fill-rule="nonzero"/><path stroke="#cccccc" stroke-width="1.0" stroke-linecap="butt" d="M534.5 32.5L534.5 81.5" fill-rule="nonzero"/><path stroke="#cccccc" stroke-width="1.0" stroke-linecap="butt" d="M594.5 32.5L594.5 81.5" fill-rule="nonzero"/><clipPath id="id_0"><path d="M112.35 32.916668L636.65 32.916668L636.65 81.65L112.35 81.65L112.35 32.916668Z" clip-rule="nonzero"/></clipPath><path stroke="#000000" stroke-width="2.0" stroke-linecap="butt" stroke-opacity="0.0" clip-path="url(#id_0)" d="M112.0 54.0L112.0 41.0L594.0 41.0L594.0 54.0Z" fill-rule="nonzero"/><path fill="#38761d" clip-path="url(#id_0)" d="M112.0 54.0L112.0 41.0L594.0 41.0L594.0 54.0Z" fill-rule="nonzero"/><path stroke="#000000" stroke-width="2.0" stroke-linecap="butt" stroke-opacity="0.0" clip-path="url(#id_0)" d="M112.0 75.0L112.0 62.0L112.0 62.0L112.0 75.0Z" fill-rule="nonzero"/><path fill="#4285f4" clip-path="url(#id_0)" d="M112.0 75.0L112.0 62.0L112.0 62.0L112.0 75.0Z" fill-rule="nonzero"/><path stroke="#000000" stroke-width="2.0" stroke-linecap="butt" stroke-opacity="0.0" clip-path="url(#id_0)" d="M594.0 54.0L594.0 41.0L594.0 41.0L594.0 54.0Z" fill-rule="nonzero"/><path fill="#ea4335" clip-path="url(#id_0)" d="M594.0 54.0L594.0 41.0L594.0 41.0L594.0 54.0Z" fill-rule="nonzero"/><path stroke="#000000" stroke-width="2.0" stroke-linecap="butt" stroke-opacity="0.0" clip-path="url(#id_0)" d="M112.0 75.0L112.0 62.0L127.0 62.0C128.10457 62.0 129.0 62.89543 129.0 64.0L129.0 73.0C129.0 74.10457 128.10457 75.0 127.0 75.0Z" fill-rule="nonzero"/><path fill="#0b5394" clip-path="url(#id_0)" d="M112.0 75.0L112.0 62.0L127.0 62.0C128.10457 62.0 129.0 62.89543 129.0 64.0L129.0 73.0C129.0 74.10457 128.10457 75.0 127.0 75.0Z" fill-rule="nonzero"/><path stroke="#ffffff" stroke-width="3.0" stroke-linejoin="round" stroke-linecap="round" d="M612.9337 48.625L612.9337 49.515625L606.77747 49.515625L606.77747 48.875L610.58997 42.96875L611.4806 42.96875L610.52747 44.671875L608.01184 48.625L612.9337 48.625ZM611.7462 42.96875L611.7462 51.5L610.6681 51.5L610.6681 42.96875L611.7462 42.96875ZM619.52747 46.546875L619.52747 47.859375Q619.52747 48.90625 619.33997 49.625Q619.15247 50.34375 618.7931 50.78125Q618.44934 51.21875 617.94934 51.421875Q617.46497 51.625 616.83997 51.625Q616.3556 51.625 615.9337 51.5Q615.51184 51.375 615.1837 51.109375Q614.8556 50.828125 614.6212 50.390625Q614.38684 49.953125 614.26184 49.328125Q614.13684 48.6875 614.13684 47.859375L614.13684 46.546875Q614.13684 45.5 614.32434 44.796875Q614.52747 44.09375 614.8712 43.65625Q615.2306 43.21875 615.71497 43.03125Q616.21497 42.84375 616.82434 42.84375Q617.32434 42.84375 617.7462 42.96875Q618.1681 43.09375 618.4962 43.359375Q618.82434 43.609375 619.0431 44.046875Q619.27747 44.46875 619.40247 45.09375Q619.52747 45.71875 619.52747 46.546875ZM618.4337 48.03125L618.4337 46.375Q618.4337 45.796875 618.3712 45.359375Q618.3087 44.921875 618.1681 44.609375Q618.0431 44.296875 617.83997 44.109375Q617.65247 43.921875 617.40247 43.828125Q617.15247 43.734375 616.82434 43.734375Q616.44934 43.734375 616.13684 43.875Q615.83997 44.015625 615.63684 44.328125Q615.4337 44.640625 615.32434 45.15625Q615.2306 45.65625 615.2306 46.375L615.2306 48.03125Q615.2306 48.609375 615.2931 49.046875Q615.3712 49.484375 615.4962 49.8125Q615.63684 50.125 615.82434 50.328125Q616.02747 50.53125 616.27747 50.625Q616.52747 50.71875 616.83997 50.71875Q617.2462 50.71875 617.5431 50.578125Q617.83997 50.421875 618.0431 50.09375Q618.2462 49.765625 618.33997 49.265625Q618.4337 48.75 618.4337 48.03125ZM626.52747 46.546875L626.52747 47.859375Q626.52747 48.90625 626.33997 49.625Q626.15247 50.34375 625.7931 50.78125Q625.44934 51.21875 624.94934 51.421875Q624.46497 51.625 623.83997 51.625Q623.3556 51.625 622.9337 51.5Q622.51184 51.375 622.1837 51.109375Q621.8556 50.828125 621.6212 50.390625Q621.38684 49.953125 621.26184 49.328125Q621.13684 48.6875 621.13684 47.859375L621.13684 46.546875Q621.13684 45.5 621.32434 44.796875Q621.52747 44.09375 621.8712 43.65625Q622.2306 43.21875 622.71497 43.03125Q623.21497 42.84375 623.82434 42.84375Q624.32434 42.84375 624.7462 42.96875Q625.1681 43.09375 625.4962 43.359375Q625.82434 43.609375 626.0431 44.046875Q626.27747 44.46875 626.40247 45.09375Q626.52747 45.71875 626.52747 46.546875ZM625.4337 48.03125L625.4337 46.375Q625.4337 45.796875 625.3712 45.359375Q625.3087 44.921875 625.1681 44.609375Q625.0431 44.296875 624.83997 44.109375Q624.65247 43.921875 624.40247 43.828125Q624.15247 43.734375 623.82434 43.734375Q623.44934 43.734375 623.13684 43.875Q622.83997 44.015625 622.63684 44.328125Q622.4337 44.640625 622.32434 45.15625Q622.2306 45.65625 622.2306 46.375L622.2306 48.03125Q622.2306 48.609375 622.2931 49.046875Q622.3712 49.484375 622.4962 49.8125Q622.63684 50.125 622.82434 50.328125Q623.02747 50.53125 623.27747 50.625Q623.52747 50.71875 623.83997 50.71875Q624.2462 50.71875 624.5431 50.578125Q624.83997 50.421875 625.0431 50.09375Q625.2462 49.765625 625.33997 49.265625Q625.4337 48.75 625.4337 48.03125ZM633.52747 46.546875L633.52747 47.859375Q633.52747 48.90625 633.33997 49.625Q633.15247 50.34375 632.7931 50.78125Q632.44934 51.21875 631.94934 51.421875Q631.46497 51.625 630.83997 51.625Q630.3556 51.625 629.9337 51.5Q629.51184 51.375 629.1837 51.109375Q628.8556 50.828125 628.6212 50.390625Q628.38684 49.953125 628.26184 49.328125Q628.13684 48.6875 628.13684 47.859375L628.13684 46.546875Q628.13684 45.5 628.32434 44.796875Q628.52747 44.09375 628.8712 43.65625Q629.2306 43.21875 629.71497 43.03125Q630.21497 42.84375 630.82434 42.84375Q631.32434 42.84375 631.7462 42.96875Q632.1681 43.09375 632.4962 43.359375Q632.82434 43.609375 633.0431 44.046875Q633.27747 44.46875 633.40247 45.09375Q633.52747 45.71875 633.52747 46.546875ZM632.4337 48.03125L632.4337 46.375Q632.4337 45.796875 632.3712 45.359375Q632.3087 44.921875 632.1681 44.609375Q632.0431 44.296875 631.83997 44.109375Q631.65247 43.921875 631.40247 43.828125Q631.15247 43.734375 630.82434 43.734375Q630.44934 43.734375 630.13684 43.875Q629.83997 44.015625 629.63684 44.328125Q629.4337 44.640625 629.32434 45.15625Q629.2306 45.65625 629.2306 46.375L629.2306 48.03125Q629.2306 48.609375 629.2931 49.046875Q629.3712 49.484375 629.4962 49.8125Q629.63684 50.125 629.82434 50.328125Q630.02747 50.53125 630.27747 50.625Q630.52747 50.71875 630.83997 50.71875Q631.2462 50.71875 631.5431 50.578125Q631.83997 50.421875 632.0431 50.09375Q632.2462 49.765625 632.33997 49.265625Q632.4337 48.75 632.4337 48.03125Z" fill-rule="nonzero"/><path fill="#38761d" d="M612.9337 48.625L612.9337 49.515625L606.77747 49.515625L606.77747 48.875L610.58997 42.96875L611.4806 42.96875L610.52747 44.671875L608.01184 48.625L612.9337 48.625ZM611.7462 42.96875L611.7462 51.5L610.6681 51.5L610.6681 42.96875L611.7462 42.96875ZM619.52747 46.546875L619.52747 47.859375Q619.52747 48.90625 619.33997 49.625Q619.15247 50.34375 618.7931 50.78125Q618.44934 51.21875 617.94934 51.421875Q617.46497 51.625 616.83997 51.625Q616.3556 51.625 615.9337 51.5Q615.51184 51.375 615.1837 51.109375Q614.8556 50.828125 614.6212 50.390625Q614.38684 49.953125 614.26184 49.328125Q614.13684 48.6875 614.13684 47.859375L614.13684 46.546875Q614.13684 45.5 614.32434 44.796875Q614.52747 44.09375 614.8712 43.65625Q615.2306 43.21875 615.71497 43.03125Q616.21497 42.84375 616.82434 42.84375Q617.32434 42.84375 617.7462 42.96875Q618.1681 43.09375 618.4962 43.359375Q618.82434 43.609375 619.0431 44.046875Q619.27747 44.46875 619.40247 45.09375Q619.52747 45.71875 619.52747 46.546875ZM618.4337 48.03125L618.4337 46.375Q618.4337 45.796875 618.3712 45.359375Q618.3087 44.921875 618.1681 44.609375Q618.0431 44.296875 617.83997 44.109375Q617.65247 43.921875 617.40247 43.828125Q617.15247 43.734375 616.82434 43.734375Q616.44934 43.734375 616.13684 43.875Q615.83997 44.015625 615.63684 44.328125Q615.4337 44.640625 615.32434 45.15625Q615.2306 45.65625 615.2306 46.375L615.2306 48.03125Q615.2306 48.609375 615.2931 49.046875Q615.3712 49.484375 615.4962 49.8125Q615.63684 50.125 615.82434 50.328125Q616.02747 50.53125 616.27747 50.625Q616.52747 50.71875 616.83997 50.71875Q617.2462 50.71875 617.5431 50.578125Q617.83997 50.421875 618.0431 50.09375Q618.2462 49.765625 618.33997 49.265625Q618.4337 48.75 618.4337 48.03125ZM626.52747 46.546875L626.52747 47.859375Q626.52747 48.90625 626.33997 49.625Q626.15247 50.34375 625.7931 50.78125Q625.44934 51.21875 624.94934 51.421875Q624.46497 51.625 623.83997 51.625Q623.3556 51.625 622.9337 51.5Q622.51184 51.375 622.1837 51.109375Q621.8556 50.828125 621.6212 50.390625Q621.38684 49.953125 621.26184 49.328125Q621.13684 48.6875 621.13684 47.859375L621.13684 46.546875Q621.13684 45.5 621.32434 44.796875Q621.52747 44.09375 621.8712 43.65625Q622.2306 43.21875 622.71497 43.03125Q623.21497 42.84375 623.82434 42.84375Q624.32434 42.84375 624.7462 42.96875Q625.1681 43.09375 625.4962 43.359375Q625.82434 43.609375 626.0431 44.046875Q626.27747 44.46875 626.40247 45.09375Q626.52747 45.71875 626.52747 46.546875ZM625.4337 48.03125L625.4337 46.375Q625.4337 45.796875 625.3712 45.359375Q625.3087 44.921875 625.1681 44.609375Q625.0431 44.296875 624.83997 44.109375Q624.65247 43.921875 624.40247 43.828125Q624.15247 43.734375 623.82434 43.734375Q623.44934 43.734375 623.13684 43.875Q622.83997 44.015625 622.63684 44.328125Q622.4337 44.640625 622.32434 45.15625Q622.2306 45.65625 622.2306 46.375L622.2306 48.03125Q622.2306 48.609375 622.2931 49.046875Q622.3712 49.484375 622.4962 49.8125Q622.63684 50.125 622.82434 50.328125Q623.02747 50.53125 623.27747 50.625Q623.52747 50.71875 623.83997 50.71875Q624.2462 50.71875 624.5431 50.578125Q624.83997 50.421875 625.0431 50.09375Q625.2462 49.765625 625.33997 49.265625Q625.4337 48.75 625.4337 48.03125ZM633.52747 46.546875L633.52747 47.859375Q633.52747 48.90625 633.33997 49.625Q633.15247 50.34375 632.7931 50.78125Q632.44934 51.21875 631.94934 51.421875Q631.46497 51.625 630.83997 51.625Q630.3556 51.625 629.9337 51.5Q629.51184 51.375 629.1837 51.109375Q628.8556 50.828125 628.6212 50.390625Q628.38684 49.953125 628.26184 49.328125Q628.13684 48.6875 628.13684 47.859375L628.13684 46.546875Q628.13684 45.5 628.32434 44.796875Q628.52747 44.09375 628.8712 43.65625Q629.2306 43.21875 629.71497 43.03125Q630.21497 42.84375 630.82434 42.84375Q631.32434 42.84375 631.7462 42.96875Q632.1681 43.09375 632.4962 43.359375Q632.82434 43.609375 633.0431 44.046875Q633.27747 44.46875 633.40247 45.09375Q633.52747 45.71875 633.52747 46.546875ZM632.4337 48.03125L632.4337 46.375Q632.4337 45.796875 632.3712 45.359375Q632.3087 44.921875 632.1681 44.609375Q632.0431 44.296875 631.83997 44.109375Q631.65247 43.921875 631.40247 43.828125Q631.15247 43.734375 630.82434 43.734375Q630.44934 43.734375 630.13684 43.875Q629.83997 44.015625 629.63684 44.328125Q629.4337 44.640625 629.32434 45.15625Q629.2306 45.65625 629.2306 46.375L629.2306 48.03125Q629.2306 48.609375 629.2931 49.046875Q629.3712 49.484375 629.4962 49.8125Q629.63684 50.125 629.82434 50.328125Q630.02747 50.53125 630.27747 50.625Q630.52747 50.71875 630.83997 50.71875Q631.2462 50.71875 631.5431 50.578125Q631.83997 50.421875 632.0431 50.09375Q632.2462 49.765625 632.33997 49.265625Q632.4337 48.75 632.4337 48.03125Z" fill-rule="nonzero"/><path stroke="#ffffff" stroke-width="3.0" stroke-linejoin="round" stroke-linecap="round" d="M145.00754 63.921875L145.00754 72.5L143.92941 72.5L143.92941 65.28125L141.74191 66.078125L141.74191 65.09375L144.85129 63.921875L145.00754 63.921875ZM150.03879 67.703125L150.80441 67.703125Q151.38254 67.703125 151.74191 67.515625Q152.11691 67.3125 152.30441 66.984375Q152.49191 66.65625 152.49191 66.234375Q152.49191 65.75 152.32004 65.421875Q152.16379 65.078125 151.83566 64.90625Q151.50754 64.734375 151.00754 64.734375Q150.53879 64.734375 150.19504 64.921875Q149.85129 65.09375 149.64816 65.421875Q149.46066 65.75 149.46066 66.203125L148.36691 66.203125Q148.36691 65.546875 148.69504 65.015625Q149.02316 64.484375 149.61691 64.171875Q150.21066 63.84375 151.00754 63.84375Q151.77316 63.84375 152.35129 64.125Q152.92941 64.390625 153.25754 64.9375Q153.58566 65.46875 153.58566 66.265625Q153.58566 66.59375 153.42941 66.953125Q153.27316 67.3125 152.96066 67.640625Q152.64816 67.953125 152.14816 68.15625Q151.66379 68.359375 150.96066 68.359375L150.03879 68.359375L150.03879 67.703125ZM150.03879 68.59375L150.03879 67.9375L150.96066 67.9375Q151.77316 67.9375 152.30441 68.140625Q152.83566 68.328125 153.14816 68.65625Q153.46066 68.96875 153.58566 69.359375Q153.71066 69.734375 153.71066 70.125Q153.71066 70.71875 153.50754 71.1875Q153.30441 71.640625 152.92941 71.96875Q152.57004 72.28125 152.07004 72.453125Q151.58566 72.625 151.00754 72.625Q150.44504 72.625 149.96066 72.46875Q149.47629 72.296875 149.10129 72.0Q148.72629 71.703125 148.50754 71.265625Q148.30441 70.8125 148.30441 70.25L149.38254 70.25Q149.38254 70.6875 149.57004 71.03125Q149.77316 71.359375 150.13254 71.546875Q150.50754 71.71875 151.00754 71.71875Q151.50754 71.71875 151.86691 71.546875Q152.22629 71.375 152.41379 71.03125Q152.61691 70.671875 152.61691 70.140625Q152.61691 69.609375 152.39816 69.265625Q152.17941 68.921875 151.75754 68.765625Q151.35129 68.59375 150.80441 68.59375L150.03879 68.59375ZM159.61691 63.953125L159.71066 63.953125L159.71066 64.875L159.61691 64.875Q158.75754 64.875 158.16379 65.15625Q157.58566 65.4375 157.24191 65.90625Q156.91379 66.359375 156.75754 66.953125Q156.61691 67.53125 156.61691 68.125L156.61691 69.375Q156.61691 69.9375 156.74191 70.375Q156.88254 70.8125 157.11691 71.125Q157.35129 71.421875 157.64816 71.578125Q157.94504 71.71875 158.25754 71.71875Q158.63254 71.71875 158.92941 71.578125Q159.22629 71.4375 159.42941 71.171875Q159.63254 70.90625 159.72629 70.5625Q159.83566 70.203125 159.83566 69.765625Q159.83566 69.390625 159.74191 69.03125Q159.64816 68.671875 159.46066 68.40625Q159.27316 68.125 158.97629 67.96875Q158.67941 67.796875 158.28879 67.796875Q157.83566 67.796875 157.44504 68.015625Q157.05441 68.234375 156.80441 68.59375Q156.55441 68.953125 156.52316 69.359375L155.94504 69.359375Q156.03879 68.703125 156.25754 68.234375Q156.47629 67.765625 156.82004 67.46875Q157.16379 67.171875 157.57004 67.046875Q157.99191 66.90625 158.46066 66.90625Q159.10129 66.90625 159.55441 67.15625Q160.02316 67.390625 160.32004 67.796875Q160.63254 68.1875 160.77316 68.6875Q160.91379 69.1875 160.91379 69.71875Q160.91379 70.3125 160.74191 70.84375Q160.57004 71.375 160.22629 71.78125Q159.89816 72.171875 159.39816 72.40625Q158.91379 72.625 158.25754 72.625Q157.57004 72.625 157.05441 72.34375Q156.53879 72.046875 156.19504 71.578125Q155.86691 71.09375 155.69504 70.515625Q155.52316 69.9375 155.52316 69.34375L155.52316 68.828125Q155.52316 67.921875 155.69504 67.0625Q155.88254 66.1875 156.33566 65.484375Q156.78879 64.78125 157.58566 64.375Q158.38254 63.953125 159.61691 63.953125Z" fill-rule="nonzero"/><path fill="#0b5394" d="M145.00754 63.921875L145.00754 72.5L143.92941 72.5L143.92941 65.28125L141.74191 66.078125L141.74191 65.09375L144.85129 63.921875L145.00754 63.921875ZM150.03879 67.703125L150.80441 67.703125Q151.38254 67.703125 151.74191 67.515625Q152.11691 67.3125 152.30441 66.984375Q152.49191 66.65625 152.49191 66.234375Q152.49191 65.75 152.32004 65.421875Q152.16379 65.078125 151.83566 64.90625Q151.50754 64.734375 151.00754 64.734375Q150.53879 64.734375 150.19504 64.921875Q149.85129 65.09375 149.64816 65.421875Q149.46066 65.75 149.46066 66.203125L148.36691 66.203125Q148.36691 65.546875 148.69504 65.015625Q149.02316 64.484375 149.61691 64.171875Q150.21066 63.84375 151.00754 63.84375Q151.77316 63.84375 152.35129 64.125Q152.92941 64.390625 153.25754 64.9375Q153.58566 65.46875 153.58566 66.265625Q153.58566 66.59375 153.42941 66.953125Q153.27316 67.3125 152.96066 67.640625Q152.64816 67.953125 152.14816 68.15625Q151.66379 68.359375 150.96066 68.359375L150.03879 68.359375L150.03879 67.703125ZM150.03879 68.59375L150.03879 67.9375L150.96066 67.9375Q151.77316 67.9375 152.30441 68.140625Q152.83566 68.328125 153.14816 68.65625Q153.46066 68.96875 153.58566 69.359375Q153.71066 69.734375 153.71066 70.125Q153.71066 70.71875 153.50754 71.1875Q153.30441 71.640625 152.92941 71.96875Q152.57004 72.28125 152.07004 72.453125Q151.58566 72.625 151.00754 72.625Q150.44504 72.625 149.96066 72.46875Q149.47629 72.296875 149.10129 72.0Q148.72629 71.703125 148.50754 71.265625Q148.30441 70.8125 148.30441 70.25L149.38254 70.25Q149.38254 70.6875 149.57004 71.03125Q149.77316 71.359375 150.13254 71.546875Q150.50754 71.71875 151.00754 71.71875Q151.50754 71.71875 151.86691 71.546875Q152.22629 71.375 152.41379 71.03125Q152.61691 70.671875 152.61691 70.140625Q152.61691 69.609375 152.39816 69.265625Q152.17941 68.921875 151.75754 68.765625Q151.35129 68.59375 150.80441 68.59375L150.03879 68.59375ZM159.61691 63.953125L159.71066 63.953125L159.71066 64.875L159.61691 64.875Q158.75754 64.875 158.16379 65.15625Q157.58566 65.4375 157.24191 65.90625Q156.91379 66.359375 156.75754 66.953125Q156.61691 67.53125 156.61691 68.125L156.61691 69.375Q156.61691 69.9375 156.74191 70.375Q156.88254 70.8125 157.11691 71.125Q157.35129 71.421875 157.64816 71.578125Q157.94504 71.71875 158.25754 71.71875Q158.63254 71.71875 158.92941 71.578125Q159.22629 71.4375 159.42941 71.171875Q159.63254 70.90625 159.72629 70.5625Q159.83566 70.203125 159.83566 69.765625Q159.83566 69.390625 159.74191 69.03125Q159.64816 68.671875 159.46066 68.40625Q159.27316 68.125 158.97629 67.96875Q158.67941 67.796875 158.28879 67.796875Q157.83566 67.796875 157.44504 68.015625Q157.05441 68.234375 156.80441 68.59375Q156.55441 68.953125 156.52316 69.359375L155.94504 69.359375Q156.03879 68.703125 156.25754 68.234375Q156.47629 67.765625 156.82004 67.46875Q157.16379 67.171875 157.57004 67.046875Q157.99191 66.90625 158.46066 66.90625Q159.10129 66.90625 159.55441 67.15625Q160.02316 67.390625 160.32004 67.796875Q160.63254 68.1875 160.77316 68.6875Q160.91379 69.1875 160.91379 69.71875Q160.91379 70.3125 160.74191 70.84375Q160.57004 71.375 160.22629 71.78125Q159.89816 72.171875 159.39816 72.40625Q158.91379 72.625 158.25754 72.625Q157.57004 72.625 157.05441 72.34375Q156.53879 72.046875 156.19504 71.578125Q155.86691 71.09375 155.69504 70.515625Q155.52316 69.9375 155.52316 69.34375L155.52316 68.828125Q155.52316 67.921875 155.69504 67.0625Q155.88254 66.1875 156.33566 65.484375Q156.78879 64.78125 157.58566 64.375Q158.38254 63.953125 159.61691 63.953125Z" fill-rule="nonzero"/><path fill="#000000" d="M6.271875 50.91454L6.271875 42.32079L7.428125 42.32079L11.94375 49.07079L11.94375 42.32079L13.0375 42.32079L13.0375 50.91454L11.865625 50.91454L7.35 44.16454L7.35 50.91454L6.271875 50.91454ZM17.725 50.91454L14.396875 42.32079L15.63125 42.32079L17.865625 48.57079Q18.13125 49.32079 18.31875 49.97704Q18.521875 49.273914 18.7875 48.57079L21.1 42.32079L22.25625 42.32079L18.896875 50.91454L17.725 50.91454ZM22.475 50.91454L22.475 42.32079L23.6 42.32079L23.6 50.91454L22.475 50.91454ZM25.271875 50.91454L25.271875 42.32079L28.240625 42.32079Q29.240625 42.32079 29.771875 42.44579Q30.50625 42.617664 31.021875 43.055164Q31.709375 43.63329 32.0375 44.53954Q32.38125 45.430164 32.38125 46.57079Q32.38125 47.555164 32.146873 48.305164Q31.928125 49.055164 31.56875 49.555164Q31.209375 50.055164 30.771875 50.336414Q30.35 50.617664 29.75625 50.773914Q29.1625 50.91454 28.38125 50.91454L25.271875 50.91454ZM26.4125 49.898914L28.240625 49.898914Q29.1 49.898914 29.584375 49.742664Q30.06875 49.586414 30.35 49.28954Q30.75625 48.898914 30.975 48.211414Q31.209375 47.523914 31.209375 46.555164Q31.209375 45.211414 30.75625 44.492664Q30.31875 43.75829 29.69375 43.50829Q29.225 43.336414 28.225 43.336414L26.4125 43.336414L26.4125 49.898914ZM34.475 50.91454L34.475 42.32079L35.6 42.32079L35.6 50.91454L34.475 50.91454ZM36.334373 50.91454L39.63125 42.32079L40.85 42.32079L44.365623 50.91454L43.084373 50.91454L42.06875 48.305164L38.490623 48.305164L37.5375 50.91454L36.334373 50.91454ZM38.81875 47.38329L41.725 47.38329L40.834373 45.00829Q40.4125 43.930164 40.225 43.22704Q40.053123 44.055164 39.75625 44.867664L38.81875 47.38329ZM47.271873 50.91454L47.271873 42.32079L50.240623 42.32079Q51.240623 42.32079 51.771873 42.44579Q52.50625 42.617664 53.021873 43.055164Q53.709373 43.63329 54.0375 44.53954Q54.38125 45.430164 54.38125 46.57079Q54.38125 47.555164 54.146873 48.305164Q53.928123 49.055164 53.56875 49.555164Q53.209373 50.055164 52.771873 50.336414Q52.35 50.617664 51.75625 50.773914Q51.1625 50.91454 50.38125 50.91454L47.271873 50.91454ZM48.4125 49.898914L50.240623 49.898914Q51.1 49.898914 51.584373 49.742664Q52.06875 49.586414 52.35 49.28954Q52.75625 48.898914 52.975 48.211414Q53.209373 47.523914 53.209373 46.555164Q53.209373 45.211414 52.75625 44.492664Q52.31875 43.75829 51.69375 43.50829Q51.225 43.336414 50.225 43.336414L48.4125 43.336414L48.4125 49.898914ZM60.303123 47.53954L60.303123 46.53954L63.928123 46.523914L63.928123 49.711414Q63.1 50.38329 62.209373 50.72704Q61.31875 51.055164 60.38125 51.055164Q59.115623 51.055164 58.06875 50.523914Q57.0375 49.97704 56.50625 48.961414Q55.990623 47.930164 55.990623 46.66454Q55.990623 45.398914 56.50625 44.32079Q57.0375 43.22704 58.021873 42.711414Q59.00625 42.180164 60.2875 42.180164Q61.225 42.180164 61.975 42.47704Q62.725 42.773914 63.146873 43.32079Q63.584373 43.85204 63.803123 44.72704L62.7875 45.00829Q62.584373 44.35204 62.2875 43.97704Q62.00625 43.60204 61.475 43.38329Q60.94375 43.148914 60.303123 43.148914Q59.521873 43.148914 58.94375 43.38329Q58.38125 43.617664 58.021873 44.00829Q57.678123 44.398914 57.490623 44.867664Q57.1625 45.66454 57.1625 46.586414Q57.1625 47.742664 57.553123 48.523914Q57.959373 49.28954 58.709373 49.66454Q59.459373 50.03954 60.31875 50.03954Q61.053123 50.03954 61.75625 49.75829Q62.459373 49.461414 62.81875 49.148914L62.81875 47.53954L60.303123 47.53954ZM64.39687 50.91454L67.725 46.430164L64.80312 42.32079L66.14687 42.32079L67.70937 44.523914Q68.19375 45.211414 68.39687 45.586414Q68.69375 45.117664 69.08437 44.60204L70.80312 42.32079L72.0375 42.32079L69.02187 46.367664L72.27187 50.91454L70.86562 50.91454L68.70937 47.85204Q68.52187 47.586414 68.33437 47.273914Q68.05312 47.742664 67.92812 47.91454L65.77187 50.91454L64.39687 50.91454ZM74.89687 48.148914L75.95937 48.055164Q76.0375 48.711414 76.31875 49.117664Q76.6 49.523914 77.17812 49.78954Q77.77187 50.03954 78.50625 50.03954Q79.14687 50.03954 79.64687 49.85204Q80.14687 49.648914 80.38125 49.32079Q80.63125 48.97704 80.63125 48.586414Q80.63125 48.180164 80.39687 47.88329Q80.1625 47.57079 79.63125 47.367664Q79.27187 47.22704 78.08437 46.94579Q76.9125 46.66454 76.44375 46.41454Q75.81875 46.086414 75.52187 45.617664Q75.225 45.13329 75.225 44.53954Q75.225 43.898914 75.58437 43.336414Q75.95937 42.75829 76.6625 42.47704Q77.38125 42.180164 78.24062 42.180164Q79.19375 42.180164 79.92812 42.492664Q80.6625 42.78954 81.05312 43.398914Q81.44375 43.992664 81.475 44.742664L80.38125 44.82079Q80.2875 44.00829 79.77187 43.60204Q79.27187 43.180164 78.2875 43.180164Q77.25625 43.180164 76.7875 43.555164Q76.31875 43.930164 76.31875 44.461414Q76.31875 44.930164 76.64687 45.22704Q76.975 45.523914 78.35 45.836414Q79.74062 46.148914 80.25625 46.38329Q81.00625 46.742664 81.36562 47.273914Q81.725 47.78954 81.725 48.492664Q81.725 49.180164 81.33437 49.78954Q80.94375 50.38329 80.20937 50.72704Q79.475 51.055164 78.55312 51.055164Q77.38125 51.055164 76.58437 50.72704Q75.80312 50.38329 75.35 49.69579Q74.9125 49.00829 74.89687 48.148914ZM83.14687 53.305164L83.14687 44.69579L84.1 44.69579L84.1 45.492664Q84.44375 45.023914 84.86562 44.78954Q85.30312 44.555164 85.9125 44.555164Q86.70937 44.555164 87.31875 44.961414Q87.92812 45.367664 88.225 46.117664Q88.5375 46.867664 88.5375 47.75829Q88.5375 48.711414 88.19375 49.47704Q87.86562 50.242664 87.20937 50.648914Q86.55312 51.055164 85.83437 51.055164Q85.30312 51.055164 84.88125 50.836414Q84.45937 50.60204 84.19375 50.273914L84.19375 53.305164L83.14687 53.305164ZM84.1 47.836414Q84.1 49.03954 84.58437 49.617664Q85.06875 50.180164 85.75625 50.180164Q86.45937 50.180164 86.95937 49.586414Q87.45937 48.992664 87.45937 47.742664Q87.45937 46.555164 86.975 45.97704Q86.49062 45.38329 85.80312 45.38329Q85.13125 45.38329 84.61562 46.00829Q84.1 46.63329 84.1 47.836414ZM94.20937 50.148914Q93.61562 50.648914 93.06875 50.85204Q92.5375 51.055164 91.9125 51.055164Q90.88125 51.055164 90.33437 50.555164Q89.7875 50.055164 89.7875 49.273914Q89.7875 48.82079 89.99062 48.44579Q90.19375 48.055164 90.5375 47.836414Q90.88125 47.60204 91.30312 47.492664Q91.6 47.398914 92.24062 47.32079Q93.50625 47.180164 94.11562 46.961414Q94.11562 46.742664 94.11562 46.69579Q94.11562 46.03954 93.81875 45.773914Q93.4125 45.430164 92.61562 45.430164Q91.88125 45.430164 91.52187 45.69579Q91.1625 45.94579 90.99062 46.60204L89.95937 46.461414Q90.1 45.805164 90.42812 45.398914Q90.75625 44.992664 91.36562 44.773914Q91.975 44.555164 92.77187 44.555164Q93.56875 44.555164 94.06875 44.742664Q94.56875 44.930164 94.80312 45.211414Q95.0375 45.492664 95.13125 45.930164Q95.17812 46.19579 95.17812 46.898914L95.17812 48.305164Q95.17812 49.773914 95.24062 50.16454Q95.31875 50.555164 95.52187 50.91454L94.4125 50.91454Q94.25625 50.586414 94.20937 50.148914ZM94.11562 47.78954Q93.5375 48.023914 92.39687 48.19579Q91.74062 48.28954 91.475 48.41454Q91.20937 48.523914 91.05312 48.742664Q90.9125 48.961414 90.9125 49.242664Q90.9125 49.66454 91.225 49.94579Q91.55312 50.22704 92.1625 50.22704Q92.77187 50.22704 93.24062 49.961414Q93.725 49.69579 93.94375 49.22704Q94.11562 48.867664 94.11562 48.180164L94.11562 47.78954ZM97.13125 50.91454L97.13125 44.69579L98.08437 44.69579L98.08437 45.63329Q98.44375 44.97704 98.74062 44.773914Q99.05312 44.555164 99.42812 44.555164Q99.95937 44.555164 100.50625 44.88329L100.14687 45.867664Q99.75625 45.63329 99.38125 45.63329Q99.02187 45.63329 98.74062 45.85204Q98.475 46.055164 98.36562 46.430164Q98.17812 46.992664 98.17812 47.648914L98.17812 50.91454L97.13125 50.91454ZM101.14687 50.91454L101.14687 42.32079L102.20937 42.32079L102.20937 47.22704L104.69375 44.69579L106.06875 44.69579L103.67812 46.992664L106.30312 50.91454L105.00625 50.91454L102.94375 47.72704L102.20937 48.44579L102.20937 50.91454L101.14687 50.91454Z" fill-rule="nonzero"/><path fill="#000000" d="M8.271875 71.65213L8.271875 63.05838L11.521875 63.05838Q12.365625 63.05838 12.81875 63.136505Q13.459375 63.24588 13.88125 63.542755Q14.31875 63.83963 14.56875 64.37088Q14.834375 64.90213 14.834375 65.542755Q14.834375 66.636505 14.13125 67.40213Q13.44375 68.15213 11.615625 68.15213L9.4125 68.15213L9.4125 71.65213L8.271875 71.65213ZM9.4125 67.15213L11.63125 67.15213Q12.740625 67.15213 13.19375 66.74588Q13.6625 66.324005 13.6625 65.574005Q13.6625 65.042755 13.38125 64.667755Q13.115625 64.27713 12.678125 64.15213Q12.38125 64.074005 11.615625 64.074005L9.4125 64.074005L9.4125 67.15213ZM20.396875 69.65213L21.490625 69.77713Q21.240625 70.730255 20.5375 71.261505Q19.834375 71.792755 18.75625 71.792755Q17.396875 71.792755 16.584375 70.949005Q15.7875 70.105255 15.7875 68.58963Q15.7875 67.02713 16.6 66.167755Q17.4125 65.292755 18.69375 65.292755Q19.94375 65.292755 20.725 66.136505Q21.521875 66.980255 21.521875 68.52713Q21.521875 68.62088 21.521875 68.80838L16.88125 68.80838Q16.94375 69.83963 17.459375 70.386505Q17.975 70.917755 18.75625 70.917755Q19.334375 70.917755 19.740625 70.62088Q20.1625 70.30838 20.396875 69.65213ZM16.94375 67.949005L20.4125 67.949005Q20.35 67.15213 20.021875 66.761505Q19.50625 66.15213 18.709375 66.15213Q17.975 66.15213 17.475 66.636505Q16.990625 67.12088 16.94375 67.949005ZM23.146875 71.65213L23.146875 65.43338L24.084375 65.43338L24.084375 66.30838Q24.771875 65.292755 26.06875 65.292755Q26.63125 65.292755 27.1 65.49588Q27.584375 65.699005 27.81875 66.02713Q28.053125 66.355255 28.146875 66.792755Q28.19375 67.08963 28.19375 67.824005L28.19375 71.65213L27.146875 71.65213L27.146875 67.87088Q27.146875 67.21463 27.021875 66.90213Q26.896875 66.58963 26.584375 66.40213Q26.271875 66.199005 25.85 66.199005Q25.178125 66.199005 24.678125 66.636505Q24.19375 67.05838 24.19375 68.24588L24.19375 71.65213L23.146875 71.65213ZM32.44375 70.71463L32.6 71.636505Q32.146873 71.730255 31.803125 71.730255Q31.225 71.730255 30.9125 71.55838Q30.6 71.37088 30.459375 71.074005Q30.334375 70.77713 30.334375 69.824005L30.334375 66.24588L29.56875 66.24588L29.56875 65.43338L30.334375 65.43338L30.334375 63.886505L31.38125 63.261505L31.38125 65.43338L32.44375 65.43338L32.44375 66.24588L31.38125 66.24588L31.38125 69.886505Q31.38125 70.33963 31.428125 70.46463Q31.490625 70.58963 31.615625 70.667755Q31.740625 70.74588 31.975 70.74588Q32.1625 70.74588 32.44375 70.71463ZM37.209373 70.886505Q36.615623 71.386505 36.06875 71.58963Q35.5375 71.792755 34.9125 71.792755Q33.88125 71.792755 33.334373 71.292755Q32.7875 70.792755 32.7875 70.011505Q32.7875 69.55838 32.990623 69.18338Q33.19375 68.792755 33.5375 68.574005Q33.88125 68.33963 34.303123 68.230255Q34.6 68.136505 35.240623 68.05838Q36.50625 67.917755 37.115623 67.699005Q37.115623 67.480255 37.115623 67.43338Q37.115623 66.77713 36.81875 66.511505Q36.4125 66.167755 35.615623 66.167755Q34.88125 66.167755 34.521873 66.43338Q34.1625 66.68338 33.990623 67.33963L32.959373 67.199005Q33.1 66.542755 33.428123 66.136505Q33.75625 65.730255 34.365623 65.511505Q34.975 65.292755 35.771873 65.292755Q36.56875 65.292755 37.06875 65.480255Q37.56875 65.667755 37.803123 65.949005Q38.0375 66.230255 38.13125 66.667755Q38.178123 66.93338 38.178123 67.636505L38.178123 69.042755Q38.178123 70.511505 38.240623 70.90213Q38.31875 71.292755 38.521873 71.65213L37.4125 71.65213Q37.25625 71.324005 37.209373 70.886505ZM37.115623 68.52713Q36.5375 68.761505 35.396873 68.93338Q34.740623 69.02713 34.475 69.15213Q34.209373 69.261505 34.053123 69.480255Q33.9125 69.699005 33.9125 69.980255Q33.9125 70.40213 34.225 70.68338Q34.553123 70.96463 35.1625 70.96463Q35.771873 70.96463 36.240623 70.699005Q36.725 70.43338 36.94375 69.96463Q37.115623 69.605255 37.115623 68.917755L37.115623 68.52713ZM39.725 69.074005L39.725 68.011505L42.975 68.011505L42.975 69.074005L39.725 69.074005ZM48.303123 68.27713L48.303123 67.27713L51.928123 67.261505L51.928123 70.449005Q51.1 71.12088 50.209373 71.46463Q49.31875 71.792755 48.38125 71.792755Q47.115623 71.792755 46.06875 71.261505Q45.0375 70.71463 44.50625 69.699005Q43.990623 68.667755 43.990623 67.40213Q43.990623 66.136505 44.50625 65.05838Q45.0375 63.96463 46.021873 63.449005Q47.00625 62.917755 48.2875 62.917755Q49.225 62.917755 49.975 63.21463Q50.725 63.511505 51.146873 64.05838Q51.584373 64.58963 51.803123 65.46463L50.7875 65.74588Q50.584373 65.08963 50.2875 64.71463Q50.00625 64.33963 49.475 64.12088Q48.94375 63.886505 48.303123 63.886505Q47.521873 63.886505 46.94375 64.12088Q46.38125 64.355255 46.021873 64.74588Q45.678123 65.136505 45.490623 65.605255Q45.1625 66.40213 45.1625 67.324005Q45.1625 68.480255 45.553123 69.261505Q45.959373 70.02713 46.709373 70.40213Q47.459373 70.77713 48.31875 70.77713Q49.053123 70.77713 49.75625 70.49588Q50.459373 70.199005 50.81875 69.886505L50.81875 68.27713L48.303123 68.27713ZM53.271873 71.65213L53.271873 63.05838L56.521873 63.05838Q57.365623 63.05838 57.81875 63.136505Q58.459373 63.24588 58.88125 63.542755Q59.31875 63.83963 59.56875 64.37088Q59.834373 64.90213 59.834373 65.542755Q59.834373 66.636505 59.13125 67.40213Q58.44375 68.15213 56.615623 68.15213L54.4125 68.15213L54.4125 71.65213L53.271873 71.65213ZM54.4125 67.15213L56.63125 67.15213Q57.740623 67.15213 58.19375 66.74588Q58.6625 66.324005 58.6625 65.574005Q58.6625 65.042755 58.38125 64.667755Q58.115623 64.27713 57.678123 64.15213Q57.38125 64.074005 56.615623 64.074005L54.4125 64.074005L54.4125 67.15213ZM66.9125 63.05838L68.05312 63.05838L68.05312 68.02713Q68.05312 69.324005 67.75625 70.08963Q67.45937 70.83963 66.69375 71.324005Q65.92812 71.792755 64.69375 71.792755Q63.490623 71.792755 62.709373 71.386505Q61.94375 70.96463 61.615623 70.18338Q61.2875 69.386505 61.2875 68.02713L61.2875 63.05838L62.428123 63.05838L62.428123 68.011505Q62.428123 69.136505 62.63125 69.667755Q62.85 70.199005 63.35 70.49588Q63.865623 70.77713 64.6 70.77713Q65.85 70.77713 66.38125 70.21463Q66.9125 69.636505 66.9125 68.011505L66.9125 63.05838ZM72.725 69.792755L73.75625 69.636505Q73.85 70.261505 74.24062 70.58963Q74.64687 70.917755 75.38125 70.917755Q76.1 70.917755 76.44375 70.636505Q76.80312 70.33963 76.80312 69.93338Q76.80312 69.574005 76.49062 69.37088Q76.27187 69.230255 75.4125 69.011505Q74.25625 68.71463 73.80312 68.511505Q73.36562 68.292755 73.13125 67.917755Q72.89687 67.542755 72.89687 67.074005Q72.89687 66.667755 73.08437 66.30838Q73.27187 65.949005 73.6 65.71463Q73.85 65.542755 74.27187 65.417755Q74.69375 65.292755 75.19375 65.292755Q75.9125 65.292755 76.45937 65.511505Q77.02187 65.71463 77.2875 66.074005Q77.55312 66.43338 77.64687 67.02713L76.61562 67.167755Q76.55312 66.699005 76.20937 66.43338Q75.88125 66.15213 75.25625 66.15213Q74.5375 66.15213 74.225 66.40213Q73.9125 66.636505 73.9125 66.96463Q73.9125 67.167755 74.0375 67.324005Q74.17812 67.49588 74.44375 67.605255Q74.6 67.667755 75.38125 67.87088Q76.50625 68.18338 76.94375 68.37088Q77.38125 68.55838 77.63125 68.917755Q77.88125 69.27713 77.88125 69.824005Q77.88125 70.355255 77.56875 70.824005Q77.27187 71.27713 76.69375 71.542755Q76.11562 71.792755 75.38125 71.792755Q74.1625 71.792755 73.52187 71.292755Q72.89687 70.77713 72.725 69.792755ZM84.39687 69.65213L85.49062 69.77713Q85.24062 70.730255 84.5375 71.261505Q83.83437 71.792755 82.75625 71.792755Q81.39687 71.792755 80.58437 70.949005Q79.7875 70.105255 79.7875 68.58963Q79.7875 67.02713 80.6 66.167755Q81.4125 65.292755 82.69375 65.292755Q83.94375 65.292755 84.725 66.136505Q85.52187 66.980255 85.52187 68.52713Q85.52187 68.62088 85.52187 68.80838L80.88125 68.80838Q80.94375 69.83963 81.45937 70.386505Q81.975 70.917755 82.75625 70.917755Q83.33437 70.917755 83.74062 70.62088Q84.1625 70.30838 84.39687 69.65213ZM80.94375 67.949005L84.4125 67.949005Q84.35 67.15213 84.02187 66.761505Q83.50625 66.15213 82.70937 66.15213Q81.975 66.15213 81.475 66.636505Q80.99062 67.12088 80.94375 67.949005ZM87.13125 71.65213L87.13125 65.43338L88.08437 65.43338L88.08437 66.37088Q88.44375 65.71463 88.74062 65.511505Q89.05312 65.292755 89.42812 65.292755Q89.95937 65.292755 90.50625 65.62088L90.14687 66.605255Q89.75625 66.37088 89.38125 66.37088Q89.02187 66.37088 88.74062 66.58963Q88.475 66.792755 88.36562 67.167755Q88.17812 67.730255 88.17812 68.386505L88.17812 71.65213L87.13125 71.65213ZM92.86562 71.65213L90.50625 65.43338L91.61562 65.43338L92.95937 69.15213Q93.1625 69.761505 93.35 70.40213Q93.49062 69.917755 93.74062 69.230255L95.13125 65.43338L96.20937 65.43338L93.85 71.65213L92.86562 71.65213ZM100.39687 69.65213L101.49062 69.77713Q101.24062 70.730255 100.5375 71.261505Q99.83437 71.792755 98.75625 71.792755Q97.39687 71.792755 96.58437 70.949005Q95.7875 70.105255 95.7875 68.58963Q95.7875 67.02713 96.6 66.167755Q97.4125 65.292755 98.69375 65.292755Q99.94375 65.292755 100.725 66.136505Q101.52187 66.980255 101.52187 68.52713Q101.52187 68.62088 101.52187 68.80838L96.88125 68.80838Q96.94375 69.83963 97.45937 70.386505Q97.975 70.917755 98.75625 70.917755Q99.33437 70.917755 99.74062 70.62088Q100.1625 70.30838 100.39687 69.65213ZM96.94375 67.949005L100.4125 67.949005Q100.35 67.15213 100.02187 66.761505Q99.50625 66.15213 98.70937 66.15213Q97.975 66.15213 97.475 66.636505Q96.99062 67.12088 96.94375 67.949005ZM103.13125 71.65213L103.13125 65.43338L104.08437 65.43338L104.08437 66.37088Q104.44375 65.71463 104.74062 65.511505Q105.05312 65.292755 105.42812 65.292755Q105.95937 65.292755 106.50625 65.62088L106.14687 66.605255Q105.75625 66.37088 105.38125 66.37088Q105.02187 66.37088 104.74062 66.58963Q104.475 66.792755 104.36562 67.167755Q104.17812 67.730255 104.17812 68.386505L104.17812 71.65213L103.13125 71.65213Z" fill-rule="nonzero"/><path fill="#000000" d="M109.35 94.41563Q109.35 92.88438 109.6625 91.9625Q109.975 91.025 110.58437 90.525Q111.20937 90.025 112.14687 90.025Q112.83437 90.025 113.35 90.30625Q113.88125 90.5875 114.225 91.11875Q114.56875 91.63438 114.75625 92.38438Q114.94375 93.13438 114.94375 94.41563Q114.94375 95.93125 114.63125 96.85313Q114.33437 97.775 113.70937 98.29063Q113.1 98.79063 112.14687 98.79063Q110.9125 98.79063 110.19375 97.9Q109.35 96.8375 109.35 94.41563ZM110.42812 94.41563Q110.42812 96.525 110.92812 97.22813Q111.42812 97.93125 112.14687 97.93125Q112.88125 97.93125 113.36562 97.22813Q113.86562 96.525 113.86562 94.41563Q113.86562 92.29063 113.36562 91.60313Q112.88125 90.9 112.13125 90.9Q111.4125 90.9 110.975 91.50938Q110.42812 92.29063 110.42812 94.41563Z" fill-rule="nonzero"/><path fill="#000000" d="M162.61436 96.4L163.72374 96.30625Q163.84874 97.11875 164.28624 97.525Q164.73936 97.93125 165.37999 97.93125Q166.12999 97.93125 166.66124 97.35313Q167.19249 96.775 167.19249 95.8375Q167.19249 94.93125 166.67686 94.41563Q166.17686 93.88438 165.34874 93.88438Q164.84874 93.88438 164.42686 94.11875Q164.02061 94.35313 163.78624 94.7125L162.80186 94.5875L163.62999 90.18125L167.91124 90.18125L167.91124 91.18125L164.47374 91.18125L164.02061 93.49375Q164.78624 92.94688 165.62999 92.94688Q166.75499 92.94688 167.52061 93.72813Q168.30186 94.50938 168.30186 95.74375Q168.30186 96.9 167.62999 97.75938Q166.80186 98.79063 165.37999 98.79063Q164.20811 98.79063 163.45811 98.13438Q162.72374 97.47813 162.61436 96.4ZM169.61436 94.41563Q169.61436 92.88438 169.92686 91.9625Q170.23936 91.025 170.84874 90.525Q171.47374 90.025 172.41124 90.025Q173.09874 90.025 173.61436 90.30625Q174.14561 90.5875 174.48936 91.11875Q174.83311 91.63438 175.02061 92.38438Q175.20811 93.13438 175.20811 94.41563Q175.20811 95.93125 174.89561 96.85313Q174.59874 97.775 173.97374 98.29063Q173.36436 98.79063 172.41124 98.79063Q171.17686 98.79063 170.45811 97.9Q169.61436 96.8375 169.61436 94.41563ZM170.69249 94.41563Q170.69249 96.525 171.19249 97.22813Q171.69249 97.93125 172.41124 97.93125Q173.14561 97.93125 173.62999 97.22813Q174.12999 96.525 174.12999 94.41563Q174.12999 92.29063 173.62999 91.60313Q173.14561 90.9 172.39561 90.9Q171.67686 90.9 171.23936 91.50938Q170.69249 92.29063 170.69249 94.41563ZM176.61436 94.41563Q176.61436 92.88438 176.92686 91.9625Q177.23936 91.025 177.84874 90.525Q178.47374 90.025 179.41124 90.025Q180.09874 90.025 180.61436 90.30625Q181.14561 90.5875 181.48936 91.11875Q181.83311 91.63438 182.02061 92.38438Q182.20811 93.13438 182.20811 94.41563Q182.20811 95.93125 181.89561 96.85313Q181.59874 97.775 180.97374 98.29063Q180.36436 98.79063 179.41124 98.79063Q178.17686 98.79063 177.45811 97.9Q176.61436 96.8375 176.61436 94.41563ZM177.69249 94.41563Q177.69249 96.525 178.19249 97.22813Q178.69249 97.93125 179.41124 97.93125Q180.14561 97.93125 180.62999 97.22813Q181.12999 96.525 181.12999 94.41563Q181.12999 92.29063 180.62999 91.60313Q180.14561 90.9 179.39561 90.9Q178.67686 90.9 178.23936 91.50938Q177.69249 92.29063 177.69249 94.41563Z" fill-rule="nonzero"/><path fill="#000000" d="M223.34749 98.65L222.30061 98.65L222.30061 91.93125Q221.90999 92.29063 221.28499 92.66563Q220.67561 93.025 220.19124 93.19688L220.19124 92.18125Q221.06624 91.75938 221.72249 91.18125Q222.39436 90.5875 222.67561 90.025L223.34749 90.025L223.34749 98.65ZM226.37874 94.41563Q226.37874 92.88438 226.69124 91.9625Q227.00374 91.025 227.61311 90.525Q228.23811 90.025 229.17561 90.025Q229.86311 90.025 230.37874 90.30625Q230.90999 90.5875 231.25374 91.11875Q231.59749 91.63438 231.78499 92.38438Q231.97249 93.13438 231.97249 94.41563Q231.97249 95.93125 231.65999 96.85313Q231.36311 97.775 230.73811 98.29063Q230.12874 98.79063 229.17561 98.79063Q227.94124 98.79063 227.22249 97.9Q226.37874 96.8375 226.37874 94.41563ZM227.45686 94.41563Q227.45686 96.525 227.95686 97.22813Q228.45686 97.93125 229.17561 97.93125Q229.90999 97.93125 230.39436 97.22813Q230.89436 96.525 230.89436 94.41563Q230.89436 92.29063 230.39436 91.60313Q229.90999 90.9 229.15999 90.9Q228.44124 90.9 228.00374 91.50938Q227.45686 92.29063 227.45686 94.41563ZM233.37874 94.41563Q233.37874 92.88438 233.69124 91.9625Q234.00374 91.025 234.61311 90.525Q235.23811 90.025 236.17561 90.025Q236.86311 90.025 237.37874 90.30625Q237.90999 90.5875 238.25374 91.11875Q238.59749 91.63438 238.78499 92.38438Q238.97249 93.13438 238.97249 94.41563Q238.97249 95.93125 238.65999 96.85313Q238.36311 97.775 237.73811 98.29063Q237.12874 98.79063 236.17561 98.79063Q234.94124 98.79063 234.22249 97.9Q233.37874 96.8375 233.37874 94.41563ZM234.45686 94.41563Q234.45686 96.525 234.95686 97.22813Q235.45686 97.93125 236.17561 97.93125Q236.90999 97.93125 237.39436 97.22813Q237.89436 96.525 237.89436 94.41563Q237.89436 92.29063 237.39436 91.60313Q236.90999 90.9 236.15999 90.9Q235.44124 90.9 235.00374 91.50938Q234.45686 92.29063 234.45686 94.41563ZM240.37874 94.41563Q240.37874 92.88438 240.69124 91.9625Q241.00374 91.025 241.61311 90.525Q242.23811 90.025 243.17561 90.025Q243.86311 90.025 244.37874 90.30625Q244.90999 90.5875 245.25374 91.11875Q245.59749 91.63438 245.78499 92.38438Q245.97249 93.13438 245.97249 94.41563Q245.97249 95.93125 245.65999 96.85313Q245.36311 97.775 244.73811 98.29063Q244.12874 98.79063 243.17561 98.79063Q241.94124 98.79063 241.22249 97.9Q240.37874 96.8375 240.37874 94.41563ZM241.45686 94.41563Q241.45686 96.525 241.95686 97.22813Q242.45686 97.93125 243.17561 97.93125Q243.90999 97.93125 244.39436 97.22813Q244.89436 96.525 244.89436 94.41563Q244.89436 92.29063 244.39436 91.60313Q243.90999 90.9 243.15999 90.9Q242.44124 90.9 242.00374 91.50938Q241.45686 92.29063 241.45686 94.41563Z" fill-rule="nonzero"/><path fill="#000000" d="M283.61185 98.65L282.56497 98.65L282.56497 91.93125Q282.17435 92.29063 281.54935 92.66563Q280.93997 93.025 280.4556 93.19688L280.4556 92.18125Q281.3306 91.75938 281.98685 91.18125Q282.65872 90.5875 282.93997 90.025L283.61185 90.025L283.61185 98.65ZM286.6431 96.4L287.75247 96.30625Q287.87747 97.11875 288.31497 97.525Q288.7681 97.93125 289.40872 97.93125Q290.15872 97.93125 290.68997 97.35313Q291.22122 96.775 291.22122 95.8375Q291.22122 94.93125 290.7056 94.41563Q290.2056 93.88438 289.37747 93.88438Q288.87747 93.88438 288.4556 94.11875Q288.04935 94.35313 287.81497 94.7125L286.8306 94.5875L287.65872 90.18125L291.93997 90.18125L291.93997 91.18125L288.50247 91.18125L288.04935 93.49375Q288.81497 92.94688 289.65872 92.94688Q290.78372 92.94688 291.54935 93.72813Q292.3306 94.50938 292.3306 95.74375Q292.3306 96.9 291.65872 97.75938Q290.8306 98.79063 289.40872 98.79063Q288.23685 98.79063 287.48685 98.13438Q286.75247 97.47813 286.6431 96.4ZM293.6431 94.41563Q293.6431 92.88438 293.9556 91.9625Q294.2681 91.025 294.87747 90.525Q295.50247 90.025 296.43997 90.025Q297.12747 90.025 297.6431 90.30625Q298.17435 90.5875 298.5181 91.11875Q298.86185 91.63438 299.04935 92.38438Q299.23685 93.13438 299.23685 94.41563Q299.23685 95.93125 298.92435 96.85313Q298.62747 97.775 298.00247 98.29063Q297.3931 98.79063 296.43997 98.79063Q295.2056 98.79063 294.48685 97.9Q293.6431 96.8375 293.6431 94.41563ZM294.72122 94.41563Q294.72122 96.525 295.22122 97.22813Q295.72122 97.93125 296.43997 97.93125Q297.17435 97.93125 297.65872 97.22813Q298.15872 96.525 298.15872 94.41563Q298.15872 92.29063 297.65872 91.60313Q297.17435 90.9 296.42435 90.9Q295.7056 90.9 295.2681 91.50938Q294.72122 92.29063 294.72122 94.41563ZM300.6431 94.41563Q300.6431 92.88438 300.9556 91.9625Q301.2681 91.025 301.87747 90.525Q302.50247 90.025 303.43997 90.025Q304.12747 90.025 304.6431 90.30625Q305.17435 90.5875 305.5181 91.11875Q305.86185 91.63438 306.04935 92.38438Q306.23685 93.13438 306.23685 94.41563Q306.23685 95.93125 305.92435 96.85313Q305.62747 97.775 305.00247 98.29063Q304.3931 98.79063 303.43997 98.79063Q302.2056 98.79063 301.48685 97.9Q300.6431 96.8375 300.6431 94.41563ZM301.72122 94.41563Q301.72122 96.525 302.22122 97.22813Q302.72122 97.93125 303.43997 97.93125Q304.17435 97.93125 304.65872 97.22813Q305.15872 96.525 305.15872 94.41563Q305.15872 92.29063 304.65872 91.60313Q304.17435 90.9 303.42435 90.9Q302.7056 90.9 302.2681 91.50938Q301.72122 92.29063 301.72122 94.41563Z" fill-rule="nonzero"/><path fill="#000000" d="M345.45435 97.63438L345.45435 98.65L339.76685 98.65Q339.76685 98.275 339.89185 97.91563Q340.1106 97.3375 340.57935 96.775Q341.06372 96.2125 341.96997 95.47813Q343.37622 94.32188 343.8606 93.65Q344.3606 92.97813 344.3606 92.38438Q344.3606 91.75938 343.90747 91.3375Q343.45435 90.9 342.7356 90.9Q341.96997 90.9 341.51685 91.35313Q341.06372 91.80625 341.0481 92.61875L339.96997 92.50938Q340.07935 91.29063 340.7981 90.66563Q341.53247 90.025 342.76685 90.025Q344.00122 90.025 344.71997 90.7125Q345.43872 91.4 345.43872 92.41563Q345.43872 92.93125 345.21997 93.43125Q345.01685 93.91563 344.51685 94.47813Q344.03247 95.025 342.90747 95.97813Q341.95435 96.775 341.6731 97.07188Q341.40747 97.35313 341.2356 97.63438L345.45435 97.63438ZM346.90747 94.41563Q346.90747 92.88438 347.21997 91.9625Q347.53247 91.025 348.14185 90.525Q348.76685 90.025 349.70435 90.025Q350.39185 90.025 350.90747 90.30625Q351.43872 90.5875 351.78247 91.11875Q352.12622 91.63438 352.31372 92.38438Q352.50122 93.13438 352.50122 94.41563Q352.50122 95.93125 352.18872 96.85313Q351.89185 97.775 351.26685 98.29063Q350.65747 98.79063 349.70435 98.79063Q348.46997 98.79063 347.75122 97.9Q346.90747 96.8375 346.90747 94.41563ZM347.9856 94.41563Q347.9856 96.525 348.4856 97.22813Q348.9856 97.93125 349.70435 97.93125Q350.43872 97.93125 350.9231 97.22813Q351.4231 96.525 351.4231 94.41563Q351.4231 92.29063 350.9231 91.60313Q350.43872 90.9 349.68872 90.9Q348.96997 90.9 348.53247 91.50938Q347.9856 92.29063 347.9856 94.41563ZM353.90747 94.41563Q353.90747 92.88438 354.21997 91.9625Q354.53247 91.025 355.14185 90.525Q355.76685 90.025 356.70435 90.025Q357.39185 90.025 357.90747 90.30625Q358.43872 90.5875 358.78247 91.11875Q359.12622 91.63438 359.31372 92.38438Q359.50122 93.13438 359.50122 94.41563Q359.50122 95.93125 359.18872 96.85313Q358.89185 97.775 358.26685 98.29063Q357.65747 98.79063 356.70435 98.79063Q355.46997 98.79063 354.75122 97.9Q353.90747 96.8375 353.90747 94.41563ZM354.9856 94.41563Q354.9856 96.525 355.4856 97.22813Q355.9856 97.93125 356.70435 97.93125Q357.43872 97.93125 357.9231 97.22813Q358.4231 96.525 358.4231 94.41563Q358.4231 92.29063 357.9231 91.60313Q357.43872 90.9 356.68872 90.9Q355.96997 90.9 355.53247 91.50938Q354.9856 92.29063 354.9856 94.41563ZM360.90747 94.41563Q360.90747 92.88438 361.21997 91.9625Q361.53247 91.025 362.14185 90.525Q362.76685 90.025 363.70435 90.025Q364.39185 90.025 364.90747 90.30625Q365.43872 90.5875 365.78247 91.11875Q366.12622 91.63438 366.31372 92.38438Q366.50122 93.13438 366.50122 94.41563Q366.50122 95.93125 366.18872 96.85313Q365.89185 97.775 365.26685 98.29063Q364.65747 98.79063 363.70435 98.79063Q362.46997 98.79063 361.75122 97.9Q360.90747 96.8375 360.90747 94.41563ZM361.9856 94.41563Q361.9856 96.525 362.4856 97.22813Q362.9856 97.93125 363.70435 97.93125Q364.43872 97.93125 364.9231 97.22813Q365.4231 96.525 365.4231 94.41563Q365.4231 92.29063 364.9231 91.60313Q364.43872 90.9 363.68872 90.9Q362.96997 90.9 362.53247 91.50938Q361.9856 92.29063 361.9856 94.41563Z" fill-rule="nonzero"/><path fill="#000000" d="M405.71872 97.63438L405.71872 98.65L400.03122 98.65Q400.03122 98.275 400.15622 97.91563Q400.37497 97.3375 400.84372 96.775Q401.3281 96.2125 402.23434 95.47813Q403.6406 94.32188 404.12497 93.65Q404.62497 92.97813 404.62497 92.38438Q404.62497 91.75938 404.17184 91.3375Q403.71872 90.9 402.99997 90.9Q402.23434 90.9 401.78122 91.35313Q401.3281 91.80625 401.31247 92.61875L400.23434 92.50938Q400.34372 91.29063 401.06247 90.66563Q401.79684 90.025 403.03122 90.025Q404.2656 90.025 404.98434 90.7125Q405.7031 91.4 405.7031 92.41563Q405.7031 92.93125 405.48434 93.43125Q405.28122 93.91563 404.78122 94.47813Q404.29684 95.025 403.17184 95.97813Q402.21872 96.775 401.93747 97.07188Q401.67184 97.35313 401.49997 97.63438L405.71872 97.63438ZM407.17184 96.4L408.28122 96.30625Q408.40622 97.11875 408.84372 97.525Q409.29684 97.93125 409.93747 97.93125Q410.68747 97.93125 411.21872 97.35313Q411.74997 96.775 411.74997 95.8375Q411.74997 94.93125 411.23434 94.41563Q410.73434 93.88438 409.90622 93.88438Q409.40622 93.88438 408.98434 94.11875Q408.5781 94.35313 408.34372 94.7125L407.35934 94.5875L408.18747 90.18125L412.46872 90.18125L412.46872 91.18125L409.03122 91.18125L408.5781 93.49375Q409.34372 92.94688 410.18747 92.94688Q411.31247 92.94688 412.0781 93.72813Q412.85934 94.50938 412.85934 95.74375Q412.85934 96.9 412.18747 97.75938Q411.35934 98.79063 409.93747 98.79063Q408.7656 98.79063 408.0156 98.13438Q407.28122 97.47813 407.17184 96.4ZM414.17184 94.41563Q414.17184 92.88438 414.48434 91.9625Q414.79684 91.025 415.40622 90.525Q416.03122 90.025 416.96872 90.025Q417.65622 90.025 418.17184 90.30625Q418.7031 90.5875 419.04684 91.11875Q419.3906 91.63438 419.5781 92.38438Q419.7656 93.13438 419.7656 94.41563Q419.7656 95.93125 419.4531 96.85313Q419.15622 97.775 418.53122 98.29063Q417.92184 98.79063 416.96872 98.79063Q415.73434 98.79063 415.0156 97.9Q414.17184 96.8375 414.17184 94.41563ZM415.24997 94.41563Q415.24997 96.525 415.74997 97.22813Q416.24997 97.93125 416.96872 97.93125Q417.7031 97.93125 418.18747 97.22813Q418.68747 96.525 418.68747 94.41563Q418.68747 92.29063 418.18747 91.60313Q417.7031 90.9 416.9531 90.9Q416.23434 90.9 415.79684 91.50938Q415.24997 92.29063 415.24997 94.41563ZM421.17184 94.41563Q421.17184 92.88438 421.48434 91.9625Q421.79684 91.025 422.40622 90.525Q423.03122 90.025 423.96872 90.025Q424.65622 90.025 425.17184 90.30625Q425.7031 90.5875 426.04684 91.11875Q426.3906 91.63438 426.5781 92.38438Q426.7656 93.13438 426.7656 94.41563Q426.7656 95.93125 426.4531 96.85313Q426.15622 97.775 425.53122 98.29063Q424.92184 98.79063 423.96872 98.79063Q422.73434 98.79063 422.0156 97.9Q421.17184 96.8375 421.17184 94.41563ZM422.24997 94.41563Q422.24997 96.525 422.74997 97.22813Q423.24997 97.93125 423.96872 97.93125Q424.7031 97.93125 425.18747 97.22813Q425.68747 96.525 425.68747 94.41563Q425.68747 92.29063 425.18747 91.60313Q424.7031 90.9 423.9531 90.9Q423.23434 90.9 422.79684 91.50938Q422.24997 92.29063 422.24997 94.41563Z" fill-rule="nonzero"/><path fill="#000000" d="M460.43622 96.38438L461.49872 96.24375Q461.6706 97.13438 462.1081 97.54063Q462.5456 97.93125 463.1706 97.93125Q463.9206 97.93125 464.43622 97.41563Q464.95184 96.9 464.95184 96.13438Q464.95184 95.41563 464.46747 94.94688Q463.99872 94.4625 463.26434 94.4625Q462.96747 94.4625 462.51434 94.5875L462.63934 93.65Q462.74872 93.66563 462.81122 93.66563Q463.4831 93.66563 464.01434 93.32188Q464.56122 92.9625 464.56122 92.22813Q464.56122 91.65 464.1706 91.275Q463.77997 90.88438 463.15497 90.88438Q462.5456 90.88438 462.12372 91.275Q461.71747 91.66563 461.6081 92.43125L460.5456 92.24375Q460.7331 91.19688 461.4206 90.61875Q462.1081 90.025 463.12372 90.025Q463.82684 90.025 464.4206 90.3375Q465.01434 90.63438 465.32684 91.15Q465.63934 91.66563 465.63934 92.25938Q465.63934 92.80625 465.34247 93.275Q465.0456 93.72813 464.46747 93.99375Q465.21747 94.16563 465.63934 94.72813Q466.06122 95.275 466.06122 96.11875Q466.06122 97.24375 465.2331 98.025Q464.4206 98.80625 463.1706 98.80625Q462.0456 98.80625 461.2956 98.13438Q460.5456 97.44688 460.43622 96.38438ZM467.43622 94.41563Q467.43622 92.88438 467.74872 91.9625Q468.06122 91.025 468.6706 90.525Q469.2956 90.025 470.2331 90.025Q470.9206 90.025 471.43622 90.30625Q471.96747 90.5875 472.31122 91.11875Q472.65497 91.63438 472.84247 92.38438Q473.02997 93.13438 473.02997 94.41563Q473.02997 95.93125 472.71747 96.85313Q472.4206 97.775 471.7956 98.29063Q471.18622 98.79063 470.2331 98.79063Q468.99872 98.79063 468.27997 97.9Q467.43622 96.8375 467.43622 94.41563ZM468.51434 94.41563Q468.51434 96.525 469.01434 97.22813Q469.51434 97.93125 470.2331 97.93125Q470.96747 97.93125 471.45184 97.22813Q471.95184 96.525 471.95184 94.41563Q471.95184 92.29063 471.45184 91.60313Q470.96747 90.9 470.21747 90.9Q469.49872 90.9 469.06122 91.50938Q468.51434 92.29063 468.51434 94.41563ZM474.43622 94.41563Q474.43622 92.88438 474.74872 91.9625Q475.06122 91.025 475.6706 90.525Q476.2956 90.025 477.2331 90.025Q477.9206 90.025 478.43622 90.30625Q478.96747 90.5875 479.31122 91.11875Q479.65497 91.63438 479.84247 92.38438Q480.02997 93.13438 480.02997 94.41563Q480.02997 95.93125 479.71747 96.85313Q479.4206 97.775 478.7956 98.29063Q478.18622 98.79063 477.2331 98.79063Q475.99872 98.79063 475.27997 97.9Q474.43622 96.8375 474.43622 94.41563ZM475.51434 94.41563Q475.51434 96.525 476.01434 97.22813Q476.51434 97.93125 477.2331 97.93125Q477.96747 97.93125 478.45184 97.22813Q478.95184 96.525 478.95184 94.41563Q478.95184 92.29063 478.45184 91.60313Q477.96747 90.9 477.21747 90.9Q476.49872 90.9 476.06122 91.50938Q475.51434 92.29063 475.51434 94.41563ZM481.43622 94.41563Q481.43622 92.88438 481.74872 91.9625Q482.06122 91.025 482.6706 90.525Q483.2956 90.025 484.2331 90.025Q484.9206 90.025 485.43622 90.30625Q485.96747 90.5875 486.31122 91.11875Q486.65497 91.63438 486.84247 92.38438Q487.02997 93.13438 487.02997 94.41563Q487.02997 95.93125 486.71747 96.85313Q486.4206 97.775 485.7956 98.29063Q485.18622 98.79063 484.2331 98.79063Q482.99872 98.79063 482.27997 97.9Q481.43622 96.8375 481.43622 94.41563ZM482.51434 94.41563Q482.51434 96.525 483.01434 97.22813Q483.51434 97.93125 484.2331 97.93125Q484.96747 97.93125 485.45184 97.22813Q485.95184 96.525 485.95184 94.41563Q485.95184 92.29063 485.45184 91.60313Q484.96747 90.9 484.21747 90.9Q483.49872 90.9 483.06122 91.50938Q482.51434 92.29063 482.51434 94.41563Z" fill-rule="nonzero"/><path fill="#000000" d="M520.70056 96.38438L521.76306 96.24375Q521.93494 97.13438 522.37244 97.54063Q522.80994 97.93125 523.43494 97.93125Q524.18494 97.93125 524.70056 97.41563Q525.2162 96.9 525.2162 96.13438Q525.2162 95.41563 524.7318 94.94688Q524.26306 94.4625 523.5287 94.4625Q523.2318 94.4625 522.7787 94.5875L522.9037 93.65Q523.01306 93.66563 523.07556 93.66563Q523.74744 93.66563 524.2787 93.32188Q524.82556 92.9625 524.82556 92.22813Q524.82556 91.65 524.43494 91.275Q524.0443 90.88438 523.4193 90.88438Q522.80994 90.88438 522.38806 91.275Q521.9818 91.66563 521.87244 92.43125L520.80994 92.24375Q520.99744 91.19688 521.68494 90.61875Q522.37244 90.025 523.38806 90.025Q524.0912 90.025 524.68494 90.3375Q525.2787 90.63438 525.5912 91.15Q525.9037 91.66563 525.9037 92.25938Q525.9037 92.80625 525.6068 93.275Q525.30994 93.72813 524.7318 93.99375Q525.4818 94.16563 525.9037 94.72813Q526.32556 95.275 526.32556 96.11875Q526.32556 97.24375 525.49744 98.025Q524.68494 98.80625 523.43494 98.80625Q522.30994 98.80625 521.55994 98.13438Q520.80994 97.44688 520.70056 96.38438ZM527.70056 96.4L528.80994 96.30625Q528.93494 97.11875 529.37244 97.525Q529.82556 97.93125 530.4662 97.93125Q531.2162 97.93125 531.74744 97.35313Q532.2787 96.775 532.2787 95.8375Q532.2787 94.93125 531.76306 94.41563Q531.26306 93.88438 530.43494 93.88438Q529.93494 93.88438 529.51306 94.11875Q529.1068 94.35313 528.87244 94.7125L527.88806 94.5875L528.7162 90.18125L532.99744 90.18125L532.99744 91.18125L529.55994 91.18125L529.1068 93.49375Q529.87244 92.94688 530.7162 92.94688Q531.8412 92.94688 532.6068 93.72813Q533.38806 94.50938 533.38806 95.74375Q533.38806 96.9 532.7162 97.75938Q531.88806 98.79063 530.4662 98.79063Q529.2943 98.79063 528.5443 98.13438Q527.80994 97.47813 527.70056 96.4ZM534.70056 94.41563Q534.70056 92.88438 535.01306 91.9625Q535.32556 91.025 535.93494 90.525Q536.55994 90.025 537.49744 90.025Q538.18494 90.025 538.70056 90.30625Q539.2318 90.5875 539.57556 91.11875Q539.9193 91.63438 540.1068 92.38438Q540.2943 93.13438 540.2943 94.41563Q540.2943 95.93125 539.9818 96.85313Q539.68494 97.775 539.05994 98.29063Q538.45056 98.79063 537.49744 98.79063Q536.26306 98.79063 535.5443 97.9Q534.70056 96.8375 534.70056 94.41563ZM535.7787 94.41563Q535.7787 96.525 536.2787 97.22813Q536.7787 97.93125 537.49744 97.93125Q538.2318 97.93125 538.7162 97.22813Q539.2162 96.525 539.2162 94.41563Q539.2162 92.29063 538.7162 91.60313Q538.2318 90.9 537.4818 90.9Q536.76306 90.9 536.32556 91.50938Q535.7787 92.29063 535.7787 94.41563ZM541.70056 94.41563Q541.70056 92.88438 542.01306 91.9625Q542.32556 91.025 542.93494 90.525Q543.55994 90.025 544.49744 90.025Q545.18494 90.025 545.70056 90.30625Q546.2318 90.5875 546.57556 91.11875Q546.9193 91.63438 547.1068 92.38438Q547.2943 93.13438 547.2943 94.41563Q547.2943 95.93125 546.9818 96.85313Q546.68494 97.775 546.05994 98.29063Q545.45056 98.79063 544.49744 98.79063Q543.26306 98.79063 542.5443 97.9Q541.70056 96.8375 541.70056 94.41563ZM542.7787 94.41563Q542.7787 96.525 543.2787 97.22813Q543.7787 97.93125 544.49744 97.93125Q545.2318 97.93125 545.7162 97.22813Q546.2162 96.525 546.2162 94.41563Q546.2162 92.29063 545.7162 91.60313Q545.2318 90.9 544.4818 90.9Q543.76306 90.9 543.32556 91.50938Q542.7787 92.29063 542.7787 94.41563Z" fill-rule="nonzero"/><path fill="#000000" d="M584.33997 98.65L584.33997 96.5875L580.6212 96.5875L580.6212 95.61875L584.5431 90.05625L585.40247 90.05625L585.40247 95.61875L586.5587 95.61875L586.5587 96.5875L585.40247 96.5875L585.40247 98.65L584.33997 98.65ZM584.33997 95.61875L584.33997 91.75938L581.65247 95.61875L584.33997 95.61875ZM587.96497 94.41563Q587.96497 92.88438 588.27747 91.9625Q588.58997 91.025 589.19934 90.525Q589.82434 90.025 590.76184 90.025Q591.44934 90.025 591.96497 90.30625Q592.4962 90.5875 592.83997 91.11875Q593.1837 91.63438 593.3712 92.38438Q593.5587 93.13438 593.5587 94.41563Q593.5587 95.93125 593.2462 96.85313Q592.94934 97.775 592.32434 98.29063Q591.71497 98.79063 590.76184 98.79063Q589.52747 98.79063 588.8087 97.9Q587.96497 96.8375 587.96497 94.41563ZM589.0431 94.41563Q589.0431 96.525 589.5431 97.22813Q590.0431 97.93125 590.76184 97.93125Q591.4962 97.93125 591.9806 97.22813Q592.4806 96.525 592.4806 94.41563Q592.4806 92.29063 591.9806 91.60313Q591.4962 90.9 590.7462 90.9Q590.02747 90.9 589.58997 91.50938Q589.0431 92.29063 589.0431 94.41563ZM594.96497 94.41563Q594.96497 92.88438 595.27747 91.9625Q595.58997 91.025 596.19934 90.525Q596.82434 90.025 597.76184 90.025Q598.44934 90.025 598.96497 90.30625Q599.4962 90.5875 599.83997 91.11875Q600.1837 91.63438 600.3712 92.38438Q600.5587 93.13438 600.5587 94.41563Q600.5587 95.93125 600.2462 96.85313Q599.94934 97.775 599.32434 98.29063Q598.71497 98.79063 597.76184 98.79063Q596.52747 98.79063 595.8087 97.9Q594.96497 96.8375 594.96497 94.41563ZM596.0431 94.41563Q596.0431 96.525 596.5431 97.22813Q597.0431 97.93125 597.76184 97.93125Q598.4962 97.93125 598.9806 97.22813Q599.4806 96.525 599.4806 94.41563Q599.4806 92.29063 598.9806 91.60313Q598.4962 90.9 597.7462 90.9Q597.02747 90.9 596.58997 91.50938Q596.0431 92.29063 596.0431 94.41563ZM601.96497 94.41563Q601.96497 92.88438 602.27747 91.9625Q602.58997 91.025 603.19934 90.525Q603.82434 90.025 604.76184 90.025Q605.44934 90.025 605.96497 90.30625Q606.4962 90.5875 606.83997 91.11875Q607.1837 91.63438 607.3712 92.38438Q607.5587 93.13438 607.5587 94.41563Q607.5587 95.93125 607.2462 96.85313Q606.94934 97.775 606.32434 98.29063Q605.71497 98.79063 604.76184 98.79063Q603.52747 98.79063 602.8087 97.9Q601.96497 96.8375 601.96497 94.41563ZM603.0431 94.41563Q603.0431 96.525 603.5431 97.22813Q604.0431 97.93125 604.76184 97.93125Q605.4962 97.93125 605.9806 97.22813Q606.4806 96.525 606.4806 94.41563Q606.4806 92.29063 605.9806 91.60313Q605.4962 90.9 604.7462 90.9Q604.02747 90.9 603.58997 91.50938Q603.0431 92.29063 603.0431 94.41563Z" fill-rule="nonzero"/><path fill="#757575" d="M6.896875 24.35L6.896875 10.0375L12.2875 10.0375Q13.725 10.0375 14.475 10.1625Q15.521875 10.35 16.240625 10.85Q16.959375 11.334375 17.38125 12.225Q17.81875 13.115625 17.81875 14.178125Q17.81875 16.00625 16.646875 17.271875Q15.490625 18.521875 12.459375 18.521875L8.7875 18.521875L8.7875 24.35L6.896875 24.35ZM8.7875 16.834375L12.490625 16.834375Q14.31875 16.834375 15.084375 16.1625Q15.865625 15.475 15.865625 14.225Q15.865625 13.334375 15.4125 12.69375Q14.959375 12.053125 14.225 11.85Q13.740625 11.725 12.44375 11.725L8.7875 11.725L8.7875 16.834375ZM19.646875 24.35L19.646875 13.975L21.225 13.975L21.225 15.553125Q21.834375 14.44375 22.35 14.1Q22.865625 13.740625 23.475 13.740625Q24.365625 13.740625 25.2875 14.303125L24.678125 15.94375Q24.0375 15.553125 23.396875 15.553125Q22.81875 15.553125 22.35 15.9125Q21.896875 16.25625 21.69375 16.865625Q21.4125 17.803125 21.4125 18.9125L21.4125 24.35L19.646875 24.35ZM26.678125 12.053125L26.678125 10.0375L28.44375 10.0375L28.44375 12.053125L26.678125 12.053125ZM26.678125 24.35L26.678125 13.975L28.44375 13.975L28.44375 24.35L26.678125 24.35ZM37.44375 20.553125L39.1625 20.771875Q38.88125 22.56875 37.709373 23.584375Q36.553123 24.584375 34.85 24.584375Q32.725 24.584375 31.428125 23.19375Q30.13125 21.803125 30.13125 19.209375Q30.13125 17.521875 30.678125 16.271875Q31.240625 15.00625 32.38125 14.38125Q33.521873 13.740625 34.865623 13.740625Q36.553123 13.740625 37.615623 14.6Q38.69375 15.459375 39.00625 17.021875L37.2875 17.2875Q37.053123 16.240625 36.428123 15.725Q35.803123 15.19375 34.928123 15.19375Q33.6 15.19375 32.771873 16.146875Q31.94375 17.1 31.94375 19.146875Q31.94375 21.240625 32.740623 22.19375Q33.5375 23.13125 34.834373 23.13125Q35.865623 23.13125 36.553123 22.50625Q37.25625 21.865625 37.44375 20.553125ZM47.771873 21.00625L49.584373 21.240625Q49.1625 22.81875 47.990623 23.709375Q46.834373 24.584375 45.021873 24.584375Q42.75625 24.584375 41.4125 23.19375Q40.084373 21.7875 40.084373 19.25625Q40.084373 16.63125 41.428123 15.19375Q42.771873 13.740625 44.928123 13.740625Q47.00625 13.740625 48.31875 15.1625Q49.646873 16.56875 49.646873 19.146875Q49.646873 19.303125 49.63125 19.615625L41.896873 19.615625Q41.990623 21.31875 42.865623 22.225Q43.740623 23.13125 45.0375 23.13125Q46.00625 23.13125 46.678123 22.63125Q47.365623 22.115625 47.771873 21.00625ZM41.990623 18.1625L47.7875 18.1625Q47.678123 16.865625 47.13125 16.209375Q46.2875 15.19375 44.94375 15.19375Q43.740623 15.19375 42.9125 16.00625Q42.084373 16.803125 41.990623 18.1625ZM58.084373 24.35L58.084373 15.35L56.5375 15.35L56.5375 13.975L58.084373 13.975L58.084373 12.88125Q58.084373 11.834375 58.271873 11.31875Q58.521873 10.63125 59.1625 10.209375Q59.803123 9.7875 60.959373 9.7875Q61.709373 9.7875 62.6 9.959375L62.334373 11.490625Q61.7875 11.396875 61.303123 11.396875Q60.50625 11.396875 60.1625 11.740625Q59.834373 12.084375 59.834373 13.021875L59.834373 13.975L61.865623 13.975L61.865623 15.35L59.834373 15.35L59.834373 24.35L58.084373 24.35ZM63.021873 19.1625Q63.021873 16.2875 64.61562 14.896875Q65.95937 13.740625 67.88125 13.740625Q70.02187 13.740625 71.36562 15.146875Q72.725 16.553125 72.725 19.021875Q72.725 21.021875 72.13125 22.178125Q71.5375 23.31875 70.38125 23.959375Q69.24062 24.584375 67.88125 24.584375Q65.69375 24.584375 64.35 23.19375Q63.021873 21.7875 63.021873 19.1625ZM64.81875 19.1625Q64.81875 21.1625 65.67812 22.146875Q66.55312 23.13125 67.88125 23.13125Q69.19375 23.13125 70.05312 22.146875Q70.92812 21.146875 70.92812 19.1Q70.92812 17.178125 70.05312 16.19375Q69.17812 15.19375 67.88125 15.19375Q66.55312 15.19375 65.67812 16.19375Q64.81875 17.178125 64.81875 19.1625ZM74.64687 24.35L74.64687 13.975L76.225 13.975L76.225 15.553125Q76.83437 14.44375 77.35 14.1Q77.86562 13.740625 78.475 13.740625Q79.36562 13.740625 80.2875 14.303125L79.67812 15.94375Q79.0375 15.553125 78.39687 15.553125Q77.81875 15.553125 77.35 15.9125Q76.89687 16.25625 76.69375 16.865625Q76.4125 17.803125 76.4125 18.9125L76.4125 24.35L74.64687 24.35ZM91.50625 22.771875L91.75625 24.334375Q91.02187 24.490625 90.42812 24.490625Q89.475 24.490625 88.94375 24.19375Q88.42812 23.88125 88.20937 23.396875Q87.99062 22.896875 87.99062 21.31875L87.99062 15.35L86.70937 15.35L86.70937 13.975L87.99062 13.975L87.99062 11.4125L89.74062 10.35L89.74062 13.975L91.50625 13.975L91.50625 15.35L89.74062 15.35L89.74062 21.4125Q89.74062 22.1625 89.83437 22.38125Q89.92812 22.584375 90.13125 22.725Q90.35 22.85 90.74062 22.85Q91.02187 22.85 91.50625 22.771875ZM93.6625 24.35L93.6625 10.0375L95.42812 10.0375L95.42812 15.1625Q96.6625 13.740625 98.5375 13.740625Q99.67812 13.740625 100.52187 14.19375Q101.38125 14.646875 101.74062 15.459375Q102.11562 16.25625 102.11562 17.771875L102.11562 24.35L100.36562 24.35L100.36562 17.771875Q100.36562 16.459375 99.7875 15.865625Q99.20937 15.25625 98.17812 15.25625Q97.39687 15.25625 96.69375 15.6625Q96.00625 16.06875 95.70937 16.771875Q95.42812 17.459375 95.42812 18.678125L95.42812 24.35L93.6625 24.35ZM110.77187 21.00625L112.58437 21.240625Q112.1625 22.81875 110.99062 23.709375Q109.83437 24.584375 108.02187 24.584375Q105.75625 24.584375 104.4125 23.19375Q103.08437 21.7875 103.08437 19.25625Q103.08437 16.63125 104.42812 15.19375Q105.77187 13.740625 107.92812 13.740625Q110.00625 13.740625 111.31875 15.1625Q112.64687 16.56875 112.64687 19.146875Q112.64687 19.303125 112.63125 19.615625L104.89687 19.615625Q104.99062 21.31875 105.86562 22.225Q106.74062 23.13125 108.0375 23.13125Q109.00625 23.13125 109.67812 22.63125Q110.36562 22.115625 110.77187 21.00625ZM104.99062 18.1625L110.7875 18.1625Q110.67812 16.865625 110.13125 16.209375Q109.2875 15.19375 107.94375 15.19375Q106.74062 15.19375 105.9125 16.00625Q105.08437 16.803125 104.99062 18.1625ZM120.25625 19.75625L122.0375 19.6Q122.1625 20.6625 122.61562 21.35Q123.08437 22.0375 124.05312 22.475Q125.0375 22.896875 126.27187 22.896875Q127.35 22.896875 128.17813 22.584375Q129.00626 22.25625 129.4125 21.69375Q129.81876 21.13125 129.81876 20.459375Q129.81876 19.7875 129.42813 19.2875Q129.0375 18.7875 128.14688 18.44375Q127.56875 18.209375 125.58437 17.740625Q123.61562 17.271875 122.83437 16.85Q121.80312 16.31875 121.30312 15.521875Q120.80312 14.725 120.80312 13.740625Q120.80312 12.646875 121.4125 11.709375Q122.02187 10.771875 123.20937 10.2875Q124.39687 9.7875 125.83437 9.7875Q127.42812 9.7875 128.64688 10.303125Q129.86563 10.81875 130.50626 11.81875Q131.1625 12.803125 131.20938 14.06875L129.39688 14.209375Q129.25626 12.85 128.4125 12.1625Q127.56875 11.459375 125.9125 11.459375Q124.19375 11.459375 123.39687 12.1Q122.61562 12.725 122.61562 13.6Q122.61562 14.38125 123.17812 14.88125Q123.725 15.38125 126.0375 15.896875Q128.35 16.4125 129.20938 16.803125Q130.45938 17.38125 131.05313 18.271875Q131.64688 19.146875 131.64688 20.303125Q131.64688 21.44375 130.99063 22.459375Q130.33438 23.475 129.1 24.0375Q127.88125 24.6 126.35 24.6Q124.4125 24.6 123.1 24.0375Q121.7875 23.459375 121.0375 22.31875Q120.2875 21.178125 120.25625 19.75625ZM133.58438 28.35L133.39688 26.69375Q133.975 26.85 134.39688 26.85Q134.99063 26.85 135.33438 26.646875Q135.69376 26.459375 135.9125 26.115625Q136.08438 25.85 136.45938 24.803125Q136.50626 24.646875 136.61563 24.365625L132.67813 13.975L134.56876 13.975L136.725 19.990625Q137.14688 21.13125 137.475 22.38125Q137.7875 21.178125 138.19376 20.021875L140.4125 13.975L142.17813 13.975L138.225 24.521875Q137.6 26.240625 137.24063 26.88125Q136.77188 27.75625 136.1625 28.146875Q135.56876 28.553125 134.725 28.553125Q134.20938 28.553125 133.58438 28.35ZM142.95938 21.25625L144.70938 20.975Q144.85 22.021875 145.52188 22.584375Q146.19376 23.13125 147.39688 23.13125Q148.6 23.13125 149.17813 22.646875Q149.77188 22.146875 149.77188 21.490625Q149.77188 20.896875 149.25626 20.553125Q148.89688 20.31875 147.45938 19.959375Q145.52188 19.459375 144.77188 19.115625Q144.0375 18.75625 143.64688 18.13125Q143.25626 17.490625 143.25626 16.725Q143.25626 16.0375 143.56876 15.44375Q143.89688 14.85 144.44376 14.459375Q144.85 14.1625 145.55313 13.959375Q146.27188 13.740625 147.08438 13.740625Q148.30313 13.740625 149.225 14.1Q150.14688 14.44375 150.58438 15.053125Q151.02188 15.646875 151.19376 16.646875L149.475 16.88125Q149.35 16.084375 148.7875 15.646875Q148.225 15.19375 147.20938 15.19375Q145.99063 15.19375 145.475 15.6Q144.95938 15.990625 144.95938 16.521875Q144.95938 16.865625 145.17813 17.146875Q145.38126 17.428125 145.85 17.615625Q146.11563 17.709375 147.39688 18.053125Q149.27188 18.553125 150.00626 18.88125Q150.74063 19.19375 151.1625 19.803125Q151.58438 20.396875 151.58438 21.303125Q151.58438 22.178125 151.06876 22.959375Q150.55313 23.740625 149.58438 24.1625Q148.61563 24.584375 147.39688 24.584375Q145.38126 24.584375 144.31876 23.740625Q143.25626 22.896875 142.95938 21.25625ZM157.50626 22.771875L157.75626 24.334375Q157.02188 24.490625 156.42813 24.490625Q155.475 24.490625 154.94376 24.19375Q154.42813 23.88125 154.20938 23.396875Q153.99063 22.896875 153.99063 21.31875L153.99063 15.35L152.70938 15.35L152.70938 13.975L153.99063 13.975L153.99063 11.4125L155.74063 10.35L155.74063 13.975L157.50626 13.975L157.50626 15.35L155.74063 15.35L155.74063 21.4125Q155.74063 22.1625 155.83438 22.38125Q155.92813 22.584375 156.13126 22.725Q156.35 22.85 156.74063 22.85Q157.02188 22.85 157.50626 22.771875ZM166.77188 21.00625L168.58438 21.240625Q168.1625 22.81875 166.99063 23.709375Q165.83438 24.584375 164.02188 24.584375Q161.75626 24.584375 160.4125 23.19375Q159.08438 21.7875 159.08438 19.25625Q159.08438 16.63125 160.42813 15.19375Q161.77188 13.740625 163.92813 13.740625Q166.00626 13.740625 167.31876 15.1625Q168.64688 16.56875 168.64688 19.146875Q168.64688 19.303125 168.63126 19.615625L160.89688 19.615625Q160.99063 21.31875 161.86563 22.225Q162.74063 23.13125 164.0375 23.13125Q165.00626 23.13125 165.67813 22.63125Q166.36563 22.115625 166.77188 21.00625ZM160.99063 18.1625L166.7875 18.1625Q166.67813 16.865625 166.13126 16.209375Q165.2875 15.19375 163.94376 15.19375Q162.74063 15.19375 161.9125 16.00625Q161.08438 16.803125 160.99063 18.1625ZM170.6625 24.35L170.6625 13.975L172.24063 13.975L172.24063 15.428125Q172.725 14.678125 173.5375 14.209375Q174.35 13.740625 175.38126 13.740625Q176.5375 13.740625 177.27188 14.225Q178.00626 14.69375 178.31876 15.553125Q179.55313 13.740625 181.52188 13.740625Q183.06876 13.740625 183.89688 14.6Q184.725 15.459375 184.725 17.225L184.725 24.35L182.975 24.35L182.975 17.81875Q182.975 16.75625 182.80313 16.303125Q182.63126 15.834375 182.17813 15.553125Q181.74063 15.271875 181.13126 15.271875Q180.0375 15.271875 179.30313 16.00625Q178.58438 16.725 178.58438 18.31875L178.58438 24.35L176.83438 24.35L176.83438 17.615625Q176.83438 16.44375 176.39688 15.865625Q175.975 15.271875 174.99063 15.271875Q174.25626 15.271875 173.61563 15.6625Q172.99063 16.053125 172.70938 16.803125Q172.42813 17.553125 172.42813 18.975L172.42813 24.35L170.6625 24.35ZM185.35 24.6L189.50626 9.7875L190.9125 9.7875L186.77188 24.6L185.35 24.6ZM199.6 18.740625L199.6 17.053125L205.6625 17.0375L205.6625 22.35Q204.25626 23.475 202.77188 24.0375Q201.2875 24.6 199.725 24.6Q197.61563 24.6 195.89688 23.69375Q194.17813 22.7875 193.2875 21.084375Q192.4125 19.365625 192.4125 17.25625Q192.4125 15.1625 193.2875 13.365625Q194.1625 11.553125 195.80313 10.678125Q197.44376 9.7875 199.58438 9.7875Q201.13126 9.7875 202.38126 10.2875Q203.64688 10.7875 204.35 11.69375Q205.06876 12.584375 205.44376 14.0375L203.74063 14.50625Q203.4125 13.4125 202.92813 12.7875Q202.45938 12.1625 201.56876 11.7875Q200.67813 11.4125 199.6 11.4125Q198.2875 11.4125 197.33438 11.803125Q196.39688 12.19375 195.81876 12.85Q195.24063 13.490625 194.9125 14.25625Q194.36563 15.584375 194.36563 17.146875Q194.36563 19.053125 195.02188 20.35Q195.69376 21.63125 196.94376 22.25625Q198.20938 22.88125 199.61563 22.88125Q200.85 22.88125 202.02188 22.4125Q203.19376 21.94375 203.80313 21.396875L203.80313 18.740625L199.6 18.740625ZM208.89688 24.35L208.89688 10.0375L214.2875 10.0375Q215.725 10.0375 216.475 10.1625Q217.52188 10.35 218.24063 10.85Q218.95938 11.334375 219.38126 12.225Q219.81876 13.115625 219.81876 14.178125Q219.81876 16.00625 218.64688 17.271875Q217.49063 18.521875 214.45938 18.521875L210.7875 18.521875L210.7875 24.35L208.89688 24.35ZM210.7875 16.834375L214.49063 16.834375Q216.31876 16.834375 217.08438 16.1625Q217.86563 15.475 217.86563 14.225Q217.86563 13.334375 217.4125 12.69375Q216.95938 12.053125 216.225 11.85Q215.74063 11.725 214.44376 11.725L210.7875 11.725L210.7875 16.834375ZM231.2875 10.0375L233.17813 10.0375L233.17813 18.303125Q233.17813 20.459375 232.69376 21.740625Q232.20938 23.00625 230.92813 23.803125Q229.6625 24.6 227.58438 24.6Q225.56876 24.6 224.2875 23.9125Q223.02188 23.209375 222.475 21.896875Q221.92813 20.584375 221.92813 18.303125L221.92813 10.0375L223.81876 10.0375L223.81876 18.2875Q223.81876 20.1625 224.1625 21.053125Q224.50626 21.928125 225.35 22.4125Q226.19376 22.88125 227.42813 22.88125Q229.50626 22.88125 230.39688 21.94375Q231.2875 20.990625 231.2875 18.2875L231.2875 10.0375ZM233.95938 21.25625L235.70938 20.975Q235.85 22.021875 236.52188 22.584375Q237.19376 23.13125 238.39688 23.13125Q239.6 23.13125 240.17813 22.646875Q240.77188 22.146875 240.77188 21.490625Q240.77188 20.896875 240.25626 20.553125Q239.89688 20.31875 238.45938 19.959375Q236.52188 19.459375 235.77188 19.115625Q235.0375 18.75625 234.64688 18.13125Q234.25626 17.490625 234.25626 16.725Q234.25626 16.0375 234.56876 15.44375Q234.89688 14.85 235.44376 14.459375Q235.85 14.1625 236.55313 13.959375Q237.27188 13.740625 238.08438 13.740625Q239.30313 13.740625 240.225 14.1Q241.14688 14.44375 241.58438 15.053125Q242.02188 15.646875 242.19376 16.646875L240.475 16.88125Q240.35 16.084375 239.7875 15.646875Q239.225 15.19375 238.20938 15.19375Q236.99063 15.19375 236.475 15.6Q235.95938 15.990625 235.95938 16.521875Q235.95938 16.865625 236.17813 17.146875Q236.38126 17.428125 236.85 17.615625Q237.11563 17.709375 238.39688 18.053125Q240.27188 18.553125 241.00626 18.88125Q241.74063 19.19375 242.1625 19.803125Q242.58438 20.396875 242.58438 21.303125Q242.58438 22.178125 242.06876 22.959375Q241.55313 23.740625 240.58438 24.1625Q239.61563 24.584375 238.39688 24.584375Q236.38126 24.584375 235.31876 23.740625Q234.25626 22.896875 233.95938 21.25625ZM250.67813 12.053125L250.67813 10.0375L252.44376 10.0375L252.44376 12.053125L250.67813 12.053125ZM250.67813 24.35L250.67813 13.975L252.44376 13.975L252.44376 24.35L250.67813 24.35ZM254.6625 24.35L254.6625 13.975L256.25626 13.975L256.25626 15.459375Q257.39688 13.740625 259.55313 13.740625Q260.49063 13.740625 261.27188 14.084375Q262.06876 14.4125 262.45938 14.959375Q262.85 15.50625 263.00626 16.25625Q263.1 16.75625 263.1 17.975L263.1 24.35L261.33438 24.35L261.33438 18.0375Q261.33438 16.959375 261.13126 16.428125Q260.92813 15.896875 260.39688 15.584375Q259.88126 15.271875 259.17813 15.271875Q258.05313 15.271875 257.24063 15.990625Q256.42813 16.69375 256.42813 18.678125L256.42813 24.35L254.6625 24.35ZM280.2875 10.0375L282.17813 10.0375L282.17813 18.303125Q282.17813 20.459375 281.69376 21.740625Q281.20938 23.00625 279.92813 23.803125Q278.6625 24.6 276.58438 24.6Q274.56876 24.6 273.2875 23.9125Q272.02188 23.209375 271.475 21.896875Q270.92813 20.584375 270.92813 18.303125L270.92813 10.0375L272.81876 10.0375L272.81876 18.2875Q272.81876 20.1625 273.1625 21.053125Q273.50626 21.928125 274.35 22.4125Q275.19376 22.88125 276.42813 22.88125Q278.50626 22.88125 279.39688 21.94375Q280.2875 20.990625 280.2875 18.2875L280.2875 10.0375ZM283.25626 19.75625L285.0375 19.6Q285.1625 20.6625 285.61563 21.35Q286.08438 22.0375 287.05313 22.475Q288.0375 22.896875 289.27188 22.896875Q290.35 22.896875 291.17813 22.584375Q292.00626 22.25625 292.4125 21.69375Q292.81876 21.13125 292.81876 20.459375Q292.81876 19.7875 292.42813 19.2875Q292.0375 18.7875 291.14688 18.44375Q290.56876 18.209375 288.58438 17.740625Q286.61563 17.271875 285.83438 16.85Q284.80313 16.31875 284.30313 15.521875Q283.80313 14.725 283.80313 13.740625Q283.80313 12.646875 284.4125 11.709375Q285.02188 10.771875 286.20938 10.2875Q287.39688 9.7875 288.83438 9.7875Q290.42813 9.7875 291.64688 10.303125Q292.86563 10.81875 293.50626 11.81875Q294.1625 12.803125 294.20938 14.06875L292.39688 14.209375Q292.25626 12.85 291.4125 12.1625Q290.56876 11.459375 288.9125 11.459375Q287.19376 11.459375 286.39688 12.1Q285.61563 12.725 285.61563 13.6Q285.61563 14.38125 286.17813 14.88125Q286.725 15.38125 289.0375 15.896875Q291.35 16.4125 292.20938 16.803125Q293.45938 17.38125 294.05313 18.271875Q294.64688 19.146875 294.64688 20.303125Q294.64688 21.44375 293.99063 22.459375Q293.33438 23.475 292.1 24.0375Q290.88126 24.6 289.35 24.6Q287.4125 24.6 286.1 24.0375Q284.7875 23.459375 284.0375 22.31875Q283.2875 21.178125 283.25626 19.75625ZM296.89688 24.35L296.89688 10.0375L301.81876 10.0375Q303.49063 10.0375 304.38126 10.240625Q305.6 10.521875 306.475 11.25625Q307.6 12.225 308.1625 13.709375Q308.725 15.19375 308.725 17.115625Q308.725 18.740625 308.35 20.00625Q307.975 21.25625 307.36563 22.084375Q306.77188 22.9125 306.06876 23.396875Q305.36563 23.865625 304.36563 24.115625Q303.36563 24.35 302.05313 24.35L296.89688 24.35ZM298.7875 22.6625L301.85 22.6625Q303.25626 22.6625 304.05313 22.396875Q304.86563 22.13125 305.35 21.646875Q306.02188 20.975 306.39688 19.85Q306.77188 18.709375 306.77188 17.084375Q306.77188 14.834375 306.0375 13.63125Q305.30313 12.428125 304.24063 12.021875Q303.49063 11.725 301.80313 11.725L298.7875 11.725L298.7875 22.6625Z" fill-rule="nonzero"/></svg>