<svg version="1.1" viewBox="0.0 0.0 642.0 107.0" fill="none" stroke="none" stroke-linecap="square" stroke-miterlimit="10" width="642" height="107" xmlns:xlink="http://www.w3.org/1999/xlink" xmlns="http://www.w3.org/2000/svg"><path fill="#ffffff" d="M0 0L642.0 0L642.0 107.0L0 107.0L0 0Z" fill-rule="nonzero"/><path stroke="#333333" stroke-width="1.0" stroke-linecap="butt" d="M112.5 32.5L112.5 81.5" fill-rule="nonzero"/><path stroke="#cccccc" stroke-width="1.0" stroke-linecap="butt" d="M201.5 32.5L201.5 81.5" fill-rule="nonzero"/><path stroke="#cccccc" stroke-width="1.0" stroke-linecap="butt" d="M290.5 32.5L290.5 81.5" fill-rule="nonzero"/><path stroke="#cccccc" stroke-width="1.0" stroke-linecap="butt" d="M378.5 32.5L378.5 81.5" fill-rule="nonzero"/><path stroke="#cccccc" stroke-width="1.0" stroke-linecap="butt" d="M467.5 32.5L467.5 81.5" fill-rule="nonzero"/><path stroke="#cccccc" stroke-width="1.0" stroke-linecap="butt" d="M556.5 32.5L556.5 81.5" fill-rule="nonzero"/><clipPath id="id_0"><path d="M112.35 32.916668L636.65 32.916668L636.65 81.65L112.35 81.65L112.35 32.916668Z" clip-rule="nonzero"/></clipPath><path stroke="#000000" stroke-width="2.0" stroke-linecap="butt" stroke-opacity="0.0" clip-path="url(#id_0)" d="M112.0 54.0L112.0 41.0L587.0 41.0L587.0 54.0Z" fill-rule="nonzero"/><path fill="#38761d" clip-path="url(#id_0)" d="M112.0 54.0L112.0 41.0L587.0 41.0L587.0 54.0Z" fill-rule="nonzero"/><path stroke="#000000" stroke-width="2.0" stroke-linecap="butt" stroke-opacity="0.0" clip-path="url(#id_0)" d="M112.0 75.0L112.0 62.0L112.0 62.0L112.0 75.0Z" fill-rule="nonzero"/><path fill="#38761d" clip-path="url(#id_0)" d="M112.0 75.0L112.0 62.0L112.0 62.0L112.0 75.0Z" fill-rule="nonzero"/><path stroke="#000000" stroke-width="2.0" stroke-linecap="butt" stroke-opacity="0.0" clip-path="url(#id_0)" d="M587.0 54.0L587.0 41.0L587.0 41.0L587.0 54.0Z" fill-rule="nonzero"/><path fill="#0b5394" clip-path="url(#id_0)" d="M587.0 54.0L587.0 41.0L587.0 41.0L587.0 54.0Z" fill-rule="nonzero"/><path stroke="#000000" stroke-width="2.0" stroke-linecap="butt" stroke-opacity="0.0" clip-path="url(#id_0)" d="M112.0 75.0L112.0 62.0L162.0 62.0C163.10457 62.0 164.0 62.89543 164.0 64.0L164.0 73.0C164.0 74.10457 163.10457 75.0 162.0 75.0Z" fill-rule="nonzero"/><path fill="#0b5394" clip-path="url(#id_0)" d="M112.0 75.0L112.0 62.0L162.0 62.0C163.10457 62.0 164.0 62.89543 164.0 64.0L164.0 73.0C164.0 74.10457 163.10457 75.0 162.0 75.0Z" fill-rule="nonzero"/><path stroke="#ffffff" stroke-width="3.0" stroke-linejoin="round" stroke-linecap="round" d="M603.15155 42.921875L603.15155 51.5L602.0734 51.5L602.0734 44.28125L599.8859 45.078125L599.8859 44.09375L602.9953 42.921875L603.15155 42.921875ZM611.9484 46.546875L611.9484 47.859375Q611.9484 48.90625 611.7609 49.625Q611.5734 50.34375 611.21405 50.78125Q610.8703 51.21875 610.3703 51.421875Q609.8859 51.625 609.2609 51.625Q608.77655 51.625 608.3547 51.5Q607.9328 51.375 607.6047 51.109375Q607.27655 50.828125 607.0422 50.390625Q606.8078 49.953125 606.6828 49.328125Q606.5578 48.6875 606.5578 47.859375L606.5578 46.546875Q606.5578 45.5 606.7453 44.796875Q606.9484 44.09375 607.2922 43.65625Q607.65155 43.21875 608.1359 43.03125Q608.6359 42.84375 609.2453 42.84375Q609.7453 42.84375 610.1672 42.96875Q610.58905 43.09375 610.9172 43.359375Q611.2453 43.609375 611.46405 44.046875Q611.6984 44.46875 611.8234 45.09375Q611.9484 45.71875 611.9484 46.546875ZM610.8547 48.03125L610.8547 46.375Q610.8547 45.796875 610.7922 45.359375Q610.7297 44.921875 610.58905 44.609375Q610.46405 44.296875 610.2609 44.109375Q610.0734 43.921875 609.8234 43.828125Q609.5734 43.734375 609.2453 43.734375Q608.8703 43.734375 608.5578 43.875Q608.2609 44.015625 608.0578 44.328125Q607.8547 44.640625 607.7453 45.15625Q607.65155 45.65625 607.65155 46.375L607.65155 48.03125Q607.65155 48.609375 607.71405 49.046875Q607.7922 49.484375 607.9172 49.8125Q608.0578 50.125 608.2453 50.328125Q608.4484 50.53125 608.6984 50.625Q608.9484 50.71875 609.2609 50.71875Q609.6672 50.71875 609.96405 50.578125Q610.2609 50.421875 610.46405 50.09375Q610.6672 49.765625 610.7609 49.265625Q610.8547 48.75 610.8547 48.03125ZM617.7609 42.953125L617.8547 42.953125L617.8547 43.875L617.7609 43.875Q616.90155 43.875 616.3078 44.15625Q615.7297 44.4375 615.3859 44.90625Q615.0578 45.359375 614.90155 45.953125Q614.7609 46.53125 614.7609 47.125L614.7609 48.375Q614.7609 48.9375 614.8859 49.375Q615.02655 49.8125 615.2609 50.125Q615.4953 50.421875 615.7922 50.578125Q616.08905 50.71875 616.40155 50.71875Q616.77655 50.71875 617.0734 50.578125Q617.3703 50.4375 617.5734 50.171875Q617.77655 49.90625 617.8703 49.5625Q617.9797 49.203125 617.9797 48.765625Q617.9797 48.390625 617.8859 48.03125Q617.7922 47.671875 617.6047 47.40625Q617.4172 47.125 617.1203 46.96875Q616.8234 46.796875 616.4328 46.796875Q615.9797 46.796875 615.58905 47.015625Q615.1984 47.234375 614.9484 47.59375Q614.6984 47.953125 614.6672 48.359375L614.08905 48.359375Q614.1828 47.703125 614.40155 47.234375Q614.6203 46.765625 614.96405 46.46875Q615.3078 46.171875 615.71405 46.046875Q616.1359 45.90625 616.6047 45.90625Q617.2453 45.90625 617.6984 46.15625Q618.1672 46.390625 618.46405 46.796875Q618.77655 47.1875 618.9172 47.6875Q619.0578 48.1875 619.0578 48.71875Q619.0578 49.3125 618.8859 49.84375Q618.71405 50.375 618.3703 50.78125Q618.0422 51.171875 617.5422 51.40625Q617.0578 51.625 616.40155 51.625Q615.71405 51.625 615.1984 51.34375Q614.6828 51.046875 614.33905 50.578125Q614.0109 50.09375 613.83905 49.515625Q613.6672 48.9375 613.6672 48.34375L613.6672 47.828125Q613.6672 46.921875 613.83905 46.0625Q614.02655 45.1875 614.4797 44.484375Q614.9328 43.78125 615.7297 43.375Q616.52655 42.953125 617.7609 42.953125ZM625.9797 49.1875Q625.9797 49.96875 625.6203 50.515625Q625.2609 51.046875 624.6359 51.34375Q624.02655 51.625 623.2609 51.625Q622.4953 51.625 621.8703 51.34375Q621.2609 51.046875 620.90155 50.515625Q620.5422 49.96875 620.5422 49.1875Q620.5422 48.6875 620.7453 48.265625Q620.9484 47.828125 621.3078 47.515625Q621.6672 47.203125 622.15155 47.03125Q622.65155 46.859375 623.2453 46.859375Q624.0422 46.859375 624.65155 47.15625Q625.2609 47.453125 625.6203 47.984375Q625.9797 48.515625 625.9797 49.1875ZM624.8859 49.171875Q624.8859 48.6875 624.6828 48.328125Q624.4797 47.953125 624.1047 47.75Q623.7297 47.546875 623.2453 47.546875Q622.7453 47.546875 622.3859 47.75Q622.02655 47.953125 621.8234 48.328125Q621.6359 48.6875 621.6359 49.171875Q621.6359 49.65625 621.8234 50.015625Q622.02655 50.359375 622.3859 50.546875Q622.7609 50.71875 623.2609 50.71875Q623.7609 50.71875 624.1203 50.546875Q624.4953 50.359375 624.6828 50.015625Q624.8859 49.65625 624.8859 49.171875ZM625.77655 45.1875Q625.77655 45.8125 625.4484 46.3125Q625.1203 46.8125 624.5422 47.09375Q623.9797 47.375 623.2609 47.375Q622.52655 47.375 621.9484 47.09375Q621.3859 46.8125 621.0578 46.3125Q620.7453 45.8125 620.7453 45.1875Q620.7453 44.4375 621.0578 43.921875Q621.3859 43.40625 621.9484 43.125Q622.52655 42.84375 623.2609 42.84375Q623.9953 42.84375 624.5578 43.125Q625.1203 43.40625 625.4484 43.921875Q625.77655 44.4375 625.77655 45.1875ZM624.6984 45.203125Q624.6984 44.78125 624.5109 44.453125Q624.3234 44.125 623.9953 43.9375Q623.6828 43.734375 623.2609 43.734375Q622.8234 43.734375 622.4953 43.921875Q622.1828 44.09375 622.0109 44.421875Q621.83905 44.75 621.83905 45.203125Q621.83905 45.640625 622.0109 45.96875Q622.1828 46.296875 622.5109 46.484375Q622.83905 46.671875 623.2609 46.671875Q623.6828 46.671875 623.9953 46.484375Q624.3234 46.296875 624.5109 45.96875Q624.6984 45.640625 624.6984 45.203125Z" fill-rule="nonzero"/><path fill="#38761d" d="M603.15155 42.921875L603.15155 51.5L602.0734 51.5L602.0734 44.28125L599.8859 45.078125L599.8859 44.09375L602.9953 42.921875L603.15155 42.921875ZM611.9484 46.546875L611.9484 47.859375Q611.9484 48.90625 611.7609 49.625Q611.5734 50.34375 611.21405 50.78125Q610.8703 51.21875 610.3703 51.421875Q609.8859 51.625 609.2609 51.625Q608.77655 51.625 608.3547 51.5Q607.9328 51.375 607.6047 51.109375Q607.27655 50.828125 607.0422 50.390625Q606.8078 49.953125 606.6828 49.328125Q606.5578 48.6875 606.5578 47.859375L606.5578 46.546875Q606.5578 45.5 606.7453 44.796875Q606.9484 44.09375 607.2922 43.65625Q607.65155 43.21875 608.1359 43.03125Q608.6359 42.84375 609.2453 42.84375Q609.7453 42.84375 610.1672 42.96875Q610.58905 43.09375 610.9172 43.359375Q611.2453 43.609375 611.46405 44.046875Q611.6984 44.46875 611.8234 45.09375Q611.9484 45.71875 611.9484 46.546875ZM610.8547 48.03125L610.8547 46.375Q610.8547 45.796875 610.7922 45.359375Q610.7297 44.921875 610.58905 44.609375Q610.46405 44.296875 610.2609 44.109375Q610.0734 43.921875 609.8234 43.828125Q609.5734 43.734375 609.2453 43.734375Q608.8703 43.734375 608.5578 43.875Q608.2609 44.015625 608.0578 44.328125Q607.8547 44.640625 607.7453 45.15625Q607.65155 45.65625 607.65155 46.375L607.65155 48.03125Q607.65155 48.609375 607.71405 49.046875Q607.7922 49.484375 607.9172 49.8125Q608.0578 50.125 608.2453 50.328125Q608.4484 50.53125 608.6984 50.625Q608.9484 50.71875 609.2609 50.71875Q609.6672 50.71875 609.96405 50.578125Q610.2609 50.421875 610.46405 50.09375Q610.6672 49.765625 610.7609 49.265625Q610.8547 48.75 610.8547 48.03125ZM617.7609 42.953125L617.8547 42.953125L617.8547 43.875L617.7609 43.875Q616.90155 43.875 616.3078 44.15625Q615.7297 44.4375 615.3859 44.90625Q615.0578 45.359375 614.90155 45.953125Q614.7609 46.53125 614.7609 47.125L614.7609 48.375Q614.7609 48.9375 614.8859 49.375Q615.02655 49.8125 615.2609 50.125Q615.4953 50.421875 615.7922 50.578125Q616.08905 50.71875 616.40155 50.71875Q616.77655 50.71875 617.0734 50.578125Q617.3703 50.4375 617.5734 50.171875Q617.77655 49.90625 617.8703 49.5625Q617.9797 49.203125 617.9797 48.765625Q617.9797 48.390625 617.8859 48.03125Q617.7922 47.671875 617.6047 47.40625Q617.4172 47.125 617.1203 46.96875Q616.8234 46.796875 616.4328 46.796875Q615.9797 46.796875 615.58905 47.015625Q615.1984 47.234375 614.9484 47.59375Q614.6984 47.953125 614.6672 48.359375L614.08905 48.359375Q614.1828 47.703125 614.40155 47.234375Q614.6203 46.765625 614.96405 46.46875Q615.3078 46.171875 615.71405 46.046875Q616.1359 45.90625 616.6047 45.90625Q617.2453 45.90625 617.6984 46.15625Q618.1672 46.390625 618.46405 46.796875Q618.77655 47.1875 618.9172 47.6875Q619.0578 48.1875 619.0578 48.71875Q619.0578 49.3125 618.8859 49.84375Q618.71405 50.375 618.3703 50.78125Q618.0422 51.171875 617.5422 51.40625Q617.0578 51.625 616.40155 51.625Q615.71405 51.625 615.1984 51.34375Q614.6828 51.046875 614.33905 50.578125Q614.0109 50.09375 613.83905 49.515625Q613.6672 48.9375 613.6672 48.34375L613.6672 47.828125Q613.6672 46.921875 613.83905 46.0625Q614.02655 45.1875 614.4797 44.484375Q614.9328 43.78125 615.7297 43.375Q616.52655 42.953125 617.7609 42.953125ZM625.9797 49.1875Q625.9797 49.96875 625.6203 50.515625Q625.2609 51.046875 624.6359 51.34375Q624.02655 51.625 623.2609 51.625Q622.4953 51.625 621.8703 51.34375Q621.2609 51.046875 620.90155 50.515625Q620.5422 49.96875 620.5422 49.1875Q620.5422 48.6875 620.7453 48.265625Q620.9484 47.828125 621.3078 47.515625Q621.6672 47.203125 622.15155 47.03125Q622.65155 46.859375 623.2453 46.859375Q624.0422 46.859375 624.65155 47.15625Q625.2609 47.453125 625.6203 47.984375Q625.9797 48.515625 625.9797 49.1875ZM624.8859 49.171875Q624.8859 48.6875 624.6828 48.328125Q624.4797 47.953125 624.1047 47.75Q623.7297 47.546875 623.2453 47.546875Q622.7453 47.546875 622.3859 47.75Q622.02655 47.953125 621.8234 48.328125Q621.6359 48.6875 621.6359 49.171875Q621.6359 49.65625 621.8234 50.015625Q622.02655 50.359375 622.3859 50.546875Q622.7609 50.71875 623.2609 50.71875Q623.7609 50.71875 624.1203 50.546875Q624.4953 50.359375 624.6828 50.015625Q624.8859 49.65625 624.8859 49.171875ZM625.77655 45.1875Q625.77655 45.8125 625.4484 46.3125Q625.1203 46.8125 624.5422 47.09375Q623.9797 47.375 623.2609 47.375Q622.52655 47.375 621.9484 47.09375Q621.3859 46.8125 621.0578 46.3125Q620.7453 45.8125 620.7453 45.1875Q620.7453 44.4375 621.0578 43.921875Q621.3859 43.40625 621.9484 43.125Q622.52655 42.84375 623.2609 42.84375Q623.9953 42.84375 624.5578 43.125Q625.1203 43.40625 625.4484 43.921875Q625.77655 44.4375 625.77655 45.1875ZM624.6984 45.203125Q624.6984 44.78125 624.5109 44.453125Q624.3234 44.125 623.9953 43.9375Q623.6828 43.734375 623.2609 43.734375Q622.8234 43.734375 622.4953 43.921875Q622.1828 44.09375 622.0109 44.421875Q621.83905 44.75 621.83905 45.203125Q621.83905 45.640625 622.0109 45.96875Q622.1828 46.296875 622.5109 46.484375Q622.83905 46.671875 623.2609 46.671875Q623.6828 46.671875 623.9953 46.484375Q624.3234 46.296875 624.5109 45.96875Q624.6984 45.640625 624.6984 45.203125Z" fill-rule="nonzero"/><path stroke="#ffffff" stroke-width="3.0" stroke-linejoin="round" stroke-linecap="round" d="M180.15698 63.921875L180.15698 72.5L179.07886 72.5L179.07886 65.28125L176.89136 66.078125L176.89136 65.09375L180.00073 63.921875L180.15698 63.921875ZM187.15698 63.921875L187.15698 72.5L186.07886 72.5L186.07886 65.28125L183.89136 66.078125L183.89136 65.09375L187.00073 63.921875L187.15698 63.921875ZM194.76636 63.953125L194.8601 63.953125L194.8601 64.875L194.76636 64.875Q193.90698 64.875 193.31323 65.15625Q192.7351 65.4375 192.39136 65.90625Q192.06323 66.359375 191.90698 66.953125Q191.76636 67.53125 191.76636 68.125L191.76636 69.375Q191.76636 69.9375 191.89136 70.375Q192.03198 70.8125 192.26636 71.125Q192.50073 71.421875 192.7976 71.578125Q193.09448 71.71875 193.40698 71.71875Q193.78198 71.71875 194.07886 71.578125Q194.37573 71.4375 194.57886 71.171875Q194.78198 70.90625 194.87573 70.5625Q194.9851 70.203125 194.9851 69.765625Q194.9851 69.390625 194.89136 69.03125Q194.7976 68.671875 194.6101 68.40625Q194.4226 68.125 194.12573 67.96875Q193.82886 67.796875 193.43823 67.796875Q192.9851 67.796875 192.59448 68.015625Q192.20386 68.234375 191.95386 68.59375Q191.70386 68.953125 191.6726 69.359375L191.09448 69.359375Q191.18823 68.703125 191.40698 68.234375Q191.62573 67.765625 191.96948 67.46875Q192.31323 67.171875 192.71948 67.046875Q193.14136 66.90625 193.6101 66.90625Q194.25073 66.90625 194.70386 67.15625Q195.1726 67.390625 195.46948 67.796875Q195.78198 68.1875 195.9226 68.6875Q196.06323 69.1875 196.06323 69.71875Q196.06323 70.3125 195.89136 70.84375Q195.71948 71.375 195.37573 71.78125Q195.0476 72.171875 194.5476 72.40625Q194.06323 72.625 193.40698 72.625Q192.71948 72.625 192.20386 72.34375Q191.68823 72.046875 191.34448 71.578125Q191.01636 71.09375 190.84448 70.515625Q190.6726 69.9375 190.6726 69.34375L190.6726 68.828125Q190.6726 67.921875 190.84448 67.0625Q191.03198 66.1875 191.4851 65.484375Q191.93823 64.78125 192.7351 64.375Q193.53198 63.953125 194.76636 63.953125Z" fill-rule="nonzero"/><path fill="#0b5394" d="M180.15698 63.921875L180.15698 72.5L179.07886 72.5L179.07886 65.28125L176.89136 66.078125L176.89136 65.09375L180.00073 63.921875L180.15698 63.921875ZM187.15698 63.921875L187.15698 72.5L186.07886 72.5L186.07886 65.28125L183.89136 66.078125L183.89136 65.09375L187.00073 63.921875L187.15698 63.921875ZM194.76636 63.953125L194.8601 63.953125L194.8601 64.875L194.76636 64.875Q193.90698 64.875 193.31323 65.15625Q192.7351 65.4375 192.39136 65.90625Q192.06323 66.359375 191.90698 66.953125Q191.76636 67.53125 191.76636 68.125L191.76636 69.375Q191.76636 69.9375 191.89136 70.375Q192.03198 70.8125 192.26636 71.125Q192.50073 71.421875 192.7976 71.578125Q193.09448 71.71875 193.40698 71.71875Q193.78198 71.71875 194.07886 71.578125Q194.37573 71.4375 194.57886 71.171875Q194.78198 70.90625 194.87573 70.5625Q194.9851 70.203125 194.9851 69.765625Q194.9851 69.390625 194.89136 69.03125Q194.7976 68.671875 194.6101 68.40625Q194.4226 68.125 194.12573 67.96875Q193.82886 67.796875 193.43823 67.796875Q192.9851 67.796875 192.59448 68.015625Q192.20386 68.234375 191.95386 68.59375Q191.70386 68.953125 191.6726 69.359375L191.09448 69.359375Q191.18823 68.703125 191.40698 68.234375Q191.62573 67.765625 191.96948 67.46875Q192.31323 67.171875 192.71948 67.046875Q193.14136 66.90625 193.6101 66.90625Q194.25073 66.90625 194.70386 67.15625Q195.1726 67.390625 195.46948 67.796875Q195.78198 68.1875 195.9226 68.6875Q196.06323 69.1875 196.06323 69.71875Q196.06323 70.3125 195.89136 70.84375Q195.71948 71.375 195.37573 71.78125Q195.0476 72.171875 194.5476 72.40625Q194.06323 72.625 193.40698 72.625Q192.71948 72.625 192.20386 72.34375Q191.68823 72.046875 191.34448 71.578125Q191.01636 71.09375 190.84448 70.515625Q190.6726 69.9375 190.6726 69.34375L190.6726 68.828125Q190.6726 67.921875 190.84448 67.0625Q191.03198 66.1875 191.4851 65.484375Q191.93823 64.78125 192.7351 64.375Q193.53198 63.953125 194.76636 63.953125Z" fill-rule="nonzero"/><path fill="#000000" d="M6.271875 50.91454L6.271875 42.32079L7.428125 42.32079L11.94375 49.07079L11.94375 42.32079L13.0375 42.32079L13.0375 50.91454L11.865625 50.91454L7.35 44.16454L7.35 50.91454L6.271875 50.91454ZM17.725 50.91454L14.396875 42.32079L15.63125 42.32079L17.865625 48.57079Q18.13125 49.32079 18.31875 49.97704Q18.521875 49.273914 18.7875 48.57079L21.1 42.32079L22.25625 42.32079L18.896875 50.91454L17.725 50.91454ZM22.475 50.91454L22.475 42.32079L23.6 42.32079L23.6 50.91454L22.475 50.91454ZM25.271875 50.91454L25.271875 42.32079L28.240625 42.32079Q29.240625 42.32079 29.771875 42.44579Q30.50625 42.617664 31.021875 43.055164Q31.709375 43.63329 32.0375 44.53954Q32.38125 45.430164 32.38125 46.57079Q32.38125 47.555164 32.146873 48.305164Q31.928125 49.055164 31.56875 49.555164Q31.209375 50.055164 30.771875 50.336414Q30.35 50.617664 29.75625 50.773914Q29.1625 50.91454 28.38125 50.91454L25.271875 50.91454ZM26.4125 49.898914L28.240625 49.898914Q29.1 49.898914 29.584375 49.742664Q30.06875 49.586414 30.35 49.28954Q30.75625 48.898914 30.975 48.211414Q31.209375 47.523914 31.209375 46.555164Q31.209375 45.211414 30.75625 44.492664Q30.31875 43.75829 29.69375 43.50829Q29.225 43.336414 28.225 43.336414L26.4125 43.336414L26.4125 49.898914ZM34.475 50.91454L34.475 42.32079L35.6 42.32079L35.6 50.91454L34.475 50.91454ZM36.334373 50.91454L39.63125 42.32079L40.85 42.32079L44.365623 50.91454L43.084373 50.91454L42.06875 48.305164L38.490623 48.305164L37.5375 50.91454L36.334373 50.91454ZM38.81875 47.38329L41.725 47.38329L40.834373 45.00829Q40.4125 43.930164 40.225 43.22704Q40.053123 44.055164 39.75625 44.867664L38.81875 47.38329ZM47.271873 50.91454L47.271873 42.32079L50.240623 42.32079Q51.240623 42.32079 51.771873 42.44579Q52.50625 42.617664 53.021873 43.055164Q53.709373 43.63329 54.0375 44.53954Q54.38125 45.430164 54.38125 46.57079Q54.38125 47.555164 54.146873 48.305164Q53.928123 49.055164 53.56875 49.555164Q53.209373 50.055164 52.771873 50.336414Q52.35 50.617664 51.75625 50.773914Q51.1625 50.91454 50.38125 50.91454L47.271873 50.91454ZM48.4125 49.898914L50.240623 49.898914Q51.1 49.898914 51.584373 49.742664Q52.06875 49.586414 52.35 49.28954Q52.75625 48.898914 52.975 48.211414Q53.209373 47.523914 53.209373 46.555164Q53.209373 45.211414 52.75625 44.492664Q52.31875 43.75829 51.69375 43.50829Q51.225 43.336414 50.225 43.336414L48.4125 43.336414L48.4125 49.898914ZM60.303123 47.53954L60.303123 46.53954L63.928123 46.523914L63.928123 49.711414Q63.1 50.38329 62.209373 50.72704Q61.31875 51.055164 60.38125 51.055164Q59.115623 51.055164 58.06875 50.523914Q57.0375 49.97704 56.50625 48.961414Q55.990623 47.930164 55.990623 46.66454Q55.990623 45.398914 56.50625 44.32079Q57.0375 43.22704 58.021873 42.711414Q59.00625 42.180164 60.2875 42.180164Q61.225 42.180164 61.975 42.47704Q62.725 42.773914 63.146873 43.32079Q63.584373 43.85204 63.803123 44.72704L62.7875 45.00829Q62.584373 44.35204 62.2875 43.97704Q62.00625 43.60204 61.475 43.38329Q60.94375 43.148914 60.303123 43.148914Q59.521873 43.148914 58.94375 43.38329Q58.38125 43.617664 58.021873 44.00829Q57.678123 44.398914 57.490623 44.867664Q57.1625 45.66454 57.1625 46.586414Q57.1625 47.742664 57.553123 48.523914Q57.959373 49.28954 58.709373 49.66454Q59.459373 50.03954 60.31875 50.03954Q61.053123 50.03954 61.75625 49.75829Q62.459373 49.461414 62.81875 49.148914L62.81875 47.53954L60.303123 47.53954ZM64.39687 50.91454L67.725 46.430164L64.80312 42.32079L66.14687 42.32079L67.70937 44.523914Q68.19375 45.211414 68.39687 45.586414Q68.69375 45.117664 69.08437 44.60204L70.80312 42.32079L72.0375 42.32079L69.02187 46.367664L72.27187 50.91454L70.86562 50.91454L68.70937 47.85204Q68.52187 47.586414 68.33437 47.273914Q68.05312 47.742664 67.92812 47.91454L65.77187 50.91454L64.39687 50.91454ZM74.89687 48.148914L75.95937 48.055164Q76.0375 48.711414 76.31875 49.117664Q76.6 49.523914 77.17812 49.78954Q77.77187 50.03954 78.50625 50.03954Q79.14687 50.03954 79.64687 49.85204Q80.14687 49.648914 80.38125 49.32079Q80.63125 48.97704 80.63125 48.586414Q80.63125 48.180164 80.39687 47.88329Q80.1625 47.57079 79.63125 47.367664Q79.27187 47.22704 78.08437 46.94579Q76.9125 46.66454 76.44375 46.41454Q75.81875 46.086414 75.52187 45.617664Q75.225 45.13329 75.225 44.53954Q75.225 43.898914 75.58437 43.336414Q75.95937 42.75829 76.6625 42.47704Q77.38125 42.180164 78.24062 42.180164Q79.19375 42.180164 79.92812 42.492664Q80.6625 42.78954 81.05312 43.398914Q81.44375 43.992664 81.475 44.742664L80.38125 44.82079Q80.2875 44.00829 79.77187 43.60204Q79.27187 43.180164 78.2875 43.180164Q77.25625 43.180164 76.7875 43.555164Q76.31875 43.930164 76.31875 44.461414Q76.31875 44.930164 76.64687 45.22704Q76.975 45.523914 78.35 45.836414Q79.74062 46.148914 80.25625 46.38329Q81.00625 46.742664 81.36562 47.273914Q81.725 47.78954 81.725 48.492664Q81.725 49.180164 81.33437 49.78954Q80.94375 50.38329 80.20937 50.72704Q79.475 51.055164 78.55312 51.055164Q77.38125 51.055164 76.58437 50.72704Q75.80312 50.38329 75.35 49.69579Q74.9125 49.00829 74.89687 48.148914ZM83.14687 53.305164L83.14687 44.69579L84.1 44.69579L84.1 45.492664Q84.44375 45.023914 84.86562 44.78954Q85.30312 44.555164 85.9125 44.555164Q86.70937 44.555164 87.31875 44.961414Q87.92812 45.367664 88.225 46.117664Q88.5375 46.867664 88.5375 47.75829Q88.5375 48.711414 88.19375 49.47704Q87.86562 50.242664 87.20937 50.648914Q86.55312 51.055164 85.83437 51.055164Q85.30312 51.055164 84.88125 50.836414Q84.45937 50.60204 84.19375 50.273914L84.19375 53.305164L83.14687 53.305164ZM84.1 47.836414Q84.1 49.03954 84.58437 49.617664Q85.06875 50.180164 85.75625 50.180164Q86.45937 50.180164 86.95937 49.586414Q87.45937 48.992664 87.45937 47.742664Q87.45937 46.555164 86.975 45.97704Q86.49062 45.38329 85.80312 45.38329Q85.13125 45.38329 84.61562 46.00829Q84.1 46.63329 84.1 47.836414ZM94.20937 50.148914Q93.61562 50.648914 93.06875 50.85204Q92.5375 51.055164 91.9125 51.055164Q90.88125 51.055164 90.33437 50.555164Q89.7875 50.055164 89.7875 49.273914Q89.7875 48.82079 89.99062 48.44579Q90.19375 48.055164 90.5375 47.836414Q90.88125 47.60204 91.30312 47.492664Q91.6 47.398914 92.24062 47.32079Q93.50625 47.180164 94.11562 46.961414Q94.11562 46.742664 94.11562 46.69579Q94.11562 46.03954 93.81875 45.773914Q93.4125 45.430164 92.61562 45.430164Q91.88125 45.430164 91.52187 45.69579Q91.1625 45.94579 90.99062 46.60204L89.95937 46.461414Q90.1 45.805164 90.42812 45.398914Q90.75625 44.992664 91.36562 44.773914Q91.975 44.555164 92.77187 44.555164Q93.56875 44.555164 94.06875 44.742664Q94.56875 44.930164 94.80312 45.211414Q95.0375 45.492664 95.13125 45.930164Q95.17812 46.19579 95.17812 46.898914L95.17812 48.305164Q95.17812 49.773914 95.24062 50.16454Q95.31875 50.555164 95.52187 50.91454L94.4125 50.91454Q94.25625 50.586414 94.20937 50.148914ZM94.11562 47.78954Q93.5375 48.023914 92.39687 48.19579Q91.74062 48.28954 91.475 48.41454Q91.20937 48.523914 91.05312 48.742664Q90.9125 48.961414 90.9125 49.242664Q90.9125 49.66454 91.225 49.94579Q91.55312 50.22704 92.1625 50.22704Q92.77187 50.22704 93.24062 49.961414Q93.725 49.69579 93.94375 49.22704Q94.11562 48.867664 94.11562 48.180164L94.11562 47.78954ZM97.13125 50.91454L97.13125 44.69579L98.08437 44.69579L98.08437 45.63329Q98.44375 44.97704 98.74062 44.773914Q99.05312 44.555164 99.42812 44.555164Q99.95937 44.555164 100.50625 44.88329L100.14687 45.867664Q99.75625 45.63329 99.38125 45.63329Q99.02187 45.63329 98.74062 45.85204Q98.475 46.055164 98.36562 46.430164Q98.17812 46.992664 98.17812 47.648914L98.17812 50.91454L97.13125 50.91454ZM101.14687 50.91454L101.14687 42.32079L102.20937 42.32079L102.20937 47.22704L104.69375 44.69579L106.06875 44.69579L103.67812 46.992664L106.30312 50.91454L105.00625 50.91454L102.94375 47.72704L102.20937 48.44579L102.20937 50.91454L101.14687 50.91454Z" fill-rule="nonzero"/><path fill="#000000" d="M8.271875 71.65213L8.271875 63.05838L11.521875 63.05838Q12.365625 63.05838 12.81875 63.136505Q13.459375 63.24588 13.88125 63.542755Q14.31875 63.83963 14.56875 64.37088Q14.834375 64.90213 14.834375 65.542755Q14.834375 66.636505 14.13125 67.40213Q13.44375 68.15213 11.615625 68.15213L9.4125 68.15213L9.4125 71.65213L8.271875 71.65213ZM9.4125 67.15213L11.63125 67.15213Q12.740625 67.15213 13.19375 66.74588Q13.6625 66.324005 13.6625 65.574005Q13.6625 65.042755 13.38125 64.667755Q13.115625 64.27713 12.678125 64.15213Q12.38125 64.074005 11.615625 64.074005L9.4125 64.074005L9.4125 67.15213ZM20.396875 69.65213L21.490625 69.77713Q21.240625 70.730255 20.5375 71.261505Q19.834375 71.792755 18.75625 71.792755Q17.396875 71.792755 16.584375 70.949005Q15.7875 70.105255 15.7875 68.58963Q15.7875 67.02713 16.6 66.167755Q17.4125 65.292755 18.69375 65.292755Q19.94375 65.292755 20.725 66.136505Q21.521875 66.980255 21.521875 68.52713Q21.521875 68.62088 21.521875 68.80838L16.88125 68.80838Q16.94375 69.83963 17.459375 70.386505Q17.975 70.917755 18.75625 70.917755Q19.334375 70.917755 19.740625 70.62088Q20.1625 70.30838 20.396875 69.65213ZM16.94375 67.949005L20.4125 67.949005Q20.35 67.15213 20.021875 66.761505Q19.50625 66.15213 18.709375 66.15213Q17.975 66.15213 17.475 66.636505Q16.990625 67.12088 16.94375 67.949005ZM23.146875 71.65213L23.146875 65.43338L24.084375 65.43338L24.084375 66.30838Q24.771875 65.292755 26.06875 65.292755Q26.63125 65.292755 27.1 65.49588Q27.584375 65.699005 27.81875 66.02713Q28.053125 66.355255 28.146875 66.792755Q28.19375 67.08963 28.19375 67.824005L28.19375 71.65213L27.146875 71.65213L27.146875 67.87088Q27.146875 67.21463 27.021875 66.90213Q26.896875 66.58963 26.584375 66.40213Q26.271875 66.199005 25.85 66.199005Q25.178125 66.199005 24.678125 66.636505Q24.19375 67.05838 24.19375 68.24588L24.19375 71.65213L23.146875 71.65213ZM32.44375 70.71463L32.6 71.636505Q32.146873 71.730255 31.803125 71.730255Q31.225 71.730255 30.9125 71.55838Q30.6 71.37088 30.459375 71.074005Q30.334375 70.77713 30.334375 69.824005L30.334375 66.24588L29.56875 66.24588L29.56875 65.43338L30.334375 65.43338L30.334375 63.886505L31.38125 63.261505L31.38125 65.43338L32.44375 65.43338L32.44375 66.24588L31.38125 66.24588L31.38125 69.886505Q31.38125 70.33963 31.428125 70.46463Q31.490625 70.58963 31.615625 70.667755Q31.740625 70.74588 31.975 70.74588Q32.1625 70.74588 32.44375 70.71463ZM37.209373 70.886505Q36.615623 71.386505 36.06875 71.58963Q35.5375 71.792755 34.9125 71.792755Q33.88125 71.792755 33.334373 71.292755Q32.7875 70.792755 32.7875 70.011505Q32.7875 69.55838 32.990623 69.18338Q33.19375 68.792755 33.5375 68.574005Q33.88125 68.33963 34.303123 68.230255Q34.6 68.136505 35.240623 68.05838Q36.50625 67.917755 37.115623 67.699005Q37.115623 67.480255 37.115623 67.43338Q37.115623 66.77713 36.81875 66.511505Q36.4125 66.167755 35.615623 66.167755Q34.88125 66.167755 34.521873 66.43338Q34.1625 66.68338 33.990623 67.33963L32.959373 67.199005Q33.1 66.542755 33.428123 66.136505Q33.75625 65.730255 34.365623 65.511505Q34.975 65.292755 35.771873 65.292755Q36.56875 65.292755 37.06875 65.480255Q37.56875 65.667755 37.803123 65.949005Q38.0375 66.230255 38.13125 66.667755Q38.178123 66.93338 38.178123 67.636505L38.178123 69.042755Q38.178123 70.511505 38.240623 70.90213Q38.31875 71.292755 38.521873 71.65213L37.4125 71.65213Q37.25625 71.324005 37.209373 70.886505ZM37.115623 68.52713Q36.5375 68.761505 35.396873 68.93338Q34.740623 69.02713 34.475 69.15213Q34.209373 69.261505 34.053123 69.480255Q33.9125 69.699005 33.9125 69.980255Q33.9125 70.40213 34.225 70.68338Q34.553123 70.96463 35.1625 70.96463Q35.771873 70.96463 36.240623 70.699005Q36.725 70.43338 36.94375 69.96463Q37.115623 69.605255 37.115623 68.917755L37.115623 68.52713ZM39.725 69.074005L39.725 68.011505L42.975 68.011505L42.975 69.074005L39.725 69.074005ZM48.303123 68.27713L48.303123 67.27713L51.928123 67.261505L51.928123 70.449005Q51.1 71.12088 50.209373 71.46463Q49.31875 71.792755 48.38125 71.792755Q47.115623 71.792755 46.06875 71.261505Q45.0375 70.71463 44.50625 69.699005Q43.990623 68.667755 43.990623 67.40213Q43.990623 66.136505 44.50625 65.05838Q45.0375 63.96463 46.021873 63.449005Q47.00625 62.917755 48.2875 62.917755Q49.225 62.917755 49.975 63.21463Q50.725 63.511505 51.146873 64.05838Q51.584373 64.58963 51.803123 65.46463L50.7875 65.74588Q50.584373 65.08963 50.2875 64.71463Q50.00625 64.33963 49.475 64.12088Q48.94375 63.886505 48.303123 63.886505Q47.521873 63.886505 46.94375 64.12088Q46.38125 64.355255 46.021873 64.74588Q45.678123 65.136505 45.490623 65.605255Q45.1625 66.40213 45.1625 67.324005Q45.1625 68.480255 45.553123 69.261505Q45.959373 70.02713 46.709373 70.40213Q47.459373 70.77713 48.31875 70.77713Q49.053123 70.77713 49.75625 70.49588Q50.459373 70.199005 50.81875 69.886505L50.81875 68.27713L48.303123 68.27713ZM53.271873 71.65213L53.271873 63.05838L56.521873 63.05838Q57.365623 63.05838 57.81875 63.136505Q58.459373 63.24588 58.88125 63.542755Q59.31875 63.83963 59.56875 64.37088Q59.834373 64.90213 59.834373 65.542755Q59.834373 66.636505 59.13125 67.40213Q58.44375 68.15213 56.615623 68.15213L54.4125 68.15213L54.4125 71.65213L53.271873 71.65213ZM54.4125 67.15213L56.63125 67.15213Q57.740623 67.15213 58.19375 66.74588Q58.6625 66.324005 58.6625 65.574005Q58.6625 65.042755 58.38125 64.667755Q58.115623 64.27713 57.678123 64.15213Q57.38125 64.074005 56.615623 64.074005L54.4125 64.074005L54.4125 67.15213ZM66.9125 63.05838L68.05312 63.05838L68.05312 68.02713Q68.05312 69.324005 67.75625 70.08963Q67.45937 70.83963 66.69375 71.324005Q65.92812 71.792755 64.69375 71.792755Q63.490623 71.792755 62.709373 71.386505Q61.94375 70.96463 61.615623 70.18338Q61.2875 69.386505 61.2875 68.02713L61.2875 63.05838L62.428123 63.05838L62.428123 68.011505Q62.428123 69.136505 62.63125 69.667755Q62.85 70.199005 63.35 70.49588Q63.865623 70.77713 64.6 70.77713Q65.85 70.77713 66.38125 70.21463Q66.9125 69.636505 66.9125 68.011505L66.9125 63.05838ZM72.725 69.792755L73.75625 69.636505Q73.85 70.261505 74.24062 70.58963Q74.64687 70.917755 75.38125 70.917755Q76.1 70.917755 76.44375 70.636505Q76.80312 70.33963 76.80312 69.93338Q76.80312 69.574005 76.49062 69.37088Q76.27187 69.230255 75.4125 69.011505Q74.25625 68.71463 73.80312 68.511505Q73.36562 68.292755 73.13125 67.917755Q72.89687 67.542755 72.89687 67.074005Q72.89687 66.667755 73.08437 66.30838Q73.27187 65.949005 73.6 65.71463Q73.85 65.542755 74.27187 65.417755Q74.69375 65.292755 75.19375 65.292755Q75.9125 65.292755 76.45937 65.511505Q77.02187 65.71463 77.2875 66.074005Q77.55312 66.43338 77.64687 67.02713L76.61562 67.167755Q76.55312 66.699005 76.20937 66.43338Q75.88125 66.15213 75.25625 66.15213Q74.5375 66.15213 74.225 66.40213Q73.9125 66.636505 73.9125 66.96463Q73.9125 67.167755 74.0375 67.324005Q74.17812 67.49588 74.44375 67.605255Q74.6 67.667755 75.38125 67.87088Q76.50625 68.18338 76.94375 68.37088Q77.38125 68.55838 77.63125 68.917755Q77.88125 69.27713 77.88125 69.824005Q77.88125 70.355255 77.56875 70.824005Q77.27187 71.27713 76.69375 71.542755Q76.11562 71.792755 75.38125 71.792755Q74.1625 71.792755 73.52187 71.292755Q72.89687 70.77713 72.725 69.792755ZM84.39687 69.65213L85.49062 69.77713Q85.24062 70.730255 84.5375 71.261505Q83.83437 71.792755 82.75625 71.792755Q81.39687 71.792755 80.58437 70.949005Q79.7875 70.105255 79.7875 68.58963Q79.7875 67.02713 80.6 66.167755Q81.4125 65.292755 82.69375 65.292755Q83.94375 65.292755 84.725 66.136505Q85.52187 66.980255 85.52187 68.52713Q85.52187 68.62088 85.52187 68.80838L80.88125 68.80838Q80.94375 69.83963 81.45937 70.386505Q81.975 70.917755 82.75625 70.917755Q83.33437 70.917755 83.74062 70.62088Q84.1625 70.30838 84.39687 69.65213ZM80.94375 67.949005L84.4125 67.949005Q84.35 67.15213 84.02187 66.761505Q83.50625 66.15213 82.70937 66.15213Q81.975 66.15213 81.475 66.636505Q80.99062 67.12088 80.94375 67.949005ZM87.13125 71.65213L87.13125 65.43338L88.08437 65.43338L88.08437 66.37088Q88.44375 65.71463 88.74062 65.511505Q89.05312 65.292755 89.42812 65.292755Q89.95937 65.292755 90.50625 65.62088L90.14687 66.605255Q89.75625 66.37088 89.38125 66.37088Q89.02187 66.37088 88.74062 66.58963Q88.475 66.792755 88.36562 67.167755Q88.17812 67.730255 88.17812 68.386505L88.17812 71.65213L87.13125 71.65213ZM92.86562 71.65213L90.50625 65.43338L91.61562 65.43338L92.95937 69.15213Q93.1625 69.761505 93.35 70.40213Q93.49062 69.917755 93.74062 69.230255L95.13125 65.43338L96.20937 65.43338L93.85 71.65213L92.86562 71.65213ZM100.39687 69.65213L101.49062 69.77713Q101.24062 70.730255 100.5375 71.261505Q99.83437 71.792755 98.75625 71.792755Q97.39687 71.792755 96.58437 70.949005Q95.7875 70.105255 95.7875 68.58963Q95.7875 67.02713 96.6 66.167755Q97.4125 65.292755 98.69375 65.292755Q99.94375 65.292755 100.725 66.136505Q101.52187 66.980255 101.52187 68.52713Q101.52187 68.62088 101.52187 68.80838L96.88125 68.80838Q96.94375 69.83963 97.45937 70.386505Q97.975 70.917755 98.75625 70.917755Q99.33437 70.917755 99.74062 70.62088Q100.1625 70.30838 100.39687 69.65213ZM96.94375 67.949005L100.4125 67.949005Q100.35 67.15213 100.02187 66.761505Q99.50625 66.15213 98.70937 66.15213Q97.975 66.15213 97.475 66.636505Q96.99062 67.12088 96.94375 67.949005ZM103.13125 71.65213L103.13125 65.43338L104.08437 65.43338L104.08437 66.37088Q104.44375 65.71463 104.74062 65.511505Q105.05312 65.292755 105.42812 65.292755Q105.95937 65.292755 106.50625 65.62088L106.14687 66.605255Q105.75625 66.37088 105.38125 66.37088Q105.02187 66.37088 104.74062 66.58963Q104.475 66.792755 104.36562 67.167755Q104.17812 67.730255 104.17812 68.386505L104.17812 71.65213L103.13125 71.65213Z" fill-rule="nonzero"/><path fill="#000000" d="M109.35 94.41563Q109.35 92.88438 109.6625 91.9625Q109.975 91.025 110.58437 90.525Q111.20937 90.025 112.14687 90.025Q112.83437 90.025 113.35 90.30625Q113.88125 90.5875 114.225 91.11875Q114.56875 91.63438 114.75625 92.38438Q114.94375 93.13438 114.94375 94.41563Q114.94375 95.93125 114.63125 96.85313Q114.33437 97.775 113.70937 98.29063Q113.1 98.79063 112.14687 98.79063Q110.9125 98.79063 110.19375 97.9Q109.35 96.8375 109.35 94.41563ZM110.42812 94.41563Q110.42812 96.525 110.92812 97.22813Q111.42812 97.93125 112.14687 97.93125Q112.88125 97.93125 113.36562 97.22813Q113.86562 96.525 113.86562 94.41563Q113.86562 92.29063 113.36562 91.60313Q112.88125 90.9 112.13125 90.9Q111.4125 90.9 110.975 91.50938Q110.42812 92.29063 110.42812 94.41563Z" fill-rule="nonzero"/><path fill="#000000" d="M196.76128 97.63438L196.76128 98.65L191.07378 98.65Q191.07378 98.275 191.19878 97.91563Q191.41753 97.3375 191.88628 96.775Q192.37065 96.2125 193.2769 95.47813Q194.68315 94.32188 195.16753 93.65Q195.66753 92.97813 195.66753 92.38438Q195.66753 91.75938 195.2144 91.3375Q194.76128 90.9 194.04253 90.9Q193.2769 90.9 192.82378 91.35313Q192.37065 91.80625 192.35503 92.61875L191.2769 92.50938Q191.38628 91.29063 192.10503 90.66563Q192.8394 90.025 194.07378 90.025Q195.30815 90.025 196.0269 90.7125Q196.74565 91.4 196.74565 92.41563Q196.74565 92.93125 196.5269 93.43125Q196.32378 93.91563 195.82378 94.47813Q195.3394 95.025 194.2144 95.97813Q193.26128 96.775 192.98003 97.07188Q192.7144 97.35313 192.54253 97.63438L196.76128 97.63438ZM198.2144 94.41563Q198.2144 92.88438 198.5269 91.9625Q198.8394 91.025 199.44878 90.525Q200.07378 90.025 201.01128 90.025Q201.69878 90.025 202.2144 90.30625Q202.74565 90.5875 203.0894 91.11875Q203.43315 91.63438 203.62065 92.38438Q203.80815 93.13438 203.80815 94.41563Q203.80815 95.93125 203.49565 96.85313Q203.19878 97.775 202.57378 98.29063Q201.9644 98.79063 201.01128 98.79063Q199.7769 98.79063 199.05815 97.9Q198.2144 96.8375 198.2144 94.41563ZM199.29253 94.41563Q199.29253 96.525 199.79253 97.22813Q200.29253 97.93125 201.01128 97.93125Q201.74565 97.93125 202.23003 97.22813Q202.73003 96.525 202.73003 94.41563Q202.73003 92.29063 202.23003 91.60313Q201.74565 90.9 200.99565 90.9Q200.2769 90.9 199.8394 91.50938Q199.29253 92.29063 199.29253 94.41563ZM205.2144 94.41563Q205.2144 92.88438 205.5269 91.9625Q205.8394 91.025 206.44878 90.525Q207.07378 90.025 208.01128 90.025Q208.69878 90.025 209.2144 90.30625Q209.74565 90.5875 210.0894 91.11875Q210.43315 91.63438 210.62065 92.38438Q210.80815 93.13438 210.80815 94.41563Q210.80815 95.93125 210.49565 96.85313Q210.19878 97.775 209.57378 98.29063Q208.9644 98.79063 208.01128 98.79063Q206.7769 98.79063 206.05815 97.9Q205.2144 96.8375 205.2144 94.41563ZM206.29253 94.41563Q206.29253 96.525 206.79253 97.22813Q207.29253 97.93125 208.01128 97.93125Q208.74565 97.93125 209.23003 97.22813Q209.73003 96.525 209.73003 94.41563Q209.73003 92.29063 209.23003 91.60313Q208.74565 90.9 207.99565 90.9Q207.2769 90.9 206.8394 91.50938Q206.29253 92.29063 206.29253 94.41563Z" fill-rule="nonzero"/><path fill="#000000" d="M283.45383 98.65L283.45383 96.5875L279.73508 96.5875L279.73508 95.61875L283.65695 90.05625L284.51633 90.05625L284.51633 95.61875L285.67258 95.61875L285.67258 96.5875L284.51633 96.5875L284.51633 98.65L283.45383 98.65ZM283.45383 95.61875L283.45383 91.75938L280.76633 95.61875L283.45383 95.61875ZM287.07883 94.41563Q287.07883 92.88438 287.39133 91.9625Q287.70383 91.025 288.3132 90.525Q288.9382 90.025 289.8757 90.025Q290.5632 90.025 291.07883 90.30625Q291.61008 90.5875 291.95383 91.11875Q292.29758 91.63438 292.48508 92.38438Q292.67258 93.13438 292.67258 94.41563Q292.67258 95.93125 292.36008 96.85313Q292.0632 97.775 291.4382 98.29063Q290.82883 98.79063 289.8757 98.79063Q288.64133 98.79063 287.92258 97.9Q287.07883 96.8375 287.07883 94.41563ZM288.15695 94.41563Q288.15695 96.525 288.65695 97.22813Q289.15695 97.93125 289.8757 97.93125Q290.61008 97.93125 291.09445 97.22813Q291.59445 96.525 291.59445 94.41563Q291.59445 92.29063 291.09445 91.60313Q290.61008 90.9 289.86008 90.9Q289.14133 90.9 288.70383 91.50938Q288.15695 92.29063 288.15695 94.41563ZM294.07883 94.41563Q294.07883 92.88438 294.39133 91.9625Q294.70383 91.025 295.3132 90.525Q295.9382 90.025 296.8757 90.025Q297.5632 90.025 298.07883 90.30625Q298.61008 90.5875 298.95383 91.11875Q299.29758 91.63438 299.48508 92.38438Q299.67258 93.13438 299.67258 94.41563Q299.67258 95.93125 299.36008 96.85313Q299.0632 97.775 298.4382 98.29063Q297.82883 98.79063 296.8757 98.79063Q295.64133 98.79063 294.92258 97.9Q294.07883 96.8375 294.07883 94.41563ZM295.15695 94.41563Q295.15695 96.525 295.65695 97.22813Q296.15695 97.93125 296.8757 97.93125Q297.61008 97.93125 298.09445 97.22813Q298.59445 96.525 298.59445 94.41563Q298.59445 92.29063 298.09445 91.60313Q297.61008 90.9 296.86008 90.9Q296.14133 90.9 295.70383 91.50938Q295.15695 92.29063 295.15695 94.41563Z" fill-rule="nonzero"/><path fill="#000000" d="M374.41196 92.16563L373.36508 92.24375Q373.22446 91.61875 372.97446 91.3375Q372.53696 90.88438 371.91196 90.88438Q371.41196 90.88438 371.02133 91.16563Q370.53696 91.54063 370.24008 92.24375Q369.95883 92.93125 369.9432 94.2125Q370.3182 93.63438 370.86508 93.35313Q371.42758 93.07188 372.03696 93.07188Q373.08383 93.07188 373.8182 93.85313Q374.5682 94.63438 374.5682 95.85313Q374.5682 96.66563 374.20883 97.36875Q373.86508 98.05625 373.2557 98.43125Q372.64633 98.79063 371.8807 98.79063Q370.55258 98.79063 369.72446 97.82188Q368.89633 96.85313 368.89633 94.63438Q368.89633 92.13438 369.8182 91.00938Q370.61508 90.025 371.97446 90.025Q372.99008 90.025 373.6307 90.60313Q374.28696 91.16563 374.41196 92.16563ZM370.11508 95.86875Q370.11508 96.41563 370.33383 96.91563Q370.5682 97.4 370.97446 97.66563Q371.39633 97.93125 371.86508 97.93125Q372.52133 97.93125 373.0057 97.4Q373.49008 96.85313 373.49008 95.93125Q373.49008 95.04063 373.0057 94.525Q372.53696 94.00938 371.8182 94.00938Q371.09946 94.00938 370.59946 94.525Q370.11508 95.04063 370.11508 95.86875ZM375.9432 94.41563Q375.9432 92.88438 376.2557 91.9625Q376.5682 91.025 377.17758 90.525Q377.80258 90.025 378.74008 90.025Q379.42758 90.025 379.9432 90.30625Q380.47446 90.5875 380.8182 91.11875Q381.16196 91.63438 381.34946 92.38438Q381.53696 93.13438 381.53696 94.41563Q381.53696 95.93125 381.22446 96.85313Q380.92758 97.775 380.30258 98.29063Q379.6932 98.79063 378.74008 98.79063Q377.5057 98.79063 376.78696 97.9Q375.9432 96.8375 375.9432 94.41563ZM377.02133 94.41563Q377.02133 96.525 377.52133 97.22813Q378.02133 97.93125 378.74008 97.93125Q379.47446 97.93125 379.95883 97.22813Q380.45883 96.525 380.45883 94.41563Q380.45883 92.29063 379.95883 91.60313Q379.47446 90.9 378.72446 90.9Q378.0057 90.9 377.5682 91.50938Q377.02133 92.29063 377.02133 94.41563ZM382.9432 94.41563Q382.9432 92.88438 383.2557 91.9625Q383.5682 91.025 384.17758 90.525Q384.80258 90.025 385.74008 90.025Q386.42758 90.025 386.9432 90.30625Q387.47446 90.5875 387.8182 91.11875Q388.16196 91.63438 388.34946 92.38438Q388.53696 93.13438 388.53696 94.41563Q388.53696 95.93125 388.22446 96.85313Q387.92758 97.775 387.30258 98.29063Q386.6932 98.79063 385.74008 98.79063Q384.5057 98.79063 383.78696 97.9Q382.9432 96.8375 382.9432 94.41563ZM384.02133 94.41563Q384.02133 96.525 384.52133 97.22813Q385.02133 97.93125 385.74008 97.93125Q386.47446 97.93125 386.95883 97.22813Q387.45883 96.525 387.45883 94.41563Q387.45883 92.29063 386.95883 91.60313Q386.47446 90.9 385.72446 90.9Q385.0057 90.9 384.5682 91.50938Q384.02133 92.29063 384.02133 94.41563Z" fill-rule="nonzero"/><path fill="#000000" d="M459.43262 93.99375Q458.77637 93.74375 458.44824 93.30625Q458.13574 92.85313 458.13574 92.24375Q458.13574 91.30625 458.80762 90.66563Q459.49512 90.025 460.6045 90.025Q461.7295 90.025 462.417 90.68125Q463.1045 91.3375 463.1045 92.275Q463.1045 92.86875 462.792 93.30625Q462.4795 93.74375 461.83887 93.99375Q462.63574 94.24375 463.042 94.82188Q463.44824 95.4 463.44824 96.19688Q463.44824 97.29063 462.667 98.04063Q461.90137 98.79063 460.62012 98.79063Q459.3545 98.79063 458.57324 98.04063Q457.792 97.29063 457.792 96.16563Q457.792 95.32188 458.21387 94.75938Q458.65137 94.19688 459.43262 93.99375ZM459.21387 92.19688Q459.21387 92.80625 459.6045 93.19688Q460.01074 93.5875 460.63574 93.5875Q461.24512 93.5875 461.63574 93.2125Q462.02637 92.82188 462.02637 92.25938Q462.02637 91.68125 461.62012 91.29063Q461.21387 90.88438 460.62012 90.88438Q460.01074 90.88438 459.6045 91.275Q459.21387 91.66563 459.21387 92.19688ZM458.88574 96.16563Q458.88574 96.61875 459.08887 97.04063Q459.30762 97.4625 459.7295 97.69688Q460.15137 97.93125 460.63574 97.93125Q461.38574 97.93125 461.87012 97.44688Q462.37012 96.9625 462.37012 96.2125Q462.37012 95.44688 461.87012 94.94688Q461.37012 94.44688 460.6045 94.44688Q459.8545 94.44688 459.37012 94.94688Q458.88574 95.43125 458.88574 96.16563ZM464.80762 94.41563Q464.80762 92.88438 465.12012 91.9625Q465.43262 91.025 466.042 90.525Q466.667 90.025 467.6045 90.025Q468.292 90.025 468.80762 90.30625Q469.33887 90.5875 469.68262 91.11875Q470.02637 91.63438 470.21387 92.38438Q470.40137 93.13438 470.40137 94.41563Q470.40137 95.93125 470.08887 96.85313Q469.792 97.775 469.167 98.29063Q468.55762 98.79063 467.6045 98.79063Q466.37012 98.79063 465.65137 97.9Q464.80762 96.8375 464.80762 94.41563ZM465.88574 94.41563Q465.88574 96.525 466.38574 97.22813Q466.88574 97.93125 467.6045 97.93125Q468.33887 97.93125 468.82324 97.22813Q469.32324 96.525 469.32324 94.41563Q469.32324 92.29063 468.82324 91.60313Q468.33887 90.9 467.58887 90.9Q466.87012 90.9 466.43262 91.50938Q465.88574 92.29063 465.88574 94.41563ZM471.80762 94.41563Q471.80762 92.88438 472.12012 91.9625Q472.43262 91.025 473.042 90.525Q473.667 90.025 474.6045 90.025Q475.292 90.025 475.80762 90.30625Q476.33887 90.5875 476.68262 91.11875Q477.02637 91.63438 477.21387 92.38438Q477.40137 93.13438 477.40137 94.41563Q477.40137 95.93125 477.08887 96.85313Q476.792 97.775 476.167 98.29063Q475.55762 98.79063 474.6045 98.79063Q473.37012 98.79063 472.65137 97.9Q471.80762 96.8375 471.80762 94.41563ZM472.88574 94.41563Q472.88574 96.525 473.38574 97.22813Q473.88574 97.93125 474.6045 97.93125Q475.33887 97.93125 475.82324 97.22813Q476.32324 96.525 476.32324 94.41563Q476.32324 92.29063 475.82324 91.60313Q475.33887 90.9 474.58887 90.9Q473.87012 90.9 473.43262 91.50938Q472.88574 92.29063 472.88574 94.41563Z" fill-rule="nonzero"/><path fill="#000000" d="M547.1408 98.65L546.09393 98.65L546.09393 91.93125Q545.7033 92.29063 545.0783 92.66563Q544.46893 93.025 543.98456 93.19688L543.98456 92.18125Q544.85956 91.75938 545.5158 91.18125Q546.1877 90.5875 546.46893 90.025L547.1408 90.025L547.1408 98.65ZM550.17206 94.41563Q550.17206 92.88438 550.48456 91.9625Q550.79706 91.025 551.40643 90.525Q552.03143 90.025 552.96893 90.025Q553.65643 90.025 554.17206 90.30625Q554.7033 90.5875 555.04706 91.11875Q555.3908 91.63438 555.5783 92.38438Q555.7658 93.13438 555.7658 94.41563Q555.7658 95.93125 555.4533 96.85313Q555.15643 97.775 554.53143 98.29063Q553.92206 98.79063 552.96893 98.79063Q551.73456 98.79063 551.0158 97.9Q550.17206 96.8375 550.17206 94.41563ZM551.2502 94.41563Q551.2502 96.525 551.7502 97.22813Q552.2502 97.93125 552.96893 97.93125Q553.7033 97.93125 554.1877 97.22813Q554.6877 96.525 554.6877 94.41563Q554.6877 92.29063 554.1877 91.60313Q553.7033 90.9 552.9533 90.9Q552.23456 90.9 551.79706 91.50938Q551.2502 92.29063 551.2502 94.41563ZM557.17206 94.41563Q557.17206 92.88438 557.48456 91.9625Q557.79706 91.025 558.40643 90.525Q559.03143 90.025 559.96893 90.025Q560.65643 90.025 561.17206 90.30625Q561.7033 90.5875 562.04706 91.11875Q562.3908 91.63438 562.5783 92.38438Q562.7658 93.13438 562.7658 94.41563Q562.7658 95.93125 562.4533 96.85313Q562.15643 97.775 561.53143 98.29063Q560.92206 98.79063 559.96893 98.79063Q558.73456 98.79063 558.0158 97.9Q557.17206 96.8375 557.17206 94.41563ZM558.2502 94.41563Q558.2502 96.525 558.7502 97.22813Q559.2502 97.93125 559.96893 97.93125Q560.7033 97.93125 561.1877 97.22813Q561.6877 96.525 561.6877 94.41563Q561.6877 92.29063 561.1877 91.60313Q560.7033 90.9 559.9533 90.9Q559.23456 90.9 558.79706 91.50938Q558.2502 92.29063 558.2502 94.41563ZM564.17206 94.41563Q564.17206 92.88438 564.48456 91.9625Q564.79706 91.025 565.40643 90.525Q566.03143 90.025 566.96893 90.025Q567.65643 90.025 568.17206 90.30625Q568.7033 90.5875 569.04706 91.11875Q569.3908 91.63438 569.5783 92.38438Q569.7658 93.13438 569.7658 94.41563Q569.7658 95.93125 569.4533 96.85313Q569.15643 97.775 568.53143 98.29063Q567.92206 98.79063 566.96893 98.79063Q565.73456 98.79063 565.0158 97.9Q564.17206 96.8375 564.17206 94.41563ZM565.2502 94.41563Q565.2502 96.525 565.7502 97.22813Q566.2502 97.93125 566.96893 97.93125Q567.7033 97.93125 568.1877 97.22813Q568.6877 96.525 568.6877 94.41563Q568.6877 92.29063 568.1877 91.60313Q567.7033 90.9 566.9533 90.9Q566.23456 90.9 565.79706 91.50938Q565.2502 92.29063 565.2502 94.41563Z" fill-rule="nonzero"/><path fill="#757575" d="M6.896875 24.35L6.896875 10.0375L12.2875 10.0375Q13.725 10.0375 14.475 10.1625Q15.521875 10.35 16.240625 10.85Q16.959375 11.334375 17.38125 12.225Q17.81875 13.115625 17.81875 14.178125Q17.81875 16.00625 16.646875 17.271875Q15.490625 18.521875 12.459375 18.521875L8.7875 18.521875L8.7875 24.35L6.896875 24.35ZM8.7875 16.834375L12.490625 16.834375Q14.31875 16.834375 15.084375 16.1625Q15.865625 15.475 15.865625 14.225Q15.865625 13.334375 15.4125 12.69375Q14.959375 12.053125 14.225 11.85Q13.740625 11.725 12.44375 11.725L8.7875 11.725L8.7875 16.834375ZM19.646875 24.35L19.646875 13.975L21.225 13.975L21.225 15.553125Q21.834375 14.44375 22.35 14.1Q22.865625 13.740625 23.475 13.740625Q24.365625 13.740625 25.2875 14.303125L24.678125 15.94375Q24.0375 15.553125 23.396875 15.553125Q22.81875 15.553125 22.35 15.9125Q21.896875 16.25625 21.69375 16.865625Q21.4125 17.803125 21.4125 18.9125L21.4125 24.35L19.646875 24.35ZM26.021875 19.1625Q26.021875 16.2875 27.615625 14.896875Q28.959375 13.740625 30.88125 13.740625Q33.021873 13.740625 34.365623 15.146875Q35.725 16.553125 35.725 19.021875Q35.725 21.021875 35.13125 22.178125Q34.5375 23.31875 33.38125 23.959375Q32.240623 24.584375 30.88125 24.584375Q28.69375 24.584375 27.35 23.19375Q26.021875 21.7875 26.021875 19.1625ZM27.81875 19.1625Q27.81875 21.1625 28.678125 22.146875Q29.553125 23.13125 30.88125 23.13125Q32.19375 23.13125 33.053123 22.146875Q33.928123 21.146875 33.928123 19.1Q33.928123 17.178125 33.053123 16.19375Q32.178123 15.19375 30.88125 15.19375Q29.553125 15.19375 28.678125 16.19375Q27.81875 17.178125 27.81875 19.1625ZM37.6625 24.35L37.6625 13.975L39.240623 13.975L39.240623 15.428125Q39.725 14.678125 40.5375 14.209375Q41.35 13.740625 42.38125 13.740625Q43.5375 13.740625 44.271873 14.225Q45.00625 14.69375 45.31875 15.553125Q46.553123 13.740625 48.521873 13.740625Q50.06875 13.740625 50.896873 14.6Q51.725 15.459375 51.725 17.225L51.725 24.35L49.975 24.35L49.975 17.81875Q49.975 16.75625 49.803123 16.303125Q49.63125 15.834375 49.178123 15.553125Q48.740623 15.271875 48.13125 15.271875Q47.0375 15.271875 46.303123 16.00625Q45.584373 16.725 45.584373 18.31875L45.584373 24.35L43.834373 24.35L43.834373 17.615625Q43.834373 16.44375 43.396873 15.865625Q42.975 15.271875 41.990623 15.271875Q41.25625 15.271875 40.615623 15.6625Q39.990623 16.053125 39.709373 16.803125Q39.428123 17.553125 39.428123 18.975L39.428123 24.35L37.6625 24.35ZM53.6625 28.31875L53.6625 13.975L55.271873 13.975L55.271873 15.31875Q55.834373 14.5375 56.5375 14.146875Q57.25625 13.740625 58.271873 13.740625Q59.6 13.740625 60.615623 14.428125Q61.63125 15.115625 62.146873 16.365625Q62.678123 17.6 62.678123 19.084375Q62.678123 20.678125 62.1 21.959375Q61.5375 23.225 60.44375 23.9125Q59.35 24.584375 58.146873 24.584375Q57.271873 24.584375 56.56875 24.209375Q55.88125 23.834375 55.428123 23.271875L55.428123 28.31875L53.6625 28.31875ZM55.25625 19.225Q55.25625 21.225 56.06875 22.178125Q56.88125 23.13125 58.0375 23.13125Q59.209373 23.13125 60.0375 22.146875Q60.88125 21.1625 60.88125 19.06875Q60.88125 17.1 60.053123 16.115625Q59.240623 15.115625 58.115623 15.115625Q56.990623 15.115625 56.115623 16.178125Q55.25625 17.225 55.25625 19.225ZM68.50625 22.771875L68.75625 24.334375Q68.02187 24.490625 67.42812 24.490625Q66.475 24.490625 65.94375 24.19375Q65.42812 23.88125 65.20937 23.396875Q64.99062 22.896875 64.99062 21.31875L64.99062 15.35L63.709373 15.35L63.709373 13.975L64.99062 13.975L64.99062 11.4125L66.74062 10.35L66.74062 13.975L68.50625 13.975L68.50625 15.35L66.74062 15.35L66.74062 21.4125Q66.74062 22.1625 66.83437 22.38125Q66.92812 22.584375 67.13125 22.725Q67.35 22.85 67.74062 22.85Q68.02187 22.85 68.50625 22.771875ZM76.89687 24.35L76.89687 10.0375L82.2875 10.0375Q83.725 10.0375 84.475 10.1625Q85.52187 10.35 86.24062 10.85Q86.95937 11.334375 87.38125 12.225Q87.81875 13.115625 87.81875 14.178125Q87.81875 16.00625 86.64687 17.271875Q85.49062 18.521875 82.45937 18.521875L78.7875 18.521875L78.7875 24.35L76.89687 24.35ZM78.7875 16.834375L82.49062 16.834375Q84.31875 16.834375 85.08437 16.1625Q85.86562 15.475 85.86562 14.225Q85.86562 13.334375 85.4125 12.69375Q84.95937 12.053125 84.225 11.85Q83.74062 11.725 82.44375 11.725L78.7875 11.725L78.7875 16.834375ZM89.64687 24.35L89.64687 13.975L91.225 13.975L91.225 15.553125Q91.83437 14.44375 92.35 14.1Q92.86562 13.740625 93.475 13.740625Q94.36562 13.740625 95.2875 14.303125L94.67812 15.94375Q94.0375 15.553125 93.39687 15.553125Q92.81875 15.553125 92.35 15.9125Q91.89687 16.25625 91.69375 16.865625Q91.4125 17.803125 91.4125 18.9125L91.4125 24.35L89.64687 24.35ZM96.02187 19.1625Q96.02187 16.2875 97.61562 14.896875Q98.95937 13.740625 100.88125 13.740625Q103.02187 13.740625 104.36562 15.146875Q105.725 16.553125 105.725 19.021875Q105.725 21.021875 105.13125 22.178125Q104.5375 23.31875 103.38125 23.959375Q102.24062 24.584375 100.88125 24.584375Q98.69375 24.584375 97.35 23.19375Q96.02187 21.7875 96.02187 19.1625ZM97.81875 19.1625Q97.81875 21.1625 98.67812 22.146875Q99.55312 23.13125 100.88125 23.13125Q102.19375 23.13125 103.05312 22.146875Q103.92812 21.146875 103.92812 19.1Q103.92812 17.178125 103.05312 16.19375Q102.17812 15.19375 100.88125 15.19375Q99.55312 15.19375 98.67812 16.19375Q97.81875 17.178125 97.81875 19.1625ZM114.44375 20.553125L116.1625 20.771875Q115.88125 22.56875 114.70937 23.584375Q113.55312 24.584375 111.85 24.584375Q109.725 24.584375 108.42812 23.19375Q107.13125 21.803125 107.13125 19.209375Q107.13125 17.521875 107.67812 16.271875Q108.24062 15.00625 109.38125 14.38125Q110.52187 13.740625 111.86562 13.740625Q113.55312 13.740625 114.61562 14.6Q115.69375 15.459375 116.00625 17.021875L114.2875 17.2875Q114.05312 16.240625 113.42812 15.725Q112.80312 15.19375 111.92812 15.19375Q110.6 15.19375 109.77187 16.146875Q108.94375 17.1 108.94375 19.146875Q108.94375 21.240625 109.74062 22.19375Q110.5375 23.13125 111.83437 23.13125Q112.86562 23.13125 113.55312 22.50625Q114.25625 21.865625 114.44375 20.553125ZM124.77187 21.00625L126.58437 21.240625Q126.1625 22.81875 124.99062 23.709375Q123.83437 24.584375 122.02187 24.584375Q119.75625 24.584375 118.4125 23.19375Q117.08437 21.7875 117.08437 19.25625Q117.08437 16.63125 118.42812 15.19375Q119.77187 13.740625 121.92812 13.740625Q124.00625 13.740625 125.31875 15.1625Q126.64687 16.56875 126.64687 19.146875Q126.64687 19.303125 126.63125 19.615625L118.89687 19.615625Q118.99062 21.31875 119.86562 22.225Q120.74062 23.13125 122.0375 23.13125Q123.00625 23.13125 123.67812 22.63125Q124.36562 22.115625 124.77187 21.00625ZM118.99062 18.1625L124.7875 18.1625Q124.67812 16.865625 124.13125 16.209375Q123.2875 15.19375 121.94375 15.19375Q120.74062 15.19375 119.9125 16.00625Q119.08437 16.803125 118.99062 18.1625ZM127.95937 21.25625L129.70938 20.975Q129.85 22.021875 130.52188 22.584375Q131.19376 23.13125 132.39688 23.13125Q133.6 23.13125 134.17813 22.646875Q134.77188 22.146875 134.77188 21.490625Q134.77188 20.896875 134.25626 20.553125Q133.89688 20.31875 132.45938 19.959375Q130.52188 19.459375 129.77188 19.115625Q129.0375 18.75625 128.64688 18.13125Q128.25626 17.490625 128.25626 16.725Q128.25626 16.0375 128.56876 15.44375Q128.89688 14.85 129.44376 14.459375Q129.85 14.1625 130.55313 13.959375Q131.27188 13.740625 132.08438 13.740625Q133.30313 13.740625 134.225 14.1Q135.14688 14.44375 135.58438 15.053125Q136.02188 15.646875 136.19376 16.646875L134.475 16.88125Q134.35 16.084375 133.7875 15.646875Q133.225 15.19375 132.20938 15.19375Q130.99063 15.19375 130.475 15.6Q129.95938 15.990625 129.95938 16.521875Q129.95938 16.865625 130.17813 17.146875Q130.38126 17.428125 130.85 17.615625Q131.11563 17.709375 132.39688 18.053125Q134.27188 18.553125 135.00626 18.88125Q135.74063 19.19375 136.1625 19.803125Q136.58438 20.396875 136.58438 21.303125Q136.58438 22.178125 136.06876 22.959375Q135.55313 23.740625 134.58438 24.1625Q133.61563 24.584375 132.39688 24.584375Q130.38126 24.584375 129.31876 23.740625Q128.25626 22.896875 127.95937 21.25625ZM137.95938 21.25625L139.70938 20.975Q139.85 22.021875 140.52188 22.584375Q141.19376 23.13125 142.39688 23.13125Q143.6 23.13125 144.17813 22.646875Q144.77188 22.146875 144.77188 21.490625Q144.77188 20.896875 144.25626 20.553125Q143.89688 20.31875 142.45938 19.959375Q140.52188 19.459375 139.77188 19.115625Q139.0375 18.75625 138.64688 18.13125Q138.25626 17.490625 138.25626 16.725Q138.25626 16.0375 138.56876 15.44375Q138.89688 14.85 139.44376 14.459375Q139.85 14.1625 140.55313 13.959375Q141.27188 13.740625 142.08438 13.740625Q143.30313 13.740625 144.225 14.1Q145.14688 14.44375 145.58438 15.053125Q146.02188 15.646875 146.19376 16.646875L144.475 16.88125Q144.35 16.084375 143.7875 15.646875Q143.225 15.19375 142.20938 15.19375Q140.99063 15.19375 140.475 15.6Q139.95938 15.990625 139.95938 16.521875Q139.95938 16.865625 140.17813 17.146875Q140.38126 17.428125 140.85 17.615625Q141.11563 17.709375 142.39688 18.053125Q144.27188 18.553125 145.00626 18.88125Q145.74063 19.19375 146.1625 19.803125Q146.58438 20.396875 146.58438 21.303125Q146.58438 22.178125 146.06876 22.959375Q145.55313 23.740625 144.58438 24.1625Q143.61563 24.584375 142.39688 24.584375Q140.38126 24.584375 139.31876 23.740625Q138.25626 22.896875 137.95938 21.25625ZM148.67813 12.053125L148.67813 10.0375L150.44376 10.0375L150.44376 12.053125L148.67813 12.053125ZM148.67813 24.35L148.67813 13.975L150.44376 13.975L150.44376 24.35L148.67813 24.35ZM152.6625 24.35L152.6625 13.975L154.25626 13.975L154.25626 15.459375Q155.39688 13.740625 157.55313 13.740625Q158.49063 13.740625 159.27188 14.084375Q160.06876 14.4125 160.45938 14.959375Q160.85 15.50625 161.00626 16.25625Q161.1 16.75625 161.1 17.975L161.1 24.35L159.33438 24.35L159.33438 18.0375Q159.33438 16.959375 159.13126 16.428125Q158.92813 15.896875 158.39688 15.584375Q157.88126 15.271875 157.17813 15.271875Q156.05313 15.271875 155.24063 15.990625Q154.42813 16.69375 154.42813 18.678125L154.42813 24.35L152.6625 24.35ZM162.35 25.209375L164.05313 25.459375Q164.1625 26.25625 164.64688 26.615625Q165.30313 27.1 166.44376 27.1Q167.6625 27.1 168.31876 26.615625Q168.99063 26.13125 169.225 25.25625Q169.36563 24.709375 169.35 22.990625Q168.19376 24.35 166.475 24.35Q164.33438 24.35 163.1625 22.803125Q161.99063 21.25625 161.99063 19.1Q161.99063 17.615625 162.52188 16.365625Q163.06876 15.115625 164.08438 14.428125Q165.11563 13.740625 166.49063 13.740625Q168.31876 13.740625 169.52188 15.225L169.52188 13.975L171.13126 13.975L171.13126 22.94375Q171.13126 25.365625 170.63126 26.365625Q170.14688 27.38125 169.06876 27.959375Q168.00626 28.553125 166.44376 28.553125Q164.6 28.553125 163.44376 27.725Q162.30313 26.896875 162.35 25.209375ZM163.80313 18.975Q163.80313 21.021875 164.61563 21.959375Q165.42813 22.896875 166.64688 22.896875Q167.85 22.896875 168.6625 21.959375Q169.49063 21.021875 169.49063 19.0375Q169.49063 17.13125 168.64688 16.1625Q167.80313 15.19375 166.61563 15.19375Q165.44376 15.19375 164.61563 16.146875Q163.80313 17.1 163.80313 18.975ZM179.6625 28.31875L179.6625 13.975L181.27188 13.975L181.27188 15.31875Q181.83438 14.5375 182.5375 14.146875Q183.25626 13.740625 184.27188 13.740625Q185.6 13.740625 186.61563 14.428125Q187.63126 15.115625 188.14688 16.365625Q188.67813 17.6 188.67813 19.084375Q188.67813 20.678125 188.1 21.959375Q187.5375 23.225 186.44376 23.9125Q185.35 24.584375 184.14688 24.584375Q183.27188 24.584375 182.56876 24.209375Q181.88126 23.834375 181.42813 23.271875L181.42813 28.31875L179.6625 28.31875ZM181.25626 19.225Q181.25626 21.225 182.06876 22.178125Q182.88126 23.13125 184.0375 23.13125Q185.20938 23.13125 186.0375 22.146875Q186.88126 21.1625 186.88126 19.06875Q186.88126 17.1 186.05313 16.115625Q185.24063 15.115625 184.11563 15.115625Q182.99063 15.115625 182.11563 16.178125Q181.25626 17.225 181.25626 19.225ZM190.6625 28.31875L190.6625 13.975L192.27188 13.975L192.27188 15.31875Q192.83438 14.5375 193.5375 14.146875Q194.25626 13.740625 195.27188 13.740625Q196.6 13.740625 197.61563 14.428125Q198.63126 15.115625 199.14688 16.365625Q199.67813 17.6 199.67813 19.084375Q199.67813 20.678125 199.1 21.959375Q198.5375 23.225 197.44376 23.9125Q196.35 24.584375 195.14688 24.584375Q194.27188 24.584375 193.56876 24.209375Q192.88126 23.834375 192.42813 23.271875L192.42813 28.31875L190.6625 28.31875ZM192.25626 19.225Q192.25626 21.225 193.06876 22.178125Q193.88126 23.13125 195.0375 23.13125Q196.20938 23.13125 197.0375 22.146875Q197.88126 21.1625 197.88126 19.06875Q197.88126 17.1 197.05313 16.115625Q196.24063 15.115625 195.11563 15.115625Q193.99063 15.115625 193.11563 16.178125Q192.25626 17.225 192.25626 19.225ZM206.81876 24.35L206.81876 20.928125L200.6 20.928125L200.6 19.303125L207.13126 10.0375L208.56876 10.0375L208.56876 19.303125L210.50626 19.303125L210.50626 20.928125L208.56876 20.928125L208.56876 24.35L206.81876 24.35ZM206.81876 19.303125L206.81876 12.85L202.33438 19.303125L206.81876 19.303125ZM212.17813 17.2875Q212.17813 14.75625 212.69376 13.209375Q213.225 11.646875 214.25626 10.81875Q215.2875 9.975 216.85 9.975Q218.00626 9.975 218.86563 10.44375Q219.74063 10.896875 220.30313 11.771875Q220.86563 12.646875 221.19376 13.9125Q221.52188 15.1625 221.52188 17.2875Q221.52188 19.803125 220.99063 21.35Q220.475 22.896875 219.44376 23.75625Q218.42813 24.6 216.85 24.6Q214.77188 24.6 213.6 23.115625Q212.17813 21.31875 212.17813 17.2875ZM213.99063 17.2875Q213.99063 20.81875 214.80313 21.990625Q215.63126 23.146875 216.85 23.146875Q218.05313 23.146875 218.88126 21.975Q219.70938 20.803125 219.70938 17.2875Q219.70938 13.75625 218.88126 12.6Q218.05313 11.428125 216.83438 11.428125Q215.61563 11.428125 214.89688 12.459375Q213.99063 13.75625 213.99063 17.2875ZM223.44376 21.0375L225.13126 20.88125Q225.35 22.06875 225.94376 22.615625Q226.55313 23.146875 227.50626 23.146875Q228.31876 23.146875 228.92813 22.7875Q229.5375 22.4125 229.92813 21.7875Q230.31876 21.1625 230.58438 20.115625Q230.85 19.053125 230.85 17.959375Q230.85 17.85 230.83438 17.615625Q230.30313 18.44375 229.39688 18.975Q228.49063 19.490625 227.4125 19.490625Q225.64688 19.490625 224.4125 18.209375Q223.17813 16.9125 223.17813 14.803125Q223.17813 12.63125 224.45938 11.303125Q225.75626 9.975 227.67813 9.975Q229.08438 9.975 230.24063 10.725Q231.39688 11.475 231.99063 12.865625Q232.6 14.25625 232.6 16.896875Q232.6 19.646875 231.99063 21.271875Q231.39688 22.896875 230.225 23.75625Q229.05313 24.6 227.475 24.6Q225.7875 24.6 224.725 23.6625Q223.6625 22.725 223.44376 21.0375ZM230.64688 14.725Q230.64688 13.209375 229.83438 12.31875Q229.0375 11.428125 227.89688 11.428125Q226.725 11.428125 225.85 12.396875Q224.99063 13.35 224.99063 14.865625Q224.99063 16.240625 225.80313 17.1Q226.63126 17.94375 227.85 17.94375Q229.06876 17.94375 229.85 17.1Q230.64688 16.240625 230.64688 14.725ZM243.30313 13.5375L241.55313 13.678125Q241.31876 12.646875 240.89688 12.178125Q240.17813 11.4125 239.13126 11.4125Q238.2875 11.4125 237.6625 11.88125Q236.83438 12.490625 236.35 13.6625Q235.86563 14.81875 235.85 16.959375Q236.49063 16.00625 237.39688 15.5375Q238.31876 15.06875 239.33438 15.06875Q241.08438 15.06875 242.31876 16.365625Q243.55313 17.646875 243.55313 19.69375Q243.55313 21.053125 242.975 22.209375Q242.39688 23.365625 241.38126 23.990625Q240.36563 24.6 239.06876 24.6Q236.88126 24.6 235.49063 22.990625Q234.1 21.365625 234.1 17.646875Q234.1 13.50625 235.63126 11.615625Q236.975 9.975 239.24063 9.975Q240.92813 9.975 242.00626 10.928125Q243.08438 11.865625 243.30313 13.5375ZM236.13126 19.709375Q236.13126 20.615625 236.50626 21.44375Q236.89688 22.271875 237.58438 22.709375Q238.2875 23.146875 239.0375 23.146875Q240.1625 23.146875 240.95938 22.25625Q241.75626 21.35 241.75626 19.803125Q241.75626 18.31875 240.95938 17.475Q240.17813 16.615625 238.975 16.615625Q237.7875 16.615625 236.95938 17.475Q236.13126 18.31875 236.13126 19.709375ZM255.50626 22.771875L255.75626 24.334375Q255.02188 24.490625 254.42813 24.490625Q253.475 24.490625 252.94376 24.19375Q252.42813 23.88125 252.20938 23.396875Q251.99063 22.896875 251.99063 21.31875L251.99063 15.35L250.70938 15.35L250.70938 13.975L251.99063 13.975L251.99063 11.4125L253.74063 10.35L253.74063 13.975L255.50626 13.975L255.50626 15.35L253.74063 15.35L253.74063 21.4125Q253.74063 22.1625 253.83438 22.38125Q253.92813 22.584375 254.13126 22.725Q254.35 22.85 254.74063 22.85Q255.02188 22.85 255.50626 22.771875ZM257.02188 19.1625Q257.02188 16.2875 258.61563 14.896875Q259.95938 13.740625 261.88126 13.740625Q264.02188 13.740625 265.36563 15.146875Q266.725 16.553125 266.725 19.021875Q266.725 21.021875 266.13126 22.178125Q265.5375 23.31875 264.38126 23.959375Q263.24063 24.584375 261.88126 24.584375Q259.69376 24.584375 258.35 23.19375Q257.02188 21.7875 257.02188 19.1625ZM258.81876 19.1625Q258.81876 21.1625 259.67813 22.146875Q260.55313 23.13125 261.88126 23.13125Q263.19376 23.13125 264.05313 22.146875Q264.92813 21.146875 264.92813 19.1Q264.92813 17.178125 264.05313 16.19375Q263.17813 15.19375 261.88126 15.19375Q260.55313 15.19375 259.67813 16.19375Q258.81876 17.178125 258.81876 19.1625ZM268.67813 24.35L268.67813 10.0375L270.44376 10.0375L270.44376 18.19375L274.6 13.975L276.86563 13.975L272.9125 17.81875L277.27188 24.35L275.1 24.35L271.67813 19.053125L270.44376 20.240625L270.44376 24.35L268.67813 24.35ZM285.77188 21.00625L287.58438 21.240625Q287.1625 22.81875 285.99063 23.709375Q284.83438 24.584375 283.02188 24.584375Q280.75626 24.584375 279.4125 23.19375Q278.08438 21.7875 278.08438 19.25625Q278.08438 16.63125 279.42813 15.19375Q280.77188 13.740625 282.92813 13.740625Q285.00626 13.740625 286.31876 15.1625Q287.64688 16.56875 287.64688 19.146875Q287.64688 19.303125 287.63126 19.615625L279.89688 19.615625Q279.99063 21.31875 280.86563 22.225Q281.74063 23.13125 283.0375 23.13125Q284.00626 23.13125 284.67813 22.63125Q285.36563 22.115625 285.77188 21.00625ZM279.99063 18.1625L285.7875 18.1625Q285.67813 16.865625 285.13126 16.209375Q284.2875 15.19375 282.94376 15.19375Q281.74063 15.19375 280.9125 16.00625Q280.08438 16.803125 279.99063 18.1625ZM289.6625 24.35L289.6625 13.975L291.25626 13.975L291.25626 15.459375Q292.39688 13.740625 294.55313 13.740625Q295.49063 13.740625 296.27188 14.084375Q297.06876 14.4125 297.45938 14.959375Q297.85 15.50625 298.00626 16.25625Q298.1 16.75625 298.1 17.975L298.1 24.35L296.33438 24.35L296.33438 18.0375Q296.33438 16.959375 296.13126 16.428125Q295.92813 15.896875 295.39688 15.584375Q294.88126 15.271875 294.17813 15.271875Q293.05313 15.271875 292.24063 15.990625Q291.42813 16.69375 291.42813 18.678125L291.42813 24.35L289.6625 24.35ZM298.35 24.6L302.50626 9.7875L303.9125 9.7875L299.77188 24.6L298.35 24.6ZM304.95938 21.25625L306.70938 20.975Q306.85 22.021875 307.52188 22.584375Q308.19376 23.13125 309.39688 23.13125Q310.6 23.13125 311.17813 22.646875Q311.77188 22.146875 311.77188 21.490625Q311.77188 20.896875 311.25626 20.553125Q310.89688 20.31875 309.45938 19.959375Q307.52188 19.459375 306.77188 19.115625Q306.0375 18.75625 305.64688 18.13125Q305.25626 17.490625 305.25626 16.725Q305.25626 16.0375 305.56876 15.44375Q305.89688 14.85 306.44376 14.459375Q306.85 14.1625 307.55313 13.959375Q308.27188 13.740625 309.08438 13.740625Q310.30313 13.740625 311.225 14.1Q312.14688 14.44375 312.58438 15.053125Q313.02188 15.646875 313.19376 16.646875L311.475 16.88125Q311.35 16.084375 310.7875 15.646875Q310.225 15.19375 309.20938 15.19375Q307.99063 15.19375 307.475 15.6Q306.95938 15.990625 306.95938 16.521875Q306.95938 16.865625 307.17813 17.146875Q307.38126 17.428125 307.85 17.615625Q308.11563 17.709375 309.39688 18.053125Q311.27188 18.553125 312.00626 18.88125Q312.74063 19.19375 313.1625 19.803125Q313.58438 20.396875 313.58438 21.303125Q313.58438 22.178125 313.06876 22.959375Q312.55313 23.740625 311.58438 24.1625Q310.61563 24.584375 309.39688 24.584375Q307.38126 24.584375 306.31876 23.740625Q305.25626 22.896875 304.95938 21.25625ZM322.77188 21.00625L324.58438 21.240625Q324.1625 22.81875 322.99063 23.709375Q321.83438 24.584375 320.02188 24.584375Q317.75626 24.584375 316.4125 23.19375Q315.08438 21.7875 315.08438 19.25625Q315.08438 16.63125 316.42813 15.19375Q317.77188 13.740625 319.92813 13.740625Q322.00626 13.740625 323.31876 15.1625Q324.64688 16.56875 324.64688 19.146875Q324.64688 19.303125 324.63126 19.615625L316.89688 19.615625Q316.99063 21.31875 317.86563 22.225Q318.74063 23.13125 320.0375 23.13125Q321.00626 23.13125 321.67813 22.63125Q322.36563 22.115625 322.77188 21.00625ZM316.99063 18.1625L322.7875 18.1625Q322.67813 16.865625 322.13126 16.209375Q321.2875 15.19375 319.94376 15.19375Q318.74063 15.19375 317.9125 16.00625Q317.08438 16.803125 316.99063 18.1625ZM333.44376 20.553125L335.1625 20.771875Q334.88126 22.56875 333.70938 23.584375Q332.55313 24.584375 330.85 24.584375Q328.725 24.584375 327.42813 23.19375Q326.13126 21.803125 326.13126 19.209375Q326.13126 17.521875 326.67813 16.271875Q327.24063 15.00625 328.38126 14.38125Q329.52188 13.740625 330.86563 13.740625Q332.55313 13.740625 333.61563 14.6Q334.69376 15.459375 335.00626 17.021875L333.2875 17.2875Q333.05313 16.240625 332.42813 15.725Q331.80313 15.19375 330.92813 15.19375Q329.6 15.19375 328.77188 16.146875Q327.94376 17.1 327.94376 19.146875Q327.94376 21.240625 328.74063 22.19375Q329.5375 23.13125 330.83438 23.13125Q331.86563 23.13125 332.55313 22.50625Q333.25626 21.865625 333.44376 20.553125ZM336.02188 19.1625Q336.02188 16.2875 337.61563 14.896875Q338.95938 13.740625 340.88126 13.740625Q343.02188 13.740625 344.36563 15.146875Q345.725 16.553125 345.725 19.021875Q345.725 21.021875 345.13126 22.178125Q344.5375 23.31875 343.38126 23.959375Q342.24063 24.584375 340.88126 24.584375Q338.69376 24.584375 337.35 23.19375Q336.02188 21.7875 336.02188 19.1625ZM337.81876 19.1625Q337.81876 21.1625 338.67813 22.146875Q339.55313 23.13125 340.88126 23.13125Q342.19376 23.13125 343.05313 22.146875Q343.92813 21.146875 343.92813 19.1Q343.92813 17.178125 343.05313 16.19375Q342.17813 15.19375 340.88126 15.19375Q339.55313 15.19375 338.67813 16.19375Q337.81876 17.178125 337.81876 19.1625ZM347.6625 24.35L347.6625 13.975L349.25626 13.975L349.25626 15.459375Q350.39688 13.740625 352.55313 13.740625Q353.49063 13.740625 354.27188 14.084375Q355.06876 14.4125 355.45938 14.959375Q355.85 15.50625 356.00626 16.25625Q356.1 16.75625 356.1 17.975L356.1 24.35L354.33438 24.35L354.33438 18.0375Q354.33438 16.959375 354.13126 16.428125Q353.92813 15.896875 353.39688 15.584375Q352.88126 15.271875 352.17813 15.271875Q351.05313 15.271875 350.24063 15.990625Q349.42813 16.69375 349.42813 18.678125L349.42813 24.35L347.6625 24.35ZM364.39688 24.35L364.39688 23.0375Q363.4125 24.584375 361.49063 24.584375Q360.25626 24.584375 359.20938 23.896875Q358.17813 23.209375 357.6 21.990625Q357.0375 20.771875 357.0375 19.178125Q357.0375 17.615625 357.55313 16.35Q358.06876 15.084375 359.1 14.4125Q360.14688 13.740625 361.4125 13.740625Q362.35 13.740625 363.08438 14.146875Q363.81876 14.5375 364.2875 15.1625L364.2875 10.0375L366.02188 10.0375L366.02188 24.35L364.39688 24.35ZM358.83438 19.178125Q358.83438 21.1625 359.67813 22.146875Q360.52188 23.13125 361.6625 23.13125Q362.81876 23.13125 363.61563 22.19375Q364.42813 21.25625 364.42813 19.31875Q364.42813 17.19375 363.6 16.19375Q362.7875 15.19375 361.58438 15.19375Q360.4125 15.19375 359.61563 16.1625Q358.83438 17.115625 358.83438 19.178125Z" fill-rule="nonzero"/></svg>