<svg version="1.1" viewBox="0.0 0.0 642.0 107.0" fill="none" stroke="none" stroke-linecap="square" stroke-miterlimit="10" width="642" height="107" xmlns:xlink="http://www.w3.org/1999/xlink" xmlns="http://www.w3.org/2000/svg"><path fill="#ffffff" d="M0 0L642.0 0L642.0 107.0L0 107.0L0 0Z" fill-rule="nonzero"/><path stroke="#333333" stroke-width="1.0" stroke-linecap="butt" d="M112.5 32.5L112.5 81.5" fill-rule="nonzero"/><path stroke="#cccccc" stroke-width="1.0" stroke-linecap="butt" d="M193.5 32.5L193.5 81.5" fill-rule="nonzero"/><path stroke="#cccccc" stroke-width="1.0" stroke-linecap="butt" d="M273.5 32.5L273.5 81.5" fill-rule="nonzero"/><path stroke="#cccccc" stroke-width="1.0" stroke-linecap="butt" d="M354.5 32.5L354.5 81.5" fill-rule="nonzero"/><path stroke="#cccccc" stroke-width="1.0" stroke-linecap="butt" d="M434.5 32.5L434.5 81.5" fill-rule="nonzero"/><path stroke="#cccccc" stroke-width="1.0" stroke-linecap="butt" d="M515.5 32.5L515.5 81.5" fill-rule="nonzero"/><path stroke="#cccccc" stroke-width="1.0" stroke-linecap="butt" d="M596.5 32.5L596.5 81.5" fill-rule="nonzero"/><clipPath id="id_0"><path d="M112.35 32.916668L636.65 32.916668L636.65 81.65L112.35 81.65L112.35 32.916668Z" clip-rule="nonzero"/></clipPath><path stroke="#000000" stroke-width="2.0" stroke-linecap="butt" stroke-opacity="0.0" clip-path="url(#id_0)" d="M112.0 54.0L112.0 41.0L604.0 41.0L604.0 54.0Z" fill-rule="nonzero"/><path fill="#38761d" clip-path="url(#id_0)" d="M112.0 54.0L112.0 41.0L604.0 41.0L604.0 54.0Z" fill-rule="nonzero"/><path stroke="#000000" stroke-width="2.0" stroke-linecap="butt" stroke-opacity="0.0" clip-path="url(#id_0)" d="M112.0 75.0L112.0 62.0L112.0 62.0L112.0 75.0Z" fill-rule="nonzero"/><path fill="#38761d" clip-path="url(#id_0)" d="M112.0 75.0L112.0 62.0L112.0 62.0L112.0 75.0Z" fill-rule="nonzero"/><path stroke="#000000" stroke-width="2.0" stroke-linecap="butt" stroke-opacity="0.0" clip-path="url(#id_0)" d="M604.0 54.0L604.0 41.0L604.0 41.0L604.0 54.0Z" fill-rule="nonzero"/><path fill="#0b5394" clip-path="url(#id_0)" d="M604.0 54.0L604.0 41.0L604.0 41.0L604.0 54.0Z" fill-rule="nonzero"/><path stroke="#000000" stroke-width="2.0" stroke-linecap="butt" stroke-opacity="0.0" clip-path="url(#id_0)" d="M112.0 75.0L112.0 62.0L417.0 62.0C418.10458 62.0 419.0 62.89543 419.0 64.0L419.0 73.0C419.0 74.10457 418.10458 75.0 417.0 75.0Z" fill-rule="nonzero"/><path fill="#0b5394" clip-path="url(#id_0)" d="M112.0 75.0L112.0 62.0L417.0 62.0C418.10458 62.0 419.0 62.89543 419.0 64.0L419.0 73.0C419.0 74.10457 418.10458 75.0 417.0 75.0Z" fill-rule="nonzero"/><path stroke="#ffffff" stroke-width="3.0" stroke-linejoin="round" stroke-linecap="round" d="M621.2604 42.953125L621.3541 42.953125L621.3541 43.875L621.2604 43.875Q620.401 43.875 619.80725 44.15625Q619.2291 44.4375 618.8854 44.90625Q618.55725 45.359375 618.401 45.953125Q618.2604 46.53125 618.2604 47.125L618.2604 48.375Q618.2604 48.9375 618.3854 49.375Q618.526 49.8125 618.7604 50.125Q618.99475 50.421875 619.2916 50.578125Q619.5885 50.71875 619.901 50.71875Q620.276 50.71875 620.5729 50.578125Q620.86975 50.4375 621.0729 50.171875Q621.276 49.90625 621.36975 49.5625Q621.4791 49.203125 621.4791 48.765625Q621.4791 48.390625 621.3854 48.03125Q621.2916 47.671875 621.1041 47.40625Q620.9166 47.125 620.61975 46.96875Q620.3229 46.796875 619.93225 46.796875Q619.4791 46.796875 619.0885 47.015625Q618.6979 47.234375 618.4479 47.59375Q618.1979 47.953125 618.1666 48.359375L617.5885 48.359375Q617.68225 47.703125 617.901 47.234375Q618.11975 46.765625 618.4635 46.46875Q618.80725 46.171875 619.2135 46.046875Q619.6354 45.90625 620.1041 45.90625Q620.74475 45.90625 621.1979 46.15625Q621.6666 46.390625 621.9635 46.796875Q622.276 47.1875 622.4166 47.6875Q622.55725 48.1875 622.55725 48.71875Q622.55725 49.3125 622.3854 49.84375Q622.2135 50.375 621.86975 50.78125Q621.5416 51.171875 621.0416 51.40625Q620.55725 51.625 619.901 51.625Q619.2135 51.625 618.6979 51.34375Q618.18225 51.046875 617.8385 50.578125Q617.5104 50.09375 617.3385 49.515625Q617.1666 48.9375 617.1666 48.34375L617.1666 47.828125Q617.1666 46.921875 617.3385 46.0625Q617.526 45.1875 617.9791 44.484375Q618.43225 43.78125 619.2291 43.375Q620.026 42.953125 621.2604 42.953125ZM627.651 42.921875L627.651 51.5L626.5729 51.5L626.5729 44.28125L624.3854 45.078125L624.3854 44.09375L627.49475 42.921875L627.651 42.921875Z" fill-rule="nonzero"/><path fill="#38761d" d="M621.2604 42.953125L621.3541 42.953125L621.3541 43.875L621.2604 43.875Q620.401 43.875 619.80725 44.15625Q619.2291 44.4375 618.8854 44.90625Q618.55725 45.359375 618.401 45.953125Q618.2604 46.53125 618.2604 47.125L618.2604 48.375Q618.2604 48.9375 618.3854 49.375Q618.526 49.8125 618.7604 50.125Q618.99475 50.421875 619.2916 50.578125Q619.5885 50.71875 619.901 50.71875Q620.276 50.71875 620.5729 50.578125Q620.86975 50.4375 621.0729 50.171875Q621.276 49.90625 621.36975 49.5625Q621.4791 49.203125 621.4791 48.765625Q621.4791 48.390625 621.3854 48.03125Q621.2916 47.671875 621.1041 47.40625Q620.9166 47.125 620.61975 46.96875Q620.3229 46.796875 619.93225 46.796875Q619.4791 46.796875 619.0885 47.015625Q618.6979 47.234375 618.4479 47.59375Q618.1979 47.953125 618.1666 48.359375L617.5885 48.359375Q617.68225 47.703125 617.901 47.234375Q618.11975 46.765625 618.4635 46.46875Q618.80725 46.171875 619.2135 46.046875Q619.6354 45.90625 620.1041 45.90625Q620.74475 45.90625 621.1979 46.15625Q621.6666 46.390625 621.9635 46.796875Q622.276 47.1875 622.4166 47.6875Q622.55725 48.1875 622.55725 48.71875Q622.55725 49.3125 622.3854 49.84375Q622.2135 50.375 621.86975 50.78125Q621.5416 51.171875 621.0416 51.40625Q620.55725 51.625 619.901 51.625Q619.2135 51.625 618.6979 51.34375Q618.18225 51.046875 617.8385 50.578125Q617.5104 50.09375 617.3385 49.515625Q617.1666 48.9375 617.1666 48.34375L617.1666 47.828125Q617.1666 46.921875 617.3385 46.0625Q617.526 45.1875 617.9791 44.484375Q618.43225 43.78125 619.2291 43.375Q620.026 42.953125 621.2604 42.953125ZM627.651 42.921875L627.651 51.5L626.5729 51.5L626.5729 44.28125L624.3854 45.078125L624.3854 44.09375L627.49475 42.921875L627.651 42.921875Z" fill-rule="nonzero"/><path stroke="#ffffff" stroke-width="3.0" stroke-linejoin="round" stroke-linecap="round" d="M433.16074 67.703125L433.92636 67.703125Q434.5045 67.703125 434.86386 67.515625Q435.23886 67.3125 435.42636 66.984375Q435.61386 66.65625 435.61386 66.234375Q435.61386 65.75 435.442 65.421875Q435.28574 65.078125 434.9576 64.90625Q434.6295 64.734375 434.1295 64.734375Q433.66074 64.734375 433.317 64.921875Q432.97324 65.09375 432.7701 65.421875Q432.5826 65.75 432.5826 66.203125L431.48886 66.203125Q431.48886 65.546875 431.817 65.015625Q432.1451 64.484375 432.73886 64.171875Q433.3326 63.84375 434.1295 63.84375Q434.8951 63.84375 435.47324 64.125Q436.05136 64.390625 436.3795 64.9375Q436.7076 65.46875 436.7076 66.265625Q436.7076 66.59375 436.55136 66.953125Q436.3951 67.3125 436.0826 67.640625Q435.7701 67.953125 435.2701 68.15625Q434.78574 68.359375 434.0826 68.359375L433.16074 68.359375L433.16074 67.703125ZM433.16074 68.59375L433.16074 67.9375L434.0826 67.9375Q434.8951 67.9375 435.42636 68.140625Q435.9576 68.328125 436.2701 68.65625Q436.5826 68.96875 436.7076 69.359375Q436.8326 69.734375 436.8326 70.125Q436.8326 70.71875 436.6295 71.1875Q436.42636 71.640625 436.05136 71.96875Q435.692 72.28125 435.192 72.453125Q434.7076 72.625 434.1295 72.625Q433.567 72.625 433.0826 72.46875Q432.59824 72.296875 432.22324 72.0Q431.84824 71.703125 431.6295 71.265625Q431.42636 70.8125 431.42636 70.25L432.5045 70.25Q432.5045 70.6875 432.692 71.03125Q432.8951 71.359375 433.2545 71.546875Q433.6295 71.71875 434.1295 71.71875Q434.6295 71.71875 434.98886 71.546875Q435.34824 71.375 435.53574 71.03125Q435.73886 70.671875 435.73886 70.140625Q435.73886 69.609375 435.5201 69.265625Q435.30136 68.921875 434.8795 68.765625Q434.47324 68.59375 433.92636 68.59375L433.16074 68.59375ZM443.9576 70.1875Q443.9576 70.96875 443.59824 71.515625Q443.23886 72.046875 442.61386 72.34375Q442.0045 72.625 441.23886 72.625Q440.47324 72.625 439.84824 72.34375Q439.23886 72.046875 438.8795 71.515625Q438.5201 70.96875 438.5201 70.1875Q438.5201 69.6875 438.72324 69.265625Q438.92636 68.828125 439.28574 68.515625Q439.6451 68.203125 440.1295 68.03125Q440.6295 67.859375 441.22324 67.859375Q442.0201 67.859375 442.6295 68.15625Q443.23886 68.453125 443.59824 68.984375Q443.9576 69.515625 443.9576 70.1875ZM442.86386 70.171875Q442.86386 69.6875 442.66074 69.328125Q442.4576 68.953125 442.0826 68.75Q441.7076 68.546875 441.22324 68.546875Q440.72324 68.546875 440.36386 68.75Q440.0045 68.953125 439.80136 69.328125Q439.61386 69.6875 439.61386 70.171875Q439.61386 70.65625 439.80136 71.015625Q440.0045 71.359375 440.36386 71.546875Q440.73886 71.71875 441.23886 71.71875Q441.73886 71.71875 442.09824 71.546875Q442.47324 71.359375 442.66074 71.015625Q442.86386 70.65625 442.86386 70.171875ZM443.7545 66.1875Q443.7545 66.8125 443.42636 67.3125Q443.09824 67.8125 442.5201 68.09375Q441.9576 68.375 441.23886 68.375Q440.5045 68.375 439.92636 68.09375Q439.36386 67.8125 439.03574 67.3125Q438.72324 66.8125 438.72324 66.1875Q438.72324 65.4375 439.03574 64.921875Q439.36386 64.40625 439.92636 64.125Q440.5045 63.84375 441.23886 63.84375Q441.97324 63.84375 442.53574 64.125Q443.09824 64.40625 443.42636 64.921875Q443.7545 65.4375 443.7545 66.1875ZM442.67636 66.203125Q442.67636 65.78125 442.48886 65.453125Q442.30136 65.125 441.97324 64.9375Q441.66074 64.734375 441.23886 64.734375Q440.80136 64.734375 440.47324 64.921875Q440.16074 65.09375 439.98886 65.421875Q439.817 65.75 439.817 66.203125Q439.817 66.640625 439.98886 66.96875Q440.16074 67.296875 440.48886 67.484375Q440.817 67.671875 441.23886 67.671875Q441.66074 67.671875 441.97324 67.484375Q442.30136 67.296875 442.48886 66.96875Q442.67636 66.640625 442.67636 66.203125Z" fill-rule="nonzero"/><path fill="#0b5394" d="M433.16074 67.703125L433.92636 67.703125Q434.5045 67.703125 434.86386 67.515625Q435.23886 67.3125 435.42636 66.984375Q435.61386 66.65625 435.61386 66.234375Q435.61386 65.75 435.442 65.421875Q435.28574 65.078125 434.9576 64.90625Q434.6295 64.734375 434.1295 64.734375Q433.66074 64.734375 433.317 64.921875Q432.97324 65.09375 432.7701 65.421875Q432.5826 65.75 432.5826 66.203125L431.48886 66.203125Q431.48886 65.546875 431.817 65.015625Q432.1451 64.484375 432.73886 64.171875Q433.3326 63.84375 434.1295 63.84375Q434.8951 63.84375 435.47324 64.125Q436.05136 64.390625 436.3795 64.9375Q436.7076 65.46875 436.7076 66.265625Q436.7076 66.59375 436.55136 66.953125Q436.3951 67.3125 436.0826 67.640625Q435.7701 67.953125 435.2701 68.15625Q434.78574 68.359375 434.0826 68.359375L433.16074 68.359375L433.16074 67.703125ZM433.16074 68.59375L433.16074 67.9375L434.0826 67.9375Q434.8951 67.9375 435.42636 68.140625Q435.9576 68.328125 436.2701 68.65625Q436.5826 68.96875 436.7076 69.359375Q436.8326 69.734375 436.8326 70.125Q436.8326 70.71875 436.6295 71.1875Q436.42636 71.640625 436.05136 71.96875Q435.692 72.28125 435.192 72.453125Q434.7076 72.625 434.1295 72.625Q433.567 72.625 433.0826 72.46875Q432.59824 72.296875 432.22324 72.0Q431.84824 71.703125 431.6295 71.265625Q431.42636 70.8125 431.42636 70.25L432.5045 70.25Q432.5045 70.6875 432.692 71.03125Q432.8951 71.359375 433.2545 71.546875Q433.6295 71.71875 434.1295 71.71875Q434.6295 71.71875 434.98886 71.546875Q435.34824 71.375 435.53574 71.03125Q435.73886 70.671875 435.73886 70.140625Q435.73886 69.609375 435.5201 69.265625Q435.30136 68.921875 434.8795 68.765625Q434.47324 68.59375 433.92636 68.59375L433.16074 68.59375ZM443.9576 70.1875Q443.9576 70.96875 443.59824 71.515625Q443.23886 72.046875 442.61386 72.34375Q442.0045 72.625 441.23886 72.625Q440.47324 72.625 439.84824 72.34375Q439.23886 72.046875 438.8795 71.515625Q438.5201 70.96875 438.5201 70.1875Q438.5201 69.6875 438.72324 69.265625Q438.92636 68.828125 439.28574 68.515625Q439.6451 68.203125 440.1295 68.03125Q440.6295 67.859375 441.22324 67.859375Q442.0201 67.859375 442.6295 68.15625Q443.23886 68.453125 443.59824 68.984375Q443.9576 69.515625 443.9576 70.1875ZM442.86386 70.171875Q442.86386 69.6875 442.66074 69.328125Q442.4576 68.953125 442.0826 68.75Q441.7076 68.546875 441.22324 68.546875Q440.72324 68.546875 440.36386 68.75Q440.0045 68.953125 439.80136 69.328125Q439.61386 69.6875 439.61386 70.171875Q439.61386 70.65625 439.80136 71.015625Q440.0045 71.359375 440.36386 71.546875Q440.73886 71.71875 441.23886 71.71875Q441.73886 71.71875 442.09824 71.546875Q442.47324 71.359375 442.66074 71.015625Q442.86386 70.65625 442.86386 70.171875ZM443.7545 66.1875Q443.7545 66.8125 443.42636 67.3125Q443.09824 67.8125 442.5201 68.09375Q441.9576 68.375 441.23886 68.375Q440.5045 68.375 439.92636 68.09375Q439.36386 67.8125 439.03574 67.3125Q438.72324 66.8125 438.72324 66.1875Q438.72324 65.4375 439.03574 64.921875Q439.36386 64.40625 439.92636 64.125Q440.5045 63.84375 441.23886 63.84375Q441.97324 63.84375 442.53574 64.125Q443.09824 64.40625 443.42636 64.921875Q443.7545 65.4375 443.7545 66.1875ZM442.67636 66.203125Q442.67636 65.78125 442.48886 65.453125Q442.30136 65.125 441.97324 64.9375Q441.66074 64.734375 441.23886 64.734375Q440.80136 64.734375 440.47324 64.921875Q440.16074 65.09375 439.98886 65.421875Q439.817 65.75 439.817 66.203125Q439.817 66.640625 439.98886 66.96875Q440.16074 67.296875 440.48886 67.484375Q440.817 67.671875 441.23886 67.671875Q441.66074 67.671875 441.97324 67.484375Q442.30136 67.296875 442.48886 66.96875Q442.67636 66.640625 442.67636 66.203125Z" fill-rule="nonzero"/><path fill="#000000" d="M6.271875 50.91454L6.271875 42.32079L7.428125 42.32079L11.94375 49.07079L11.94375 42.32079L13.0375 42.32079L13.0375 50.91454L11.865625 50.91454L7.35 44.16454L7.35 50.91454L6.271875 50.91454ZM17.725 50.91454L14.396875 42.32079L15.63125 42.32079L17.865625 48.57079Q18.13125 49.32079 18.31875 49.97704Q18.521875 49.273914 18.7875 48.57079L21.1 42.32079L22.25625 42.32079L18.896875 50.91454L17.725 50.91454ZM22.475 50.91454L22.475 42.32079L23.6 42.32079L23.6 50.91454L22.475 50.91454ZM25.271875 50.91454L25.271875 42.32079L28.240625 42.32079Q29.240625 42.32079 29.771875 42.44579Q30.50625 42.617664 31.021875 43.055164Q31.709375 43.63329 32.0375 44.53954Q32.38125 45.430164 32.38125 46.57079Q32.38125 47.555164 32.146873 48.305164Q31.928125 49.055164 31.56875 49.555164Q31.209375 50.055164 30.771875 50.336414Q30.35 50.617664 29.75625 50.773914Q29.1625 50.91454 28.38125 50.91454L25.271875 50.91454ZM26.4125 49.898914L28.240625 49.898914Q29.1 49.898914 29.584375 49.742664Q30.06875 49.586414 30.35 49.28954Q30.75625 48.898914 30.975 48.211414Q31.209375 47.523914 31.209375 46.555164Q31.209375 45.211414 30.75625 44.492664Q30.31875 43.75829 29.69375 43.50829Q29.225 43.336414 28.225 43.336414L26.4125 43.336414L26.4125 49.898914ZM34.475 50.91454L34.475 42.32079L35.6 42.32079L35.6 50.91454L34.475 50.91454ZM36.334373 50.91454L39.63125 42.32079L40.85 42.32079L44.365623 50.91454L43.084373 50.91454L42.06875 48.305164L38.490623 48.305164L37.5375 50.91454L36.334373 50.91454ZM38.81875 47.38329L41.725 47.38329L40.834373 45.00829Q40.4125 43.930164 40.225 43.22704Q40.053123 44.055164 39.75625 44.867664L38.81875 47.38329ZM47.271873 50.91454L47.271873 42.32079L50.240623 42.32079Q51.240623 42.32079 51.771873 42.44579Q52.50625 42.617664 53.021873 43.055164Q53.709373 43.63329 54.0375 44.53954Q54.38125 45.430164 54.38125 46.57079Q54.38125 47.555164 54.146873 48.305164Q53.928123 49.055164 53.56875 49.555164Q53.209373 50.055164 52.771873 50.336414Q52.35 50.617664 51.75625 50.773914Q51.1625 50.91454 50.38125 50.91454L47.271873 50.91454ZM48.4125 49.898914L50.240623 49.898914Q51.1 49.898914 51.584373 49.742664Q52.06875 49.586414 52.35 49.28954Q52.75625 48.898914 52.975 48.211414Q53.209373 47.523914 53.209373 46.555164Q53.209373 45.211414 52.75625 44.492664Q52.31875 43.75829 51.69375 43.50829Q51.225 43.336414 50.225 43.336414L48.4125 43.336414L48.4125 49.898914ZM60.303123 47.53954L60.303123 46.53954L63.928123 46.523914L63.928123 49.711414Q63.1 50.38329 62.209373 50.72704Q61.31875 51.055164 60.38125 51.055164Q59.115623 51.055164 58.06875 50.523914Q57.0375 49.97704 56.50625 48.961414Q55.990623 47.930164 55.990623 46.66454Q55.990623 45.398914 56.50625 44.32079Q57.0375 43.22704 58.021873 42.711414Q59.00625 42.180164 60.2875 42.180164Q61.225 42.180164 61.975 42.47704Q62.725 42.773914 63.146873 43.32079Q63.584373 43.85204 63.803123 44.72704L62.7875 45.00829Q62.584373 44.35204 62.2875 43.97704Q62.00625 43.60204 61.475 43.38329Q60.94375 43.148914 60.303123 43.148914Q59.521873 43.148914 58.94375 43.38329Q58.38125 43.617664 58.021873 44.00829Q57.678123 44.398914 57.490623 44.867664Q57.1625 45.66454 57.1625 46.586414Q57.1625 47.742664 57.553123 48.523914Q57.959373 49.28954 58.709373 49.66454Q59.459373 50.03954 60.31875 50.03954Q61.053123 50.03954 61.75625 49.75829Q62.459373 49.461414 62.81875 49.148914L62.81875 47.53954L60.303123 47.53954ZM64.39687 50.91454L67.725 46.430164L64.80312 42.32079L66.14687 42.32079L67.70937 44.523914Q68.19375 45.211414 68.39687 45.586414Q68.69375 45.117664 69.08437 44.60204L70.80312 42.32079L72.0375 42.32079L69.02187 46.367664L72.27187 50.91454L70.86562 50.91454L68.70937 47.85204Q68.52187 47.586414 68.33437 47.273914Q68.05312 47.742664 67.92812 47.91454L65.77187 50.91454L64.39687 50.91454ZM74.89687 48.148914L75.95937 48.055164Q76.0375 48.711414 76.31875 49.117664Q76.6 49.523914 77.17812 49.78954Q77.77187 50.03954 78.50625 50.03954Q79.14687 50.03954 79.64687 49.85204Q80.14687 49.648914 80.38125 49.32079Q80.63125 48.97704 80.63125 48.586414Q80.63125 48.180164 80.39687 47.88329Q80.1625 47.57079 79.63125 47.367664Q79.27187 47.22704 78.08437 46.94579Q76.9125 46.66454 76.44375 46.41454Q75.81875 46.086414 75.52187 45.617664Q75.225 45.13329 75.225 44.53954Q75.225 43.898914 75.58437 43.336414Q75.95937 42.75829 76.6625 42.47704Q77.38125 42.180164 78.24062 42.180164Q79.19375 42.180164 79.92812 42.492664Q80.6625 42.78954 81.05312 43.398914Q81.44375 43.992664 81.475 44.742664L80.38125 44.82079Q80.2875 44.00829 79.77187 43.60204Q79.27187 43.180164 78.2875 43.180164Q77.25625 43.180164 76.7875 43.555164Q76.31875 43.930164 76.31875 44.461414Q76.31875 44.930164 76.64687 45.22704Q76.975 45.523914 78.35 45.836414Q79.74062 46.148914 80.25625 46.38329Q81.00625 46.742664 81.36562 47.273914Q81.725 47.78954 81.725 48.492664Q81.725 49.180164 81.33437 49.78954Q80.94375 50.38329 80.20937 50.72704Q79.475 51.055164 78.55312 51.055164Q77.38125 51.055164 76.58437 50.72704Q75.80312 50.38329 75.35 49.69579Q74.9125 49.00829 74.89687 48.148914ZM83.14687 53.305164L83.14687 44.69579L84.1 44.69579L84.1 45.492664Q84.44375 45.023914 84.86562 44.78954Q85.30312 44.555164 85.9125 44.555164Q86.70937 44.555164 87.31875 44.961414Q87.92812 45.367664 88.225 46.117664Q88.5375 46.867664 88.5375 47.75829Q88.5375 48.711414 88.19375 49.47704Q87.86562 50.242664 87.20937 50.648914Q86.55312 51.055164 85.83437 51.055164Q85.30312 51.055164 84.88125 50.836414Q84.45937 50.60204 84.19375 50.273914L84.19375 53.305164L83.14687 53.305164ZM84.1 47.836414Q84.1 49.03954 84.58437 49.617664Q85.06875 50.180164 85.75625 50.180164Q86.45937 50.180164 86.95937 49.586414Q87.45937 48.992664 87.45937 47.742664Q87.45937 46.555164 86.975 45.97704Q86.49062 45.38329 85.80312 45.38329Q85.13125 45.38329 84.61562 46.00829Q84.1 46.63329 84.1 47.836414ZM94.20937 50.148914Q93.61562 50.648914 93.06875 50.85204Q92.5375 51.055164 91.9125 51.055164Q90.88125 51.055164 90.33437 50.555164Q89.7875 50.055164 89.7875 49.273914Q89.7875 48.82079 89.99062 48.44579Q90.19375 48.055164 90.5375 47.836414Q90.88125 47.60204 91.30312 47.492664Q91.6 47.398914 92.24062 47.32079Q93.50625 47.180164 94.11562 46.961414Q94.11562 46.742664 94.11562 46.69579Q94.11562 46.03954 93.81875 45.773914Q93.4125 45.430164 92.61562 45.430164Q91.88125 45.430164 91.52187 45.69579Q91.1625 45.94579 90.99062 46.60204L89.95937 46.461414Q90.1 45.805164 90.42812 45.398914Q90.75625 44.992664 91.36562 44.773914Q91.975 44.555164 92.77187 44.555164Q93.56875 44.555164 94.06875 44.742664Q94.56875 44.930164 94.80312 45.211414Q95.0375 45.492664 95.13125 45.930164Q95.17812 46.19579 95.17812 46.898914L95.17812 48.305164Q95.17812 49.773914 95.24062 50.16454Q95.31875 50.555164 95.52187 50.91454L94.4125 50.91454Q94.25625 50.586414 94.20937 50.148914ZM94.11562 47.78954Q93.5375 48.023914 92.39687 48.19579Q91.74062 48.28954 91.475 48.41454Q91.20937 48.523914 91.05312 48.742664Q90.9125 48.961414 90.9125 49.242664Q90.9125 49.66454 91.225 49.94579Q91.55312 50.22704 92.1625 50.22704Q92.77187 50.22704 93.24062 49.961414Q93.725 49.69579 93.94375 49.22704Q94.11562 48.867664 94.11562 48.180164L94.11562 47.78954ZM97.13125 50.91454L97.13125 44.69579L98.08437 44.69579L98.08437 45.63329Q98.44375 44.97704 98.74062 44.773914Q99.05312 44.555164 99.42812 44.555164Q99.95937 44.555164 100.50625 44.88329L100.14687 45.867664Q99.75625 45.63329 99.38125 45.63329Q99.02187 45.63329 98.74062 45.85204Q98.475 46.055164 98.36562 46.430164Q98.17812 46.992664 98.17812 47.648914L98.17812 50.91454L97.13125 50.91454ZM101.14687 50.91454L101.14687 42.32079L102.20937 42.32079L102.20937 47.22704L104.69375 44.69579L106.06875 44.69579L103.67812 46.992664L106.30312 50.91454L105.00625 50.91454L102.94375 47.72704L102.20937 48.44579L102.20937 50.91454L101.14687 50.91454Z" fill-rule="nonzero"/><path fill="#000000" d="M8.271875 71.65213L8.271875 63.05838L11.521875 63.05838Q12.365625 63.05838 12.81875 63.136505Q13.459375 63.24588 13.88125 63.542755Q14.31875 63.83963 14.56875 64.37088Q14.834375 64.90213 14.834375 65.542755Q14.834375 66.636505 14.13125 67.40213Q13.44375 68.15213 11.615625 68.15213L9.4125 68.15213L9.4125 71.65213L8.271875 71.65213ZM9.4125 67.15213L11.63125 67.15213Q12.740625 67.15213 13.19375 66.74588Q13.6625 66.324005 13.6625 65.574005Q13.6625 65.042755 13.38125 64.667755Q13.115625 64.27713 12.678125 64.15213Q12.38125 64.074005 11.615625 64.074005L9.4125 64.074005L9.4125 67.15213ZM20.396875 69.65213L21.490625 69.77713Q21.240625 70.730255 20.5375 71.261505Q19.834375 71.792755 18.75625 71.792755Q17.396875 71.792755 16.584375 70.949005Q15.7875 70.105255 15.7875 68.58963Q15.7875 67.02713 16.6 66.167755Q17.4125 65.292755 18.69375 65.292755Q19.94375 65.292755 20.725 66.136505Q21.521875 66.980255 21.521875 68.52713Q21.521875 68.62088 21.521875 68.80838L16.88125 68.80838Q16.94375 69.83963 17.459375 70.386505Q17.975 70.917755 18.75625 70.917755Q19.334375 70.917755 19.740625 70.62088Q20.1625 70.30838 20.396875 69.65213ZM16.94375 67.949005L20.4125 67.949005Q20.35 67.15213 20.021875 66.761505Q19.50625 66.15213 18.709375 66.15213Q17.975 66.15213 17.475 66.636505Q16.990625 67.12088 16.94375 67.949005ZM23.146875 71.65213L23.146875 65.43338L24.084375 65.43338L24.084375 66.30838Q24.771875 65.292755 26.06875 65.292755Q26.63125 65.292755 27.1 65.49588Q27.584375 65.699005 27.81875 66.02713Q28.053125 66.355255 28.146875 66.792755Q28.19375 67.08963 28.19375 67.824005L28.19375 71.65213L27.146875 71.65213L27.146875 67.87088Q27.146875 67.21463 27.021875 66.90213Q26.896875 66.58963 26.584375 66.40213Q26.271875 66.199005 25.85 66.199005Q25.178125 66.199005 24.678125 66.636505Q24.19375 67.05838 24.19375 68.24588L24.19375 71.65213L23.146875 71.65213ZM32.44375 70.71463L32.6 71.636505Q32.146873 71.730255 31.803125 71.730255Q31.225 71.730255 30.9125 71.55838Q30.6 71.37088 30.459375 71.074005Q30.334375 70.77713 30.334375 69.824005L30.334375 66.24588L29.56875 66.24588L29.56875 65.43338L30.334375 65.43338L30.334375 63.886505L31.38125 63.261505L31.38125 65.43338L32.44375 65.43338L32.44375 66.24588L31.38125 66.24588L31.38125 69.886505Q31.38125 70.33963 31.428125 70.46463Q31.490625 70.58963 31.615625 70.667755Q31.740625 70.74588 31.975 70.74588Q32.1625 70.74588 32.44375 70.71463ZM37.209373 70.886505Q36.615623 71.386505 36.06875 71.58963Q35.5375 71.792755 34.9125 71.792755Q33.88125 71.792755 33.334373 71.292755Q32.7875 70.792755 32.7875 70.011505Q32.7875 69.55838 32.990623 69.18338Q33.19375 68.792755 33.5375 68.574005Q33.88125 68.33963 34.303123 68.230255Q34.6 68.136505 35.240623 68.05838Q36.50625 67.917755 37.115623 67.699005Q37.115623 67.480255 37.115623 67.43338Q37.115623 66.77713 36.81875 66.511505Q36.4125 66.167755 35.615623 66.167755Q34.88125 66.167755 34.521873 66.43338Q34.1625 66.68338 33.990623 67.33963L32.959373 67.199005Q33.1 66.542755 33.428123 66.136505Q33.75625 65.730255 34.365623 65.511505Q34.975 65.292755 35.771873 65.292755Q36.56875 65.292755 37.06875 65.480255Q37.56875 65.667755 37.803123 65.949005Q38.0375 66.230255 38.13125 66.667755Q38.178123 66.93338 38.178123 67.636505L38.178123 69.042755Q38.178123 70.511505 38.240623 70.90213Q38.31875 71.292755 38.521873 71.65213L37.4125 71.65213Q37.25625 71.324005 37.209373 70.886505ZM37.115623 68.52713Q36.5375 68.761505 35.396873 68.93338Q34.740623 69.02713 34.475 69.15213Q34.209373 69.261505 34.053123 69.480255Q33.9125 69.699005 33.9125 69.980255Q33.9125 70.40213 34.225 70.68338Q34.553123 70.96463 35.1625 70.96463Q35.771873 70.96463 36.240623 70.699005Q36.725 70.43338 36.94375 69.96463Q37.115623 69.605255 37.115623 68.917755L37.115623 68.52713ZM39.725 69.074005L39.725 68.011505L42.975 68.011505L42.975 69.074005L39.725 69.074005ZM48.303123 68.27713L48.303123 67.27713L51.928123 67.261505L51.928123 70.449005Q51.1 71.12088 50.209373 71.46463Q49.31875 71.792755 48.38125 71.792755Q47.115623 71.792755 46.06875 71.261505Q45.0375 70.71463 44.50625 69.699005Q43.990623 68.667755 43.990623 67.40213Q43.990623 66.136505 44.50625 65.05838Q45.0375 63.96463 46.021873 63.449005Q47.00625 62.917755 48.2875 62.917755Q49.225 62.917755 49.975 63.21463Q50.725 63.511505 51.146873 64.05838Q51.584373 64.58963 51.803123 65.46463L50.7875 65.74588Q50.584373 65.08963 50.2875 64.71463Q50.00625 64.33963 49.475 64.12088Q48.94375 63.886505 48.303123 63.886505Q47.521873 63.886505 46.94375 64.12088Q46.38125 64.355255 46.021873 64.74588Q45.678123 65.136505 45.490623 65.605255Q45.1625 66.40213 45.1625 67.324005Q45.1625 68.480255 45.553123 69.261505Q45.959373 70.02713 46.709373 70.40213Q47.459373 70.77713 48.31875 70.77713Q49.053123 70.77713 49.75625 70.49588Q50.459373 70.199005 50.81875 69.886505L50.81875 68.27713L48.303123 68.27713ZM53.271873 71.65213L53.271873 63.05838L56.521873 63.05838Q57.365623 63.05838 57.81875 63.136505Q58.459373 63.24588 58.88125 63.542755Q59.31875 63.83963 59.56875 64.37088Q59.834373 64.90213 59.834373 65.542755Q59.834373 66.636505 59.13125 67.40213Q58.44375 68.15213 56.615623 68.15213L54.4125 68.15213L54.4125 71.65213L53.271873 71.65213ZM54.4125 67.15213L56.63125 67.15213Q57.740623 67.15213 58.19375 66.74588Q58.6625 66.324005 58.6625 65.574005Q58.6625 65.042755 58.38125 64.667755Q58.115623 64.27713 57.678123 64.15213Q57.38125 64.074005 56.615623 64.074005L54.4125 64.074005L54.4125 67.15213ZM66.9125 63.05838L68.05312 63.05838L68.05312 68.02713Q68.05312 69.324005 67.75625 70.08963Q67.45937 70.83963 66.69375 71.324005Q65.92812 71.792755 64.69375 71.792755Q63.490623 71.792755 62.709373 71.386505Q61.94375 70.96463 61.615623 70.18338Q61.2875 69.386505 61.2875 68.02713L61.2875 63.05838L62.428123 63.05838L62.428123 68.011505Q62.428123 69.136505 62.63125 69.667755Q62.85 70.199005 63.35 70.49588Q63.865623 70.77713 64.6 70.77713Q65.85 70.77713 66.38125 70.21463Q66.9125 69.636505 66.9125 68.011505L66.9125 63.05838ZM72.725 69.792755L73.75625 69.636505Q73.85 70.261505 74.24062 70.58963Q74.64687 70.917755 75.38125 70.917755Q76.1 70.917755 76.44375 70.636505Q76.80312 70.33963 76.80312 69.93338Q76.80312 69.574005 76.49062 69.37088Q76.27187 69.230255 75.4125 69.011505Q74.25625 68.71463 73.80312 68.511505Q73.36562 68.292755 73.13125 67.917755Q72.89687 67.542755 72.89687 67.074005Q72.89687 66.667755 73.08437 66.30838Q73.27187 65.949005 73.6 65.71463Q73.85 65.542755 74.27187 65.417755Q74.69375 65.292755 75.19375 65.292755Q75.9125 65.292755 76.45937 65.511505Q77.02187 65.71463 77.2875 66.074005Q77.55312 66.43338 77.64687 67.02713L76.61562 67.167755Q76.55312 66.699005 76.20937 66.43338Q75.88125 66.15213 75.25625 66.15213Q74.5375 66.15213 74.225 66.40213Q73.9125 66.636505 73.9125 66.96463Q73.9125 67.167755 74.0375 67.324005Q74.17812 67.49588 74.44375 67.605255Q74.6 67.667755 75.38125 67.87088Q76.50625 68.18338 76.94375 68.37088Q77.38125 68.55838 77.63125 68.917755Q77.88125 69.27713 77.88125 69.824005Q77.88125 70.355255 77.56875 70.824005Q77.27187 71.27713 76.69375 71.542755Q76.11562 71.792755 75.38125 71.792755Q74.1625 71.792755 73.52187 71.292755Q72.89687 70.77713 72.725 69.792755ZM84.39687 69.65213L85.49062 69.77713Q85.24062 70.730255 84.5375 71.261505Q83.83437 71.792755 82.75625 71.792755Q81.39687 71.792755 80.58437 70.949005Q79.7875 70.105255 79.7875 68.58963Q79.7875 67.02713 80.6 66.167755Q81.4125 65.292755 82.69375 65.292755Q83.94375 65.292755 84.725 66.136505Q85.52187 66.980255 85.52187 68.52713Q85.52187 68.62088 85.52187 68.80838L80.88125 68.80838Q80.94375 69.83963 81.45937 70.386505Q81.975 70.917755 82.75625 70.917755Q83.33437 70.917755 83.74062 70.62088Q84.1625 70.30838 84.39687 69.65213ZM80.94375 67.949005L84.4125 67.949005Q84.35 67.15213 84.02187 66.761505Q83.50625 66.15213 82.70937 66.15213Q81.975 66.15213 81.475 66.636505Q80.99062 67.12088 80.94375 67.949005ZM87.13125 71.65213L87.13125 65.43338L88.08437 65.43338L88.08437 66.37088Q88.44375 65.71463 88.74062 65.511505Q89.05312 65.292755 89.42812 65.292755Q89.95937 65.292755 90.50625 65.62088L90.14687 66.605255Q89.75625 66.37088 89.38125 66.37088Q89.02187 66.37088 88.74062 66.58963Q88.475 66.792755 88.36562 67.167755Q88.17812 67.730255 88.17812 68.386505L88.17812 71.65213L87.13125 71.65213ZM92.86562 71.65213L90.50625 65.43338L91.61562 65.43338L92.95937 69.15213Q93.1625 69.761505 93.35 70.40213Q93.49062 69.917755 93.74062 69.230255L95.13125 65.43338L96.20937 65.43338L93.85 71.65213L92.86562 71.65213ZM100.39687 69.65213L101.49062 69.77713Q101.24062 70.730255 100.5375 71.261505Q99.83437 71.792755 98.75625 71.792755Q97.39687 71.792755 96.58437 70.949005Q95.7875 70.105255 95.7875 68.58963Q95.7875 67.02713 96.6 66.167755Q97.4125 65.292755 98.69375 65.292755Q99.94375 65.292755 100.725 66.136505Q101.52187 66.980255 101.52187 68.52713Q101.52187 68.62088 101.52187 68.80838L96.88125 68.80838Q96.94375 69.83963 97.45937 70.386505Q97.975 70.917755 98.75625 70.917755Q99.33437 70.917755 99.74062 70.62088Q100.1625 70.30838 100.39687 69.65213ZM96.94375 67.949005L100.4125 67.949005Q100.35 67.15213 100.02187 66.761505Q99.50625 66.15213 98.70937 66.15213Q97.975 66.15213 97.475 66.636505Q96.99062 67.12088 96.94375 67.949005ZM103.13125 71.65213L103.13125 65.43338L104.08437 65.43338L104.08437 66.37088Q104.44375 65.71463 104.74062 65.511505Q105.05312 65.292755 105.42812 65.292755Q105.95937 65.292755 106.50625 65.62088L106.14687 66.605255Q105.75625 66.37088 105.38125 66.37088Q105.02187 66.37088 104.74062 66.58963Q104.475 66.792755 104.36562 67.167755Q104.17812 67.730255 104.17812 68.386505L104.17812 71.65213L103.13125 71.65213Z" fill-rule="nonzero"/><path fill="#000000" d="M109.35 94.41563Q109.35 92.88438 109.6625 91.9625Q109.975 91.025 110.58437 90.525Q111.20937 90.025 112.14687 90.025Q112.83437 90.025 113.35 90.30625Q113.88125 90.5875 114.225 91.11875Q114.56875 91.63438 114.75625 92.38438Q114.94375 93.13438 114.94375 94.41563Q114.94375 95.93125 114.63125 96.85313Q114.33437 97.775 113.70937 98.29063Q113.1 98.79063 112.14687 98.79063Q110.9125 98.79063 110.19375 97.9Q109.35 96.8375 109.35 94.41563ZM110.42812 94.41563Q110.42812 96.525 110.92812 97.22813Q111.42812 97.93125 112.14687 97.93125Q112.88125 97.93125 113.36562 97.22813Q113.86562 96.525 113.86562 94.41563Q113.86562 92.29063 113.36562 91.60313Q112.88125 90.9 112.13125 90.9Q111.4125 90.9 110.975 91.50938Q110.42812 92.29063 110.42812 94.41563Z" fill-rule="nonzero"/><path fill="#000000" d="M190.48029 98.65L189.43341 98.65L189.43341 91.93125Q189.04279 92.29063 188.41779 92.66563Q187.80841 93.025 187.32404 93.19688L187.32404 92.18125Q188.19904 91.75938 188.85529 91.18125Q189.52716 90.5875 189.80841 90.025L190.48029 90.025L190.48029 98.65ZM193.51154 94.41563Q193.51154 92.88438 193.82404 91.9625Q194.13654 91.025 194.74591 90.525Q195.37091 90.025 196.30841 90.025Q196.99591 90.025 197.51154 90.30625Q198.04279 90.5875 198.38654 91.11875Q198.73029 91.63438 198.91779 92.38438Q199.10529 93.13438 199.10529 94.41563Q199.10529 95.93125 198.79279 96.85313Q198.49591 97.775 197.87091 98.29063Q197.26154 98.79063 196.30841 98.79063Q195.07404 98.79063 194.35529 97.9Q193.51154 96.8375 193.51154 94.41563ZM194.58966 94.41563Q194.58966 96.525 195.08966 97.22813Q195.58966 97.93125 196.30841 97.93125Q197.04279 97.93125 197.52716 97.22813Q198.02716 96.525 198.02716 94.41563Q198.02716 92.29063 197.52716 91.60313Q197.04279 90.9 196.29279 90.9Q195.57404 90.9 195.13654 91.50938Q194.58966 92.29063 194.58966 94.41563Z" fill-rule="nonzero"/><path fill="#000000" d="M272.71994 97.63438L272.71994 98.65L267.03244 98.65Q267.03244 98.275 267.15744 97.91563Q267.3762 97.3375 267.84494 96.775Q268.3293 96.2125 269.23557 95.47813Q270.6418 94.32188 271.1262 93.65Q271.6262 92.97813 271.6262 92.38438Q271.6262 91.75938 271.17307 91.3375Q270.71994 90.9 270.0012 90.9Q269.23557 90.9 268.78244 91.35313Q268.3293 91.80625 268.3137 92.61875L267.23557 92.50938Q267.34494 91.29063 268.0637 90.66563Q268.79807 90.025 270.03244 90.025Q271.2668 90.025 271.98557 90.7125Q272.7043 91.4 272.7043 92.41563Q272.7043 92.93125 272.48557 93.43125Q272.28244 93.91563 271.78244 94.47813Q271.29807 95.025 270.17307 95.97813Q269.21994 96.775 268.9387 97.07188Q268.67307 97.35313 268.5012 97.63438L272.71994 97.63438ZM274.17307 94.41563Q274.17307 92.88438 274.48557 91.9625Q274.79807 91.025 275.40744 90.525Q276.03244 90.025 276.96994 90.025Q277.65744 90.025 278.17307 90.30625Q278.7043 90.5875 279.04807 91.11875Q279.3918 91.63438 279.5793 92.38438Q279.7668 93.13438 279.7668 94.41563Q279.7668 95.93125 279.4543 96.85313Q279.15744 97.775 278.53244 98.29063Q277.92307 98.79063 276.96994 98.79063Q275.73557 98.79063 275.0168 97.9Q274.17307 96.8375 274.17307 94.41563ZM275.2512 94.41563Q275.2512 96.525 275.7512 97.22813Q276.2512 97.93125 276.96994 97.93125Q277.7043 97.93125 278.1887 97.22813Q278.6887 96.525 278.6887 94.41563Q278.6887 92.29063 278.1887 91.60313Q277.7043 90.9 276.9543 90.9Q276.23557 90.9 275.79807 91.50938Q275.2512 92.29063 275.2512 94.41563Z" fill-rule="nonzero"/><path fill="#000000" d="M347.83463 96.38438L348.89713 96.24375Q349.069 97.13438 349.5065 97.54063Q349.944 97.93125 350.569 97.93125Q351.319 97.93125 351.83463 97.41563Q352.35025 96.9 352.35025 96.13438Q352.35025 95.41563 351.86588 94.94688Q351.39713 94.4625 350.66275 94.4625Q350.36588 94.4625 349.91275 94.5875L350.03775 93.65Q350.14713 93.66563 350.20963 93.66563Q350.8815 93.66563 351.41275 93.32188Q351.95963 92.9625 351.95963 92.22813Q351.95963 91.65 351.569 91.275Q351.17838 90.88438 350.55338 90.88438Q349.944 90.88438 349.52213 91.275Q349.11588 91.66563 349.0065 92.43125L347.944 92.24375Q348.1315 91.19688 348.819 90.61875Q349.5065 90.025 350.52213 90.025Q351.22525 90.025 351.819 90.3375Q352.41275 90.63438 352.72525 91.15Q353.03775 91.66563 353.03775 92.25938Q353.03775 92.80625 352.74088 93.275Q352.444 93.72813 351.86588 93.99375Q352.61588 94.16563 353.03775 94.72813Q353.45963 95.275 353.45963 96.11875Q353.45963 97.24375 352.6315 98.025Q351.819 98.80625 350.569 98.80625Q349.444 98.80625 348.694 98.13438Q347.944 97.44688 347.83463 96.38438ZM354.83463 94.41563Q354.83463 92.88438 355.14713 91.9625Q355.45963 91.025 356.069 90.525Q356.694 90.025 357.6315 90.025Q358.319 90.025 358.83463 90.30625Q359.36588 90.5875 359.70963 91.11875Q360.05338 91.63438 360.24088 92.38438Q360.42838 93.13438 360.42838 94.41563Q360.42838 95.93125 360.11588 96.85313Q359.819 97.775 359.194 98.29063Q358.58463 98.79063 357.6315 98.79063Q356.39713 98.79063 355.67838 97.9Q354.83463 96.8375 354.83463 94.41563ZM355.91275 94.41563Q355.91275 96.525 356.41275 97.22813Q356.91275 97.93125 357.6315 97.93125Q358.36588 97.93125 358.85025 97.22813Q359.35025 96.525 359.35025 94.41563Q359.35025 92.29063 358.85025 91.60313Q358.36588 90.9 357.61588 90.9Q356.89713 90.9 356.45963 91.50938Q355.91275 92.29063 355.91275 94.41563Z" fill-rule="nonzero"/><path fill="#000000" d="M431.87115 98.65L431.87115 96.5875L428.1524 96.5875L428.1524 95.61875L432.07428 90.05625L432.93365 90.05625L432.93365 95.61875L434.0899 95.61875L434.0899 96.5875L432.93365 96.5875L432.93365 98.65L431.87115 98.65ZM431.87115 95.61875L431.87115 91.75938L429.18365 95.61875L431.87115 95.61875ZM435.49615 94.41563Q435.49615 92.88438 435.80865 91.9625Q436.12115 91.025 436.73053 90.525Q437.35553 90.025 438.29303 90.025Q438.98053 90.025 439.49615 90.30625Q440.0274 90.5875 440.37115 91.11875Q440.7149 91.63438 440.9024 92.38438Q441.0899 93.13438 441.0899 94.41563Q441.0899 95.93125 440.7774 96.85313Q440.48053 97.775 439.85553 98.29063Q439.24615 98.79063 438.29303 98.79063Q437.05865 98.79063 436.3399 97.9Q435.49615 96.8375 435.49615 94.41563ZM436.57428 94.41563Q436.57428 96.525 437.07428 97.22813Q437.57428 97.93125 438.29303 97.93125Q439.0274 97.93125 439.51178 97.22813Q440.01178 96.525 440.01178 94.41563Q440.01178 92.29063 439.51178 91.60313Q439.0274 90.9 438.2774 90.9Q437.55865 90.9 437.12115 91.50938Q436.57428 92.29063 436.57428 94.41563Z" fill-rule="nonzero"/><path fill="#000000" d="M509.15768 96.4L510.26706 96.30625Q510.39206 97.11875 510.82956 97.525Q511.28268 97.93125 511.9233 97.93125Q512.67334 97.93125 513.2046 97.35313Q513.73584 96.775 513.73584 95.8375Q513.73584 94.93125 513.2202 94.41563Q512.7202 93.88438 511.89206 93.88438Q511.39206 93.88438 510.97018 94.11875Q510.56393 94.35313 510.32956 94.7125L509.34518 94.5875L510.1733 90.18125L514.4546 90.18125L514.4546 91.18125L511.01706 91.18125L510.56393 93.49375Q511.32956 92.94688 512.17334 92.94688Q513.29834 92.94688 514.06396 93.72813Q514.8452 94.50938 514.8452 95.74375Q514.8452 96.9 514.17334 97.75938Q513.3452 98.79063 511.9233 98.79063Q510.75143 98.79063 510.00143 98.13438Q509.26706 97.47813 509.15768 96.4ZM516.1577 94.41563Q516.1577 92.88438 516.4702 91.9625Q516.7827 91.025 517.3921 90.525Q518.0171 90.025 518.9546 90.025Q519.6421 90.025 520.1577 90.30625Q520.68896 90.5875 521.0327 91.11875Q521.37646 91.63438 521.56396 92.38438Q521.75146 93.13438 521.75146 94.41563Q521.75146 95.93125 521.43896 96.85313Q521.1421 97.775 520.5171 98.29063Q519.9077 98.79063 518.9546 98.79063Q517.7202 98.79063 517.00146 97.9Q516.1577 96.8375 516.1577 94.41563ZM517.23584 94.41563Q517.23584 96.525 517.73584 97.22813Q518.23584 97.93125 518.9546 97.93125Q519.68896 97.93125 520.17334 97.22813Q520.67334 96.525 520.67334 94.41563Q520.67334 92.29063 520.17334 91.60313Q519.68896 90.9 518.93896 90.9Q518.2202 90.9 517.7827 91.50938Q517.23584 92.29063 517.23584 94.41563Z" fill-rule="nonzero"/><path fill="#000000" d="M595.28796 92.16563L594.2411 92.24375Q594.10046 91.61875 593.85046 91.3375Q593.41296 90.88438 592.78796 90.88438Q592.28796 90.88438 591.89734 91.16563Q591.41296 91.54063 591.1161 92.24375Q590.83484 92.93125 590.8192 94.2125Q591.1942 93.63438 591.7411 93.35313Q592.3036 93.07188 592.91296 93.07188Q593.95984 93.07188 594.6942 93.85313Q595.4442 94.63438 595.4442 95.85313Q595.4442 96.66563 595.08484 97.36875Q594.7411 98.05625 594.1317 98.43125Q593.52234 98.79063 592.7567 98.79063Q591.4286 98.79063 590.60046 97.82188Q589.77234 96.85313 589.77234 94.63438Q589.77234 92.13438 590.6942 91.00938Q591.4911 90.025 592.85046 90.025Q593.8661 90.025 594.5067 90.60313Q595.16296 91.16563 595.28796 92.16563ZM590.9911 95.86875Q590.9911 96.41563 591.20984 96.91563Q591.4442 97.4 591.85046 97.66563Q592.27234 97.93125 592.7411 97.93125Q593.39734 97.93125 593.8817 97.4Q594.3661 96.85313 594.3661 95.93125Q594.3661 95.04063 593.8817 94.525Q593.41296 94.00938 592.6942 94.00938Q591.97546 94.00938 591.47546 94.525Q590.9911 95.04063 590.9911 95.86875ZM596.8192 94.41563Q596.8192 92.88438 597.1317 91.9625Q597.4442 91.025 598.0536 90.525Q598.6786 90.025 599.6161 90.025Q600.3036 90.025 600.8192 90.30625Q601.35046 90.5875 601.6942 91.11875Q602.03796 91.63438 602.22546 92.38438Q602.41296 93.13438 602.41296 94.41563Q602.41296 95.93125 602.10046 96.85313Q601.8036 97.775 601.1786 98.29063Q600.5692 98.79063 599.6161 98.79063Q598.3817 98.79063 597.66296 97.9Q596.8192 96.8375 596.8192 94.41563ZM597.89734 94.41563Q597.89734 96.525 598.39734 97.22813Q598.89734 97.93125 599.6161 97.93125Q600.35046 97.93125 600.83484 97.22813Q601.33484 96.525 601.33484 94.41563Q601.33484 92.29063 600.83484 91.60313Q600.35046 90.9 599.60046 90.9Q598.8817 90.9 598.4442 91.50938Q597.89734 92.29063 597.89734 94.41563Z" fill-rule="nonzero"/><path fill="#757575" d="M10.5375 24.35L10.5375 11.725L5.81875 11.725L5.81875 10.0375L17.1625 10.0375L17.1625 11.725L12.428125 11.725L12.428125 24.35L10.5375 24.35ZM18.021875 19.1625Q18.021875 16.2875 19.615625 14.896875Q20.959375 13.740625 22.88125 13.740625Q25.021875 13.740625 26.365625 15.146875Q27.725 16.553125 27.725 19.021875Q27.725 21.021875 27.13125 22.178125Q26.5375 23.31875 25.38125 23.959375Q24.240625 24.584375 22.88125 24.584375Q20.69375 24.584375 19.35 23.19375Q18.021875 21.7875 18.021875 19.1625ZM19.81875 19.1625Q19.81875 21.1625 20.678125 22.146875Q21.553125 23.13125 22.88125 23.13125Q24.19375 23.13125 25.053125 22.146875Q25.928125 21.146875 25.928125 19.1Q25.928125 17.178125 25.053125 16.19375Q24.178125 15.19375 22.88125 15.19375Q21.553125 15.19375 20.678125 16.19375Q19.81875 17.178125 19.81875 19.1625ZM29.678125 24.35L29.678125 10.0375L31.44375 10.0375L31.44375 18.19375L35.6 13.975L37.865623 13.975L33.9125 17.81875L38.271873 24.35L36.1 24.35L32.678123 19.053125L31.44375 20.240625L31.44375 24.35L29.678125 24.35ZM46.771873 21.00625L48.584373 21.240625Q48.1625 22.81875 46.990623 23.709375Q45.834373 24.584375 44.021873 24.584375Q41.75625 24.584375 40.4125 23.19375Q39.084373 21.7875 39.084373 19.25625Q39.084373 16.63125 40.428123 15.19375Q41.771873 13.740625 43.928123 13.740625Q46.00625 13.740625 47.31875 15.1625Q48.646873 16.56875 48.646873 19.146875Q48.646873 19.303125 48.63125 19.615625L40.896873 19.615625Q40.990623 21.31875 41.865623 22.225Q42.740623 23.13125 44.0375 23.13125Q45.00625 23.13125 45.678123 22.63125Q46.365623 22.115625 46.771873 21.00625ZM40.990623 18.1625L46.7875 18.1625Q46.678123 16.865625 46.13125 16.209375Q45.2875 15.19375 43.94375 15.19375Q42.740623 15.19375 41.9125 16.00625Q41.084373 16.803125 40.990623 18.1625ZM50.6625 24.35L50.6625 13.975L52.25625 13.975L52.25625 15.459375Q53.396873 13.740625 55.553123 13.740625Q56.490623 13.740625 57.271873 14.084375Q58.06875 14.4125 58.459373 14.959375Q58.85 15.50625 59.00625 16.25625Q59.1 16.75625 59.1 17.975L59.1 24.35L57.334373 24.35L57.334373 18.0375Q57.334373 16.959375 57.13125 16.428125Q56.928123 15.896875 56.396873 15.584375Q55.88125 15.271875 55.178123 15.271875Q54.053123 15.271875 53.240623 15.990625Q52.428123 16.69375 52.428123 18.678125L52.428123 24.35L50.6625 24.35ZM73.6 18.740625L73.6 17.053125L79.6625 17.0375L79.6625 22.35Q78.25625 23.475 76.77187 24.0375Q75.2875 24.6 73.725 24.6Q71.61562 24.6 69.89687 23.69375Q68.17812 22.7875 67.2875 21.084375Q66.4125 19.365625 66.4125 17.25625Q66.4125 15.1625 67.2875 13.365625Q68.1625 11.553125 69.80312 10.678125Q71.44375 9.7875 73.58437 9.7875Q75.13125 9.7875 76.38125 10.2875Q77.64687 10.7875 78.35 11.69375Q79.06875 12.584375 79.44375 14.0375L77.74062 14.50625Q77.4125 13.4125 76.92812 12.7875Q76.45937 12.1625 75.56875 11.7875Q74.67812 11.4125 73.6 11.4125Q72.2875 11.4125 71.33437 11.803125Q70.39687 12.19375 69.81875 12.85Q69.24062 13.490625 68.9125 14.25625Q68.36562 15.584375 68.36562 17.146875Q68.36562 19.053125 69.02187 20.35Q69.69375 21.63125 70.94375 22.25625Q72.20937 22.88125 73.61562 22.88125Q74.85 22.88125 76.02187 22.4125Q77.19375 21.94375 77.80312 21.396875L77.80312 18.740625L73.6 18.740625ZM89.77187 21.00625L91.58437 21.240625Q91.1625 22.81875 89.99062 23.709375Q88.83437 24.584375 87.02187 24.584375Q84.75625 24.584375 83.4125 23.19375Q82.08437 21.7875 82.08437 19.25625Q82.08437 16.63125 83.42812 15.19375Q84.77187 13.740625 86.92812 13.740625Q89.00625 13.740625 90.31875 15.1625Q91.64687 16.56875 91.64687 19.146875Q91.64687 19.303125 91.63125 19.615625L83.89687 19.615625Q83.99062 21.31875 84.86562 22.225Q85.74062 23.13125 87.0375 23.13125Q88.00625 23.13125 88.67812 22.63125Q89.36562 22.115625 89.77187 21.00625ZM83.99062 18.1625L89.7875 18.1625Q89.67812 16.865625 89.13125 16.209375Q88.2875 15.19375 86.94375 15.19375Q85.74062 15.19375 84.9125 16.00625Q84.08437 16.803125 83.99062 18.1625ZM93.6625 24.35L93.6625 13.975L95.25625 13.975L95.25625 15.459375Q96.39687 13.740625 98.55312 13.740625Q99.49062 13.740625 100.27187 14.084375Q101.06875 14.4125 101.45937 14.959375Q101.85 15.50625 102.00625 16.25625Q102.1 16.75625 102.1 17.975L102.1 24.35L100.33437 24.35L100.33437 18.0375Q100.33437 16.959375 100.13125 16.428125Q99.92812 15.896875 99.39687 15.584375Q98.88125 15.271875 98.17812 15.271875Q97.05312 15.271875 96.24062 15.990625Q95.42812 16.69375 95.42812 18.678125L95.42812 24.35L93.6625 24.35ZM110.77187 21.00625L112.58437 21.240625Q112.1625 22.81875 110.99062 23.709375Q109.83437 24.584375 108.02187 24.584375Q105.75625 24.584375 104.4125 23.19375Q103.08437 21.7875 103.08437 19.25625Q103.08437 16.63125 104.42812 15.19375Q105.77187 13.740625 107.92812 13.740625Q110.00625 13.740625 111.31875 15.1625Q112.64687 16.56875 112.64687 19.146875Q112.64687 19.303125 112.63125 19.615625L104.89687 19.615625Q104.99062 21.31875 105.86562 22.225Q106.74062 23.13125 108.0375 23.13125Q109.00625 23.13125 109.67812 22.63125Q110.36562 22.115625 110.77187 21.00625ZM104.99062 18.1625L110.7875 18.1625Q110.67812 16.865625 110.13125 16.209375Q109.2875 15.19375 107.94375 15.19375Q106.74062 15.19375 105.9125 16.00625Q105.08437 16.803125 104.99062 18.1625ZM114.64687 24.35L114.64687 13.975L116.225 13.975L116.225 15.553125Q116.83437 14.44375 117.35 14.1Q117.86562 13.740625 118.475 13.740625Q119.36562 13.740625 120.2875 14.303125L119.67812 15.94375Q119.0375 15.553125 118.39687 15.553125Q117.81875 15.553125 117.35 15.9125Q116.89687 16.25625 116.69375 16.865625Q116.4125 17.803125 116.4125 18.9125L116.4125 24.35L114.64687 24.35ZM128.44376 23.06875Q127.45937 23.896875 126.55312 24.240625Q125.64687 24.584375 124.61562 24.584375Q122.9125 24.584375 121.99062 23.75625Q121.06875 22.9125 121.06875 21.615625Q121.06875 20.85 121.4125 20.225Q121.77187 19.6 122.33437 19.225Q122.89687 18.834375 123.6 18.63125Q124.11562 18.50625 125.1625 18.365625Q127.2875 18.115625 128.2875 17.771875Q128.30313 17.4125 128.30313 17.303125Q128.30313 16.240625 127.80312 15.7875Q127.13125 15.19375 125.80312 15.19375Q124.55312 15.19375 123.95937 15.63125Q123.38125 16.06875 123.1 17.178125L121.38125 16.94375Q121.61562 15.834375 122.14687 15.1625Q122.67812 14.475 123.69375 14.115625Q124.70937 13.740625 126.05312 13.740625Q127.38125 13.740625 128.20938 14.053125Q129.0375 14.365625 129.42813 14.85Q129.81876 15.31875 129.975 16.0375Q130.06876 16.490625 130.06876 17.6625L130.06876 20.00625Q130.06876 22.459375 130.17813 23.115625Q130.2875 23.75625 130.63126 24.35L128.7875 24.35Q128.52188 23.803125 128.44376 23.06875ZM128.2875 19.146875Q127.33437 19.5375 125.4125 19.803125Q124.33437 19.959375 123.88125 20.1625Q123.44375 20.35 123.19375 20.725Q122.94375 21.1 122.94375 21.56875Q122.94375 22.271875 123.475 22.740625Q124.00625 23.209375 125.0375 23.209375Q126.05312 23.209375 126.83437 22.771875Q127.63125 22.31875 128.00626 21.553125Q128.2875 20.94375 128.2875 19.7875L128.2875 19.146875ZM136.50626 22.771875L136.75626 24.334375Q136.02188 24.490625 135.42813 24.490625Q134.475 24.490625 133.94376 24.19375Q133.42813 23.88125 133.20938 23.396875Q132.99063 22.896875 132.99063 21.31875L132.99063 15.35L131.70938 15.35L131.70938 13.975L132.99063 13.975L132.99063 11.4125L134.74063 10.35L134.74063 13.975L136.50626 13.975L136.50626 15.35L134.74063 15.35L134.74063 21.4125Q134.74063 22.1625 134.83438 22.38125Q134.92813 22.584375 135.13126 22.725Q135.35 22.85 135.74063 22.85Q136.02188 22.85 136.50626 22.771875ZM138.67813 12.053125L138.67813 10.0375L140.44376 10.0375L140.44376 12.053125L138.67813 12.053125ZM138.67813 24.35L138.67813 13.975L140.44376 13.975L140.44376 24.35L138.67813 24.35ZM142.02188 19.1625Q142.02188 16.2875 143.61563 14.896875Q144.95938 13.740625 146.88126 13.740625Q149.02188 13.740625 150.36563 15.146875Q151.725 16.553125 151.725 19.021875Q151.725 21.021875 151.13126 22.178125Q150.5375 23.31875 149.38126 23.959375Q148.24063 24.584375 146.88126 24.584375Q144.69376 24.584375 143.35 23.19375Q142.02188 21.7875 142.02188 19.1625ZM143.81876 19.1625Q143.81876 21.1625 144.67813 22.146875Q145.55313 23.13125 146.88126 23.13125Q148.19376 23.13125 149.05313 22.146875Q149.92813 21.146875 149.92813 19.1Q149.92813 17.178125 149.05313 16.19375Q148.17813 15.19375 146.88126 15.19375Q145.55313 15.19375 144.67813 16.19375Q143.81876 17.178125 143.81876 19.1625ZM153.6625 24.35L153.6625 13.975L155.25626 13.975L155.25626 15.459375Q156.39688 13.740625 158.55313 13.740625Q159.49063 13.740625 160.27188 14.084375Q161.06876 14.4125 161.45938 14.959375Q161.85 15.50625 162.00626 16.25625Q162.1 16.75625 162.1 17.975L162.1 24.35L160.33438 24.35L160.33438 18.0375Q160.33438 16.959375 160.13126 16.428125Q159.92813 15.896875 159.39688 15.584375Q158.88126 15.271875 158.17813 15.271875Q157.05313 15.271875 156.24063 15.990625Q155.42813 16.69375 155.42813 18.678125L155.42813 24.35L153.6625 24.35ZM173.50626 22.771875L173.75626 24.334375Q173.02188 24.490625 172.42813 24.490625Q171.475 24.490625 170.94376 24.19375Q170.42813 23.88125 170.20938 23.396875Q169.99063 22.896875 169.99063 21.31875L169.99063 15.35L168.70938 15.35L168.70938 13.975L169.99063 13.975L169.99063 11.4125L171.74063 10.35L171.74063 13.975L173.50626 13.975L173.50626 15.35L171.74063 15.35L171.74063 21.4125Q171.74063 22.1625 171.83438 22.38125Q171.92813 22.584375 172.13126 22.725Q172.35 22.85 172.74063 22.85Q173.02188 22.85 173.50626 22.771875ZM175.35 25.209375L177.05313 25.459375Q177.1625 26.25625 177.64688 26.615625Q178.30313 27.1 179.44376 27.1Q180.6625 27.1 181.31876 26.615625Q181.99063 26.13125 182.225 25.25625Q182.36563 24.709375 182.35 22.990625Q181.19376 24.35 179.475 24.35Q177.33438 24.35 176.1625 22.803125Q174.99063 21.25625 174.99063 19.1Q174.99063 17.615625 175.52188 16.365625Q176.06876 15.115625 177.08438 14.428125Q178.11563 13.740625 179.49063 13.740625Q181.31876 13.740625 182.52188 15.225L182.52188 13.975L184.13126 13.975L184.13126 22.94375Q184.13126 25.365625 183.63126 26.365625Q183.14688 27.38125 182.06876 27.959375Q181.00626 28.553125 179.44376 28.553125Q177.6 28.553125 176.44376 27.725Q175.30313 26.896875 175.35 25.209375ZM176.80313 18.975Q176.80313 21.021875 177.61563 21.959375Q178.42813 22.896875 179.64688 22.896875Q180.85 22.896875 181.6625 21.959375Q182.49063 21.021875 182.49063 19.0375Q182.49063 17.13125 181.64688 16.1625Q180.80313 15.19375 179.61563 15.19375Q178.44376 15.19375 177.61563 16.146875Q176.80313 17.1 176.80313 18.975ZM188.88126 16.584375Q187.7875 16.178125 187.25626 15.44375Q186.74063 14.69375 186.74063 13.6625Q186.74063 12.1 187.86563 11.0375Q188.99063 9.975 190.85 9.975Q192.725 9.975 193.86563 11.06875Q195.00626 12.146875 195.00626 13.709375Q195.00626 14.709375 194.475 15.44375Q193.95938 16.178125 192.89688 16.584375Q194.225 17.021875 194.9125 17.975Q195.6 18.928125 195.6 20.25625Q195.6 22.1 194.2875 23.35Q192.99063 24.6 190.88126 24.6Q188.75626 24.6 187.45938 23.35Q186.1625 22.084375 186.1625 20.209375Q186.1625 18.81875 186.86563 17.88125Q187.58438 16.928125 188.88126 16.584375ZM188.5375 13.6Q188.5375 14.615625 189.19376 15.271875Q189.85 15.9125 190.88126 15.9125Q191.89688 15.9125 192.55313 15.271875Q193.20938 14.63125 193.20938 13.709375Q193.20938 12.740625 192.5375 12.084375Q191.86563 11.4125 190.86563 11.4125Q189.86563 11.4125 189.19376 12.06875Q188.5375 12.709375 188.5375 13.6ZM187.975 20.225Q187.975 20.975 188.31876 21.678125Q188.67813 22.38125 189.38126 22.771875Q190.08438 23.146875 190.89688 23.146875Q192.1625 23.146875 192.975 22.334375Q193.80313 21.521875 193.80313 20.271875Q193.80313 19.00625 192.95938 18.178125Q192.11563 17.35 190.83438 17.35Q189.6 17.35 188.7875 18.178125Q187.975 18.990625 187.975 20.225ZM203.80313 24.35L202.0375 24.35L202.0375 13.146875Q201.4125 13.75625 200.38126 14.365625Q199.35 14.959375 198.52188 15.271875L198.52188 13.56875Q200.00626 12.88125 201.1 11.896875Q202.20938 10.896875 202.6625 9.975L203.80313 9.975L203.80313 24.35ZM208.44376 21.0375L210.13126 20.88125Q210.35 22.06875 210.94376 22.615625Q211.55313 23.146875 212.50626 23.146875Q213.31876 23.146875 213.92813 22.7875Q214.5375 22.4125 214.92813 21.7875Q215.31876 21.1625 215.58438 20.115625Q215.85 19.053125 215.85 17.959375Q215.85 17.85 215.83438 17.615625Q215.30313 18.44375 214.39688 18.975Q213.49063 19.490625 212.4125 19.490625Q210.64688 19.490625 209.4125 18.209375Q208.17813 16.9125 208.17813 14.803125Q208.17813 12.63125 209.45938 11.303125Q210.75626 9.975 212.67813 9.975Q214.08438 9.975 215.24063 10.725Q216.39688 11.475 216.99063 12.865625Q217.6 14.25625 217.6 16.896875Q217.6 19.646875 216.99063 21.271875Q216.39688 22.896875 215.225 23.75625Q214.05313 24.6 212.475 24.6Q210.7875 24.6 209.725 23.6625Q208.6625 22.725 208.44376 21.0375ZM215.64688 14.725Q215.64688 13.209375 214.83438 12.31875Q214.0375 11.428125 212.89688 11.428125Q211.725 11.428125 210.85 12.396875Q209.99063 13.35 209.99063 14.865625Q209.99063 16.240625 210.80313 17.1Q211.63126 17.94375 212.85 17.94375Q214.06876 17.94375 214.85 17.1Q215.64688 16.240625 215.64688 14.725ZM228.30313 13.5375L226.55313 13.678125Q226.31876 12.646875 225.89688 12.178125Q225.17813 11.4125 224.13126 11.4125Q223.2875 11.4125 222.6625 11.88125Q221.83438 12.490625 221.35 13.6625Q220.86563 14.81875 220.85 16.959375Q221.49063 16.00625 222.39688 15.5375Q223.31876 15.06875 224.33438 15.06875Q226.08438 15.06875 227.31876 16.365625Q228.55313 17.646875 228.55313 19.69375Q228.55313 21.053125 227.975 22.209375Q227.39688 23.365625 226.38126 23.990625Q225.36563 24.6 224.06876 24.6Q221.88126 24.6 220.49063 22.990625Q219.1 21.365625 219.1 17.646875Q219.1 13.50625 220.63126 11.615625Q221.975 9.975 224.24063 9.975Q225.92813 9.975 227.00626 10.928125Q228.08438 11.865625 228.30313 13.5375ZM221.13126 19.709375Q221.13126 20.615625 221.50626 21.44375Q221.89688 22.271875 222.58438 22.709375Q223.2875 23.146875 224.0375 23.146875Q225.1625 23.146875 225.95938 22.25625Q226.75626 21.35 226.75626 19.803125Q226.75626 18.31875 225.95938 17.475Q225.17813 16.615625 223.975 16.615625Q222.7875 16.615625 221.95938 17.475Q221.13126 18.31875 221.13126 19.709375ZM240.50626 22.771875L240.75626 24.334375Q240.02188 24.490625 239.42813 24.490625Q238.475 24.490625 237.94376 24.19375Q237.42813 23.88125 237.20938 23.396875Q236.99063 22.896875 236.99063 21.31875L236.99063 15.35L235.70938 15.35L235.70938 13.975L236.99063 13.975L236.99063 11.4125L238.74063 10.35L238.74063 13.975L240.50626 13.975L240.50626 15.35L238.74063 15.35L238.74063 21.4125Q238.74063 22.1625 238.83438 22.38125Q238.92813 22.584375 239.13126 22.725Q239.35 22.85 239.74063 22.85Q240.02188 22.85 240.50626 22.771875ZM242.02188 19.1625Q242.02188 16.2875 243.61563 14.896875Q244.95938 13.740625 246.88126 13.740625Q249.02188 13.740625 250.36563 15.146875Q251.725 16.553125 251.725 19.021875Q251.725 21.021875 251.13126 22.178125Q250.5375 23.31875 249.38126 23.959375Q248.24063 24.584375 246.88126 24.584375Q244.69376 24.584375 243.35 23.19375Q242.02188 21.7875 242.02188 19.1625ZM243.81876 19.1625Q243.81876 21.1625 244.67813 22.146875Q245.55313 23.13125 246.88126 23.13125Q248.19376 23.13125 249.05313 22.146875Q249.92813 21.146875 249.92813 19.1Q249.92813 17.178125 249.05313 16.19375Q248.17813 15.19375 246.88126 15.19375Q245.55313 15.19375 244.67813 16.19375Q243.81876 17.178125 243.81876 19.1625ZM253.67813 24.35L253.67813 10.0375L255.44376 10.0375L255.44376 18.19375L259.6 13.975L261.86563 13.975L257.9125 17.81875L262.27188 24.35L260.1 24.35L256.67813 19.053125L255.44376 20.240625L255.44376 24.35L253.67813 24.35ZM270.77188 21.00625L272.58438 21.240625Q272.1625 22.81875 270.99063 23.709375Q269.83438 24.584375 268.02188 24.584375Q265.75626 24.584375 264.4125 23.19375Q263.08438 21.7875 263.08438 19.25625Q263.08438 16.63125 264.42813 15.19375Q265.77188 13.740625 267.92813 13.740625Q270.00626 13.740625 271.31876 15.1625Q272.64688 16.56875 272.64688 19.146875Q272.64688 19.303125 272.63126 19.615625L264.89688 19.615625Q264.99063 21.31875 265.86563 22.225Q266.74063 23.13125 268.0375 23.13125Q269.00626 23.13125 269.67813 22.63125Q270.36563 22.115625 270.77188 21.00625ZM264.99063 18.1625L270.7875 18.1625Q270.67813 16.865625 270.13126 16.209375Q269.2875 15.19375 267.94376 15.19375Q266.74063 15.19375 265.9125 16.00625Q265.08438 16.803125 264.99063 18.1625ZM274.6625 24.35L274.6625 13.975L276.25626 13.975L276.25626 15.459375Q277.39688 13.740625 279.55313 13.740625Q280.49063 13.740625 281.27188 14.084375Q282.06876 14.4125 282.45938 14.959375Q282.85 15.50625 283.00626 16.25625Q283.1 16.75625 283.1 17.975L283.1 24.35L281.33438 24.35L281.33438 18.0375Q281.33438 16.959375 281.13126 16.428125Q280.92813 15.896875 280.39688 15.584375Q279.88126 15.271875 279.17813 15.271875Q278.05313 15.271875 277.24063 15.990625Q276.42813 16.69375 276.42813 18.678125L276.42813 24.35L274.6625 24.35ZM283.35 24.6L287.50626 9.7875L288.9125 9.7875L284.77188 24.6L283.35 24.6ZM289.95938 21.25625L291.70938 20.975Q291.85 22.021875 292.52188 22.584375Q293.19376 23.13125 294.39688 23.13125Q295.6 23.13125 296.17813 22.646875Q296.77188 22.146875 296.77188 21.490625Q296.77188 20.896875 296.25626 20.553125Q295.89688 20.31875 294.45938 19.959375Q292.52188 19.459375 291.77188 19.115625Q291.0375 18.75625 290.64688 18.13125Q290.25626 17.490625 290.25626 16.725Q290.25626 16.0375 290.56876 15.44375Q290.89688 14.85 291.44376 14.459375Q291.85 14.1625 292.55313 13.959375Q293.27188 13.740625 294.08438 13.740625Q295.30313 13.740625 296.225 14.1Q297.14688 14.44375 297.58438 15.053125Q298.02188 15.646875 298.19376 16.646875L296.475 16.88125Q296.35 16.084375 295.7875 15.646875Q295.225 15.19375 294.20938 15.19375Q292.99063 15.19375 292.475 15.6Q291.95938 15.990625 291.95938 16.521875Q291.95938 16.865625 292.17813 17.146875Q292.38126 17.428125 292.85 17.615625Q293.11563 17.709375 294.39688 18.053125Q296.27188 18.553125 297.00626 18.88125Q297.74063 19.19375 298.1625 19.803125Q298.58438 20.396875 298.58438 21.303125Q298.58438 22.178125 298.06876 22.959375Q297.55313 23.740625 296.58438 24.1625Q295.61563 24.584375 294.39688 24.584375Q292.38126 24.584375 291.31876 23.740625Q290.25626 22.896875 289.95938 21.25625ZM307.77188 21.00625L309.58438 21.240625Q309.1625 22.81875 307.99063 23.709375Q306.83438 24.584375 305.02188 24.584375Q302.75626 24.584375 301.4125 23.19375Q300.08438 21.7875 300.08438 19.25625Q300.08438 16.63125 301.42813 15.19375Q302.77188 13.740625 304.92813 13.740625Q307.00626 13.740625 308.31876 15.1625Q309.64688 16.56875 309.64688 19.146875Q309.64688 19.303125 309.63126 19.615625L301.89688 19.615625Q301.99063 21.31875 302.86563 22.225Q303.74063 23.13125 305.0375 23.13125Q306.00626 23.13125 306.67813 22.63125Q307.36563 22.115625 307.77188 21.00625ZM301.99063 18.1625L307.7875 18.1625Q307.67813 16.865625 307.13126 16.209375Q306.2875 15.19375 304.94376 15.19375Q303.74063 15.19375 302.9125 16.00625Q302.08438 16.803125 301.99063 18.1625ZM318.44376 20.553125L320.1625 20.771875Q319.88126 22.56875 318.70938 23.584375Q317.55313 24.584375 315.85 24.584375Q313.725 24.584375 312.42813 23.19375Q311.13126 21.803125 311.13126 19.209375Q311.13126 17.521875 311.67813 16.271875Q312.24063 15.00625 313.38126 14.38125Q314.52188 13.740625 315.86563 13.740625Q317.55313 13.740625 318.61563 14.6Q319.69376 15.459375 320.00626 17.021875L318.2875 17.2875Q318.05313 16.240625 317.42813 15.725Q316.80313 15.19375 315.92813 15.19375Q314.6 15.19375 313.77188 16.146875Q312.94376 17.1 312.94376 19.146875Q312.94376 21.240625 313.74063 22.19375Q314.5375 23.13125 315.83438 23.13125Q316.86563 23.13125 317.55313 22.50625Q318.25626 21.865625 318.44376 20.553125ZM321.02188 19.1625Q321.02188 16.2875 322.61563 14.896875Q323.95938 13.740625 325.88126 13.740625Q328.02188 13.740625 329.36563 15.146875Q330.725 16.553125 330.725 19.021875Q330.725 21.021875 330.13126 22.178125Q329.5375 23.31875 328.38126 23.959375Q327.24063 24.584375 325.88126 24.584375Q323.69376 24.584375 322.35 23.19375Q321.02188 21.7875 321.02188 19.1625ZM322.81876 19.1625Q322.81876 21.1625 323.67813 22.146875Q324.55313 23.13125 325.88126 23.13125Q327.19376 23.13125 328.05313 22.146875Q328.92813 21.146875 328.92813 19.1Q328.92813 17.178125 328.05313 16.19375Q327.17813 15.19375 325.88126 15.19375Q324.55313 15.19375 323.67813 16.19375Q322.81876 17.178125 322.81876 19.1625ZM332.6625 24.35L332.6625 13.975L334.25626 13.975L334.25626 15.459375Q335.39688 13.740625 337.55313 13.740625Q338.49063 13.740625 339.27188 14.084375Q340.06876 14.4125 340.45938 14.959375Q340.85 15.50625 341.00626 16.25625Q341.1 16.75625 341.1 17.975L341.1 24.35L339.33438 24.35L339.33438 18.0375Q339.33438 16.959375 339.13126 16.428125Q338.92813 15.896875 338.39688 15.584375Q337.88126 15.271875 337.17813 15.271875Q336.05313 15.271875 335.24063 15.990625Q334.42813 16.69375 334.42813 18.678125L334.42813 24.35L332.6625 24.35ZM349.39688 24.35L349.39688 23.0375Q348.4125 24.584375 346.49063 24.584375Q345.25626 24.584375 344.20938 23.896875Q343.17813 23.209375 342.6 21.990625Q342.0375 20.771875 342.0375 19.178125Q342.0375 17.615625 342.55313 16.35Q343.06876 15.084375 344.1 14.4125Q345.14688 13.740625 346.4125 13.740625Q347.35 13.740625 348.08438 14.146875Q348.81876 14.5375 349.2875 15.1625L349.2875 10.0375L351.02188 10.0375L351.02188 24.35L349.39688 24.35ZM343.83438 19.178125Q343.83438 21.1625 344.67813 22.146875Q345.52188 23.13125 346.6625 23.13125Q347.81876 23.13125 348.61563 22.19375Q349.42813 21.25625 349.42813 19.31875Q349.42813 17.19375 348.6 16.19375Q347.7875 15.19375 346.58438 15.19375Q345.4125 15.19375 344.61563 16.1625Q343.83438 17.115625 343.83438 19.178125Z" fill-rule="nonzero"/></svg>