<svg version="1.1" viewBox="0.0 0.0 642.0 107.0" fill="none" stroke="none" stroke-linecap="square" stroke-miterlimit="10" width="642" height="107" xmlns:xlink="http://www.w3.org/1999/xlink" xmlns="http://www.w3.org/2000/svg"><path fill="#ffffff" d="M0 0L642.0 0L642.0 107.0L0 107.0L0 0Z" fill-rule="nonzero"/><path stroke="#333333" stroke-width="1.0" stroke-linecap="butt" d="M112.5 32.5L112.5 81.5" fill-rule="nonzero"/><path stroke="#cccccc" stroke-width="1.0" stroke-linecap="butt" d="M217.5 32.5L217.5 81.5" fill-rule="nonzero"/><path stroke="#cccccc" stroke-width="1.0" stroke-linecap="butt" d="M322.5 32.5L322.5 81.5" fill-rule="nonzero"/><path stroke="#cccccc" stroke-width="1.0" stroke-linecap="butt" d="M426.5 32.5L426.5 81.5" fill-rule="nonzero"/><path stroke="#cccccc" stroke-width="1.0" stroke-linecap="butt" d="M531.5 32.5L531.5 81.5" fill-rule="nonzero"/><path stroke="#cccccc" stroke-width="1.0" stroke-linecap="butt" d="M636.5 32.5L636.5 81.5" fill-rule="nonzero"/><clipPath id="id_0"><path d="M112.35 32.916668L636.65 32.916668L636.65 81.65L112.35 81.65L112.35 32.916668Z" clip-rule="nonzero"/></clipPath><path stroke="#000000" stroke-width="2.0" stroke-linecap="butt" stroke-opacity="0.0" clip-path="url(#id_0)" d="M112.0 54.0L112.0 41.0L322.0 41.0L322.0 54.0Z" fill-rule="nonzero"/><path fill="#38761d" clip-path="url(#id_0)" d="M112.0 54.0L112.0 41.0L322.0 41.0L322.0 54.0Z" fill-rule="nonzero"/><path stroke="#000000" stroke-width="2.0" stroke-linecap="butt" stroke-opacity="0.0" clip-path="url(#id_0)" d="M112.0 75.0L112.0 62.0L112.0 62.0L112.0 75.0Z" fill-rule="nonzero"/><path fill="#4285f4" clip-path="url(#id_0)" d="M112.0 75.0L112.0 62.0L112.0 62.0L112.0 75.0Z" fill-rule="nonzero"/><path stroke="#000000" stroke-width="2.0" stroke-linecap="butt" stroke-opacity="0.0" clip-path="url(#id_0)" d="M322.0 54.0L322.0 41.0L322.0 41.0L322.0 54.0Z" fill-rule="nonzero"/><path fill="#ea4335" clip-path="url(#id_0)" d="M322.0 54.0L322.0 41.0L322.0 41.0L322.0 54.0Z" fill-rule="nonzero"/><path stroke="#000000" stroke-width="2.0" stroke-linecap="butt" stroke-opacity="0.0" clip-path="url(#id_0)" d="M112.0 75.0L112.0 62.0L582.0 62.0C583.10455 62.0 584.0 62.89543 584.0 64.0L584.0 73.0C584.0 74.10457 583.10455 75.0 582.0 75.0Z" fill-rule="nonzero"/><path fill="#0b5394" clip-path="url(#id_0)" d="M112.0 75.0L112.0 62.0L582.0 62.0C583.10455 62.0 584.0 62.89543 584.0 64.0L584.0 73.0C584.0 74.10457 583.10455 75.0 582.0 75.0Z" fill-rule="nonzero"/><path stroke="#ffffff" stroke-width="3.0" stroke-linejoin="round" stroke-linecap="round" d="M340.36688 50.609375L340.36688 51.5L334.78876 51.5L334.78876 50.71875L337.58563 47.609375Q338.10126 47.03125 338.3825 46.640625Q338.66376 46.234375 338.77313 45.921875Q338.89813 45.59375 338.89813 45.265625Q338.89813 44.84375 338.72626 44.5Q338.55438 44.15625 338.21063 43.953125Q337.8825 43.734375 337.39813 43.734375Q336.83563 43.734375 336.46063 43.96875Q336.08563 44.1875 335.89813 44.578125Q335.71063 44.96875 335.71063 45.46875L334.61688 45.46875Q334.61688 44.75 334.92938 44.15625Q335.2575 43.5625 335.86688 43.203125Q336.49188 42.84375 337.39813 42.84375Q338.21063 42.84375 338.78876 43.140625Q339.36688 43.421875 339.66376 43.9375Q339.97626 44.4375 339.97626 45.125Q339.97626 45.5 339.85126 45.890625Q339.72626 46.265625 339.5075 46.65625Q339.28876 47.03125 338.99188 47.40625Q338.71063 47.765625 338.3825 48.125L336.08563 50.609375L340.36688 50.609375ZM347.1325 46.546875L347.1325 47.859375Q347.1325 48.90625 346.945 49.625Q346.7575 50.34375 346.39813 50.78125Q346.05438 51.21875 345.55438 51.421875Q345.07 51.625 344.445 51.625Q343.96063 51.625 343.53876 51.5Q343.11688 51.375 342.78876 51.109375Q342.46063 50.828125 342.22626 50.390625Q341.99188 49.953125 341.86688 49.328125Q341.74188 48.6875 341.74188 47.859375L341.74188 46.546875Q341.74188 45.5 341.92938 44.796875Q342.1325 44.09375 342.47626 43.65625Q342.83563 43.21875 343.32 43.03125Q343.82 42.84375 344.42938 42.84375Q344.92938 42.84375 345.35126 42.96875Q345.77313 43.09375 346.10126 43.359375Q346.42938 43.609375 346.64813 44.046875Q346.8825 44.46875 347.0075 45.09375Q347.1325 45.71875 347.1325 46.546875ZM346.03876 48.03125L346.03876 46.375Q346.03876 45.796875 345.97626 45.359375Q345.91376 44.921875 345.77313 44.609375Q345.64813 44.296875 345.445 44.109375Q345.2575 43.921875 345.0075 43.828125Q344.7575 43.734375 344.42938 43.734375Q344.05438 43.734375 343.74188 43.875Q343.445 44.015625 343.24188 44.328125Q343.03876 44.640625 342.92938 45.15625Q342.83563 45.65625 342.83563 46.375L342.83563 48.03125Q342.83563 48.609375 342.89813 49.046875Q342.97626 49.484375 343.10126 49.8125Q343.24188 50.125 343.42938 50.328125Q343.6325 50.53125 343.8825 50.625Q344.1325 50.71875 344.445 50.71875Q344.85126 50.71875 345.14813 50.578125Q345.445 50.421875 345.64813 50.09375Q345.85126 49.765625 345.945 49.265625Q346.03876 48.75 346.03876 48.03125ZM354.1325 46.546875L354.1325 47.859375Q354.1325 48.90625 353.945 49.625Q353.7575 50.34375 353.39813 50.78125Q353.05438 51.21875 352.55438 51.421875Q352.07 51.625 351.445 51.625Q350.96063 51.625 350.53876 51.5Q350.11688 51.375 349.78876 51.109375Q349.46063 50.828125 349.22626 50.390625Q348.99188 49.953125 348.86688 49.328125Q348.74188 48.6875 348.74188 47.859375L348.74188 46.546875Q348.74188 45.5 348.92938 44.796875Q349.1325 44.09375 349.47626 43.65625Q349.83563 43.21875 350.32 43.03125Q350.82 42.84375 351.42938 42.84375Q351.92938 42.84375 352.35126 42.96875Q352.77313 43.09375 353.10126 43.359375Q353.42938 43.609375 353.64813 44.046875Q353.8825 44.46875 354.0075 45.09375Q354.1325 45.71875 354.1325 46.546875ZM353.03876 48.03125L353.03876 46.375Q353.03876 45.796875 352.97626 45.359375Q352.91376 44.921875 352.77313 44.609375Q352.64813 44.296875 352.445 44.109375Q352.2575 43.921875 352.0075 43.828125Q351.7575 43.734375 351.42938 43.734375Q351.05438 43.734375 350.74188 43.875Q350.445 44.015625 350.24188 44.328125Q350.03876 44.640625 349.92938 45.15625Q349.83563 45.65625 349.83563 46.375L349.83563 48.03125Q349.83563 48.609375 349.89813 49.046875Q349.97626 49.484375 350.10126 49.8125Q350.24188 50.125 350.42938 50.328125Q350.6325 50.53125 350.8825 50.625Q351.1325 50.71875 351.445 50.71875Q351.85126 50.71875 352.14813 50.578125Q352.445 50.421875 352.64813 50.09375Q352.85126 49.765625 352.945 49.265625Q353.03876 48.75 353.03876 48.03125Z" fill-rule="nonzero"/><path fill="#38761d" d="M340.36688 50.609375L340.36688 51.5L334.78876 51.5L334.78876 50.71875L337.58563 47.609375Q338.10126 47.03125 338.3825 46.640625Q338.66376 46.234375 338.77313 45.921875Q338.89813 45.59375 338.89813 45.265625Q338.89813 44.84375 338.72626 44.5Q338.55438 44.15625 338.21063 43.953125Q337.8825 43.734375 337.39813 43.734375Q336.83563 43.734375 336.46063 43.96875Q336.08563 44.1875 335.89813 44.578125Q335.71063 44.96875 335.71063 45.46875L334.61688 45.46875Q334.61688 44.75 334.92938 44.15625Q335.2575 43.5625 335.86688 43.203125Q336.49188 42.84375 337.39813 42.84375Q338.21063 42.84375 338.78876 43.140625Q339.36688 43.421875 339.66376 43.9375Q339.97626 44.4375 339.97626 45.125Q339.97626 45.5 339.85126 45.890625Q339.72626 46.265625 339.5075 46.65625Q339.28876 47.03125 338.99188 47.40625Q338.71063 47.765625 338.3825 48.125L336.08563 50.609375L340.36688 50.609375ZM347.1325 46.546875L347.1325 47.859375Q347.1325 48.90625 346.945 49.625Q346.7575 50.34375 346.39813 50.78125Q346.05438 51.21875 345.55438 51.421875Q345.07 51.625 344.445 51.625Q343.96063 51.625 343.53876 51.5Q343.11688 51.375 342.78876 51.109375Q342.46063 50.828125 342.22626 50.390625Q341.99188 49.953125 341.86688 49.328125Q341.74188 48.6875 341.74188 47.859375L341.74188 46.546875Q341.74188 45.5 341.92938 44.796875Q342.1325 44.09375 342.47626 43.65625Q342.83563 43.21875 343.32 43.03125Q343.82 42.84375 344.42938 42.84375Q344.92938 42.84375 345.35126 42.96875Q345.77313 43.09375 346.10126 43.359375Q346.42938 43.609375 346.64813 44.046875Q346.8825 44.46875 347.0075 45.09375Q347.1325 45.71875 347.1325 46.546875ZM346.03876 48.03125L346.03876 46.375Q346.03876 45.796875 345.97626 45.359375Q345.91376 44.921875 345.77313 44.609375Q345.64813 44.296875 345.445 44.109375Q345.2575 43.921875 345.0075 43.828125Q344.7575 43.734375 344.42938 43.734375Q344.05438 43.734375 343.74188 43.875Q343.445 44.015625 343.24188 44.328125Q343.03876 44.640625 342.92938 45.15625Q342.83563 45.65625 342.83563 46.375L342.83563 48.03125Q342.83563 48.609375 342.89813 49.046875Q342.97626 49.484375 343.10126 49.8125Q343.24188 50.125 343.42938 50.328125Q343.6325 50.53125 343.8825 50.625Q344.1325 50.71875 344.445 50.71875Q344.85126 50.71875 345.14813 50.578125Q345.445 50.421875 345.64813 50.09375Q345.85126 49.765625 345.945 49.265625Q346.03876 48.75 346.03876 48.03125ZM354.1325 46.546875L354.1325 47.859375Q354.1325 48.90625 353.945 49.625Q353.7575 50.34375 353.39813 50.78125Q353.05438 51.21875 352.55438 51.421875Q352.07 51.625 351.445 51.625Q350.96063 51.625 350.53876 51.5Q350.11688 51.375 349.78876 51.109375Q349.46063 50.828125 349.22626 50.390625Q348.99188 49.953125 348.86688 49.328125Q348.74188 48.6875 348.74188 47.859375L348.74188 46.546875Q348.74188 45.5 348.92938 44.796875Q349.1325 44.09375 349.47626 43.65625Q349.83563 43.21875 350.32 43.03125Q350.82 42.84375 351.42938 42.84375Q351.92938 42.84375 352.35126 42.96875Q352.77313 43.09375 353.10126 43.359375Q353.42938 43.609375 353.64813 44.046875Q353.8825 44.46875 354.0075 45.09375Q354.1325 45.71875 354.1325 46.546875ZM353.03876 48.03125L353.03876 46.375Q353.03876 45.796875 352.97626 45.359375Q352.91376 44.921875 352.77313 44.609375Q352.64813 44.296875 352.445 44.109375Q352.2575 43.921875 352.0075 43.828125Q351.7575 43.734375 351.42938 43.734375Q351.05438 43.734375 350.74188 43.875Q350.445 44.015625 350.24188 44.328125Q350.03876 44.640625 349.92938 45.15625Q349.83563 45.65625 349.83563 46.375L349.83563 48.03125Q349.83563 48.609375 349.89813 49.046875Q349.97626 49.484375 350.10126 49.8125Q350.24188 50.125 350.42938 50.328125Q350.6325 50.53125 350.8825 50.625Q351.1325 50.71875 351.445 50.71875Q351.85126 50.71875 352.14813 50.578125Q352.445 50.421875 352.64813 50.09375Q352.85126 49.765625 352.945 49.265625Q353.03876 48.75 353.03876 48.03125Z" fill-rule="nonzero"/><path stroke="#ffffff" stroke-width="3.0" stroke-linejoin="round" stroke-linecap="round" d="M602.6887 69.625L602.6887 70.515625L596.5325 70.515625L596.5325 69.875L600.345 63.96875L601.2356 63.96875L600.2825 65.671875L597.76685 69.625L602.6887 69.625ZM601.5012 63.96875L601.5012 72.5L600.4231 72.5L600.4231 63.96875L601.5012 63.96875ZM605.2981 68.4375L604.4387 68.21875L604.8606 63.96875L609.2356 63.96875L609.2356 64.96875L605.7825 64.96875L605.51685 67.296875Q605.7512 67.15625 606.1106 67.046875Q606.4856 66.921875 606.95435 66.921875Q607.5325 66.921875 608.0012 67.125Q608.47 67.328125 608.7981 67.703125Q609.14185 68.078125 609.3137 68.609375Q609.4856 69.125 609.4856 69.78125Q609.4856 70.390625 609.3137 70.90625Q609.1575 71.421875 608.8137 71.8125Q608.4856 72.1875 607.97 72.40625Q607.47 72.625 606.7825 72.625Q606.26685 72.625 605.8137 72.484375Q605.3606 72.328125 604.9856 72.03125Q604.6262 71.734375 604.4075 71.296875Q604.1887 70.859375 604.1262 70.25L605.1575 70.25Q605.22 70.734375 605.4231 71.0625Q605.64185 71.390625 605.9856 71.5625Q606.32935 71.71875 606.7825 71.71875Q607.1731 71.71875 607.47 71.59375Q607.76685 71.453125 607.97 71.203125Q608.1887 70.953125 608.2981 70.59375Q608.4075 70.234375 608.4075 69.796875Q608.4075 69.390625 608.2825 69.046875Q608.1731 68.703125 607.95435 68.453125Q607.7356 68.1875 607.4231 68.046875Q607.1106 67.890625 606.6887 67.890625Q606.1575 67.890625 605.8762 68.046875Q605.595 68.1875 605.2981 68.4375ZM616.2825 67.546875L616.2825 68.859375Q616.2825 69.90625 616.095 70.625Q615.9075 71.34375 615.5481 71.78125Q615.20435 72.21875 614.70435 72.421875Q614.22 72.625 613.595 72.625Q613.1106 72.625 612.6887 72.5Q612.26685 72.375 611.9387 72.109375Q611.6106 71.828125 611.3762 71.390625Q611.14185 70.953125 611.01685 70.328125Q610.89185 69.6875 610.89185 68.859375L610.89185 67.546875Q610.89185 66.5 611.07935 65.796875Q611.2825 65.09375 611.6262 64.65625Q611.9856 64.21875 612.47 64.03125Q612.97 63.84375 613.57935 63.84375Q614.07935 63.84375 614.5012 63.96875Q614.9231 64.09375 615.2512 64.359375Q615.57935 64.609375 615.7981 65.046875Q616.0325 65.46875 616.1575 66.09375Q616.2825 66.71875 616.2825 67.546875ZM615.1887 69.03125L615.1887 67.375Q615.1887 66.796875 615.1262 66.359375Q615.0637 65.921875 614.9231 65.609375Q614.7981 65.296875 614.595 65.109375Q614.4075 64.921875 614.1575 64.828125Q613.9075 64.734375 613.57935 64.734375Q613.20435 64.734375 612.89185 64.875Q612.595 65.015625 612.39185 65.328125Q612.1887 65.640625 612.07935 66.15625Q611.9856 66.65625 611.9856 67.375L611.9856 69.03125Q611.9856 69.609375 612.0481 70.046875Q612.1262 70.484375 612.2512 70.8125Q612.39185 71.125 612.57935 71.328125Q612.7825 71.53125 613.0325 71.625Q613.2825 71.71875 613.595 71.71875Q614.0012 71.71875 614.2981 71.578125Q614.595 71.421875 614.7981 71.09375Q615.0012 70.765625 615.095 70.265625Q615.1887 69.75 615.1887 69.03125Z" fill-rule="nonzero"/><path fill="#0b5394" d="M602.6887 69.625L602.6887 70.515625L596.5325 70.515625L596.5325 69.875L600.345 63.96875L601.2356 63.96875L600.2825 65.671875L597.76685 69.625L602.6887 69.625ZM601.5012 63.96875L601.5012 72.5L600.4231 72.5L600.4231 63.96875L601.5012 63.96875ZM605.2981 68.4375L604.4387 68.21875L604.8606 63.96875L609.2356 63.96875L609.2356 64.96875L605.7825 64.96875L605.51685 67.296875Q605.7512 67.15625 606.1106 67.046875Q606.4856 66.921875 606.95435 66.921875Q607.5325 66.921875 608.0012 67.125Q608.47 67.328125 608.7981 67.703125Q609.14185 68.078125 609.3137 68.609375Q609.4856 69.125 609.4856 69.78125Q609.4856 70.390625 609.3137 70.90625Q609.1575 71.421875 608.8137 71.8125Q608.4856 72.1875 607.97 72.40625Q607.47 72.625 606.7825 72.625Q606.26685 72.625 605.8137 72.484375Q605.3606 72.328125 604.9856 72.03125Q604.6262 71.734375 604.4075 71.296875Q604.1887 70.859375 604.1262 70.25L605.1575 70.25Q605.22 70.734375 605.4231 71.0625Q605.64185 71.390625 605.9856 71.5625Q606.32935 71.71875 606.7825 71.71875Q607.1731 71.71875 607.47 71.59375Q607.76685 71.453125 607.97 71.203125Q608.1887 70.953125 608.2981 70.59375Q608.4075 70.234375 608.4075 69.796875Q608.4075 69.390625 608.2825 69.046875Q608.1731 68.703125 607.95435 68.453125Q607.7356 68.1875 607.4231 68.046875Q607.1106 67.890625 606.6887 67.890625Q606.1575 67.890625 605.8762 68.046875Q605.595 68.1875 605.2981 68.4375ZM616.2825 67.546875L616.2825 68.859375Q616.2825 69.90625 616.095 70.625Q615.9075 71.34375 615.5481 71.78125Q615.20435 72.21875 614.70435 72.421875Q614.22 72.625 613.595 72.625Q613.1106 72.625 612.6887 72.5Q612.26685 72.375 611.9387 72.109375Q611.6106 71.828125 611.3762 71.390625Q611.14185 70.953125 611.01685 70.328125Q610.89185 69.6875 610.89185 68.859375L610.89185 67.546875Q610.89185 66.5 611.07935 65.796875Q611.2825 65.09375 611.6262 64.65625Q611.9856 64.21875 612.47 64.03125Q612.97 63.84375 613.57935 63.84375Q614.07935 63.84375 614.5012 63.96875Q614.9231 64.09375 615.2512 64.359375Q615.57935 64.609375 615.7981 65.046875Q616.0325 65.46875 616.1575 66.09375Q616.2825 66.71875 616.2825 67.546875ZM615.1887 69.03125L615.1887 67.375Q615.1887 66.796875 615.1262 66.359375Q615.0637 65.921875 614.9231 65.609375Q614.7981 65.296875 614.595 65.109375Q614.4075 64.921875 614.1575 64.828125Q613.9075 64.734375 613.57935 64.734375Q613.20435 64.734375 612.89185 64.875Q612.595 65.015625 612.39185 65.328125Q612.1887 65.640625 612.07935 66.15625Q611.9856 66.65625 611.9856 67.375L611.9856 69.03125Q611.9856 69.609375 612.0481 70.046875Q612.1262 70.484375 612.2512 70.8125Q612.39185 71.125 612.57935 71.328125Q612.7825 71.53125 613.0325 71.625Q613.2825 71.71875 613.595 71.71875Q614.0012 71.71875 614.2981 71.578125Q614.595 71.421875 614.7981 71.09375Q615.0012 70.765625 615.095 70.265625Q615.1887 69.75 615.1887 69.03125Z" fill-rule="nonzero"/><path fill="#000000" d="M6.271875 50.91454L6.271875 42.32079L7.428125 42.32079L11.94375 49.07079L11.94375 42.32079L13.0375 42.32079L13.0375 50.91454L11.865625 50.91454L7.35 44.16454L7.35 50.91454L6.271875 50.91454ZM17.725 50.91454L14.396875 42.32079L15.63125 42.32079L17.865625 48.57079Q18.13125 49.32079 18.31875 49.97704Q18.521875 49.273914 18.7875 48.57079L21.1 42.32079L22.25625 42.32079L18.896875 50.91454L17.725 50.91454ZM22.475 50.91454L22.475 42.32079L23.6 42.32079L23.6 50.91454L22.475 50.91454ZM25.271875 50.91454L25.271875 42.32079L28.240625 42.32079Q29.240625 42.32079 29.771875 42.44579Q30.50625 42.617664 31.021875 43.055164Q31.709375 43.63329 32.0375 44.53954Q32.38125 45.430164 32.38125 46.57079Q32.38125 47.555164 32.146873 48.305164Q31.928125 49.055164 31.56875 49.555164Q31.209375 50.055164 30.771875 50.336414Q30.35 50.617664 29.75625 50.773914Q29.1625 50.91454 28.38125 50.91454L25.271875 50.91454ZM26.4125 49.898914L28.240625 49.898914Q29.1 49.898914 29.584375 49.742664Q30.06875 49.586414 30.35 49.28954Q30.75625 48.898914 30.975 48.211414Q31.209375 47.523914 31.209375 46.555164Q31.209375 45.211414 30.75625 44.492664Q30.31875 43.75829 29.69375 43.50829Q29.225 43.336414 28.225 43.336414L26.4125 43.336414L26.4125 49.898914ZM34.475 50.91454L34.475 42.32079L35.6 42.32079L35.6 50.91454L34.475 50.91454ZM36.334373 50.91454L39.63125 42.32079L40.85 42.32079L44.365623 50.91454L43.084373 50.91454L42.06875 48.305164L38.490623 48.305164L37.5375 50.91454L36.334373 50.91454ZM38.81875 47.38329L41.725 47.38329L40.834373 45.00829Q40.4125 43.930164 40.225 43.22704Q40.053123 44.055164 39.75625 44.867664L38.81875 47.38329ZM47.271873 50.91454L47.271873 42.32079L50.240623 42.32079Q51.240623 42.32079 51.771873 42.44579Q52.50625 42.617664 53.021873 43.055164Q53.709373 43.63329 54.0375 44.53954Q54.38125 45.430164 54.38125 46.57079Q54.38125 47.555164 54.146873 48.305164Q53.928123 49.055164 53.56875 49.555164Q53.209373 50.055164 52.771873 50.336414Q52.35 50.617664 51.75625 50.773914Q51.1625 50.91454 50.38125 50.91454L47.271873 50.91454ZM48.4125 49.898914L50.240623 49.898914Q51.1 49.898914 51.584373 49.742664Q52.06875 49.586414 52.35 49.28954Q52.75625 48.898914 52.975 48.211414Q53.209373 47.523914 53.209373 46.555164Q53.209373 45.211414 52.75625 44.492664Q52.31875 43.75829 51.69375 43.50829Q51.225 43.336414 50.225 43.336414L48.4125 43.336414L48.4125 49.898914ZM60.303123 47.53954L60.303123 46.53954L63.928123 46.523914L63.928123 49.711414Q63.1 50.38329 62.209373 50.72704Q61.31875 51.055164 60.38125 51.055164Q59.115623 51.055164 58.06875 50.523914Q57.0375 49.97704 56.50625 48.961414Q55.990623 47.930164 55.990623 46.66454Q55.990623 45.398914 56.50625 44.32079Q57.0375 43.22704 58.021873 42.711414Q59.00625 42.180164 60.2875 42.180164Q61.225 42.180164 61.975 42.47704Q62.725 42.773914 63.146873 43.32079Q63.584373 43.85204 63.803123 44.72704L62.7875 45.00829Q62.584373 44.35204 62.2875 43.97704Q62.00625 43.60204 61.475 43.38329Q60.94375 43.148914 60.303123 43.148914Q59.521873 43.148914 58.94375 43.38329Q58.38125 43.617664 58.021873 44.00829Q57.678123 44.398914 57.490623 44.867664Q57.1625 45.66454 57.1625 46.586414Q57.1625 47.742664 57.553123 48.523914Q57.959373 49.28954 58.709373 49.66454Q59.459373 50.03954 60.31875 50.03954Q61.053123 50.03954 61.75625 49.75829Q62.459373 49.461414 62.81875 49.148914L62.81875 47.53954L60.303123 47.53954ZM64.39687 50.91454L67.725 46.430164L64.80312 42.32079L66.14687 42.32079L67.70937 44.523914Q68.19375 45.211414 68.39687 45.586414Q68.69375 45.117664 69.08437 44.60204L70.80312 42.32079L72.0375 42.32079L69.02187 46.367664L72.27187 50.91454L70.86562 50.91454L68.70937 47.85204Q68.52187 47.586414 68.33437 47.273914Q68.05312 47.742664 67.92812 47.91454L65.77187 50.91454L64.39687 50.91454ZM74.89687 48.148914L75.95937 48.055164Q76.0375 48.711414 76.31875 49.117664Q76.6 49.523914 77.17812 49.78954Q77.77187 50.03954 78.50625 50.03954Q79.14687 50.03954 79.64687 49.85204Q80.14687 49.648914 80.38125 49.32079Q80.63125 48.97704 80.63125 48.586414Q80.63125 48.180164 80.39687 47.88329Q80.1625 47.57079 79.63125 47.367664Q79.27187 47.22704 78.08437 46.94579Q76.9125 46.66454 76.44375 46.41454Q75.81875 46.086414 75.52187 45.617664Q75.225 45.13329 75.225 44.53954Q75.225 43.898914 75.58437 43.336414Q75.95937 42.75829 76.6625 42.47704Q77.38125 42.180164 78.24062 42.180164Q79.19375 42.180164 79.92812 42.492664Q80.6625 42.78954 81.05312 43.398914Q81.44375 43.992664 81.475 44.742664L80.38125 44.82079Q80.2875 44.00829 79.77187 43.60204Q79.27187 43.180164 78.2875 43.180164Q77.25625 43.180164 76.7875 43.555164Q76.31875 43.930164 76.31875 44.461414Q76.31875 44.930164 76.64687 45.22704Q76.975 45.523914 78.35 45.836414Q79.74062 46.148914 80.25625 46.38329Q81.00625 46.742664 81.36562 47.273914Q81.725 47.78954 81.725 48.492664Q81.725 49.180164 81.33437 49.78954Q80.94375 50.38329 80.20937 50.72704Q79.475 51.055164 78.55312 51.055164Q77.38125 51.055164 76.58437 50.72704Q75.80312 50.38329 75.35 49.69579Q74.9125 49.00829 74.89687 48.148914ZM83.14687 53.305164L83.14687 44.69579L84.1 44.69579L84.1 45.492664Q84.44375 45.023914 84.86562 44.78954Q85.30312 44.555164 85.9125 44.555164Q86.70937 44.555164 87.31875 44.961414Q87.92812 45.367664 88.225 46.117664Q88.5375 46.867664 88.5375 47.75829Q88.5375 48.711414 88.19375 49.47704Q87.86562 50.242664 87.20937 50.648914Q86.55312 51.055164 85.83437 51.055164Q85.30312 51.055164 84.88125 50.836414Q84.45937 50.60204 84.19375 50.273914L84.19375 53.305164L83.14687 53.305164ZM84.1 47.836414Q84.1 49.03954 84.58437 49.617664Q85.06875 50.180164 85.75625 50.180164Q86.45937 50.180164 86.95937 49.586414Q87.45937 48.992664 87.45937 47.742664Q87.45937 46.555164 86.975 45.97704Q86.49062 45.38329 85.80312 45.38329Q85.13125 45.38329 84.61562 46.00829Q84.1 46.63329 84.1 47.836414ZM94.20937 50.148914Q93.61562 50.648914 93.06875 50.85204Q92.5375 51.055164 91.9125 51.055164Q90.88125 51.055164 90.33437 50.555164Q89.7875 50.055164 89.7875 49.273914Q89.7875 48.82079 89.99062 48.44579Q90.19375 48.055164 90.5375 47.836414Q90.88125 47.60204 91.30312 47.492664Q91.6 47.398914 92.24062 47.32079Q93.50625 47.180164 94.11562 46.961414Q94.11562 46.742664 94.11562 46.69579Q94.11562 46.03954 93.81875 45.773914Q93.4125 45.430164 92.61562 45.430164Q91.88125 45.430164 91.52187 45.69579Q91.1625 45.94579 90.99062 46.60204L89.95937 46.461414Q90.1 45.805164 90.42812 45.398914Q90.75625 44.992664 91.36562 44.773914Q91.975 44.555164 92.77187 44.555164Q93.56875 44.555164 94.06875 44.742664Q94.56875 44.930164 94.80312 45.211414Q95.0375 45.492664 95.13125 45.930164Q95.17812 46.19579 95.17812 46.898914L95.17812 48.305164Q95.17812 49.773914 95.24062 50.16454Q95.31875 50.555164 95.52187 50.91454L94.4125 50.91454Q94.25625 50.586414 94.20937 50.148914ZM94.11562 47.78954Q93.5375 48.023914 92.39687 48.19579Q91.74062 48.28954 91.475 48.41454Q91.20937 48.523914 91.05312 48.742664Q90.9125 48.961414 90.9125 49.242664Q90.9125 49.66454 91.225 49.94579Q91.55312 50.22704 92.1625 50.22704Q92.77187 50.22704 93.24062 49.961414Q93.725 49.69579 93.94375 49.22704Q94.11562 48.867664 94.11562 48.180164L94.11562 47.78954ZM97.13125 50.91454L97.13125 44.69579L98.08437 44.69579L98.08437 45.63329Q98.44375 44.97704 98.74062 44.773914Q99.05312 44.555164 99.42812 44.555164Q99.95937 44.555164 100.50625 44.88329L100.14687 45.867664Q99.75625 45.63329 99.38125 45.63329Q99.02187 45.63329 98.74062 45.85204Q98.475 46.055164 98.36562 46.430164Q98.17812 46.992664 98.17812 47.648914L98.17812 50.91454L97.13125 50.91454ZM101.14687 50.91454L101.14687 42.32079L102.20937 42.32079L102.20937 47.22704L104.69375 44.69579L106.06875 44.69579L103.67812 46.992664L106.30312 50.91454L105.00625 50.91454L102.94375 47.72704L102.20937 48.44579L102.20937 50.91454L101.14687 50.91454Z" fill-rule="nonzero"/><path fill="#000000" d="M8.271875 71.65213L8.271875 63.05838L11.521875 63.05838Q12.365625 63.05838 12.81875 63.136505Q13.459375 63.24588 13.88125 63.542755Q14.31875 63.83963 14.56875 64.37088Q14.834375 64.90213 14.834375 65.542755Q14.834375 66.636505 14.13125 67.40213Q13.44375 68.15213 11.615625 68.15213L9.4125 68.15213L9.4125 71.65213L8.271875 71.65213ZM9.4125 67.15213L11.63125 67.15213Q12.740625 67.15213 13.19375 66.74588Q13.6625 66.324005 13.6625 65.574005Q13.6625 65.042755 13.38125 64.667755Q13.115625 64.27713 12.678125 64.15213Q12.38125 64.074005 11.615625 64.074005L9.4125 64.074005L9.4125 67.15213ZM20.396875 69.65213L21.490625 69.77713Q21.240625 70.730255 20.5375 71.261505Q19.834375 71.792755 18.75625 71.792755Q17.396875 71.792755 16.584375 70.949005Q15.7875 70.105255 15.7875 68.58963Q15.7875 67.02713 16.6 66.167755Q17.4125 65.292755 18.69375 65.292755Q19.94375 65.292755 20.725 66.136505Q21.521875 66.980255 21.521875 68.52713Q21.521875 68.62088 21.521875 68.80838L16.88125 68.80838Q16.94375 69.83963 17.459375 70.386505Q17.975 70.917755 18.75625 70.917755Q19.334375 70.917755 19.740625 70.62088Q20.1625 70.30838 20.396875 69.65213ZM16.94375 67.949005L20.4125 67.949005Q20.35 67.15213 20.021875 66.761505Q19.50625 66.15213 18.709375 66.15213Q17.975 66.15213 17.475 66.636505Q16.990625 67.12088 16.94375 67.949005ZM23.146875 71.65213L23.146875 65.43338L24.084375 65.43338L24.084375 66.30838Q24.771875 65.292755 26.06875 65.292755Q26.63125 65.292755 27.1 65.49588Q27.584375 65.699005 27.81875 66.02713Q28.053125 66.355255 28.146875 66.792755Q28.19375 67.08963 28.19375 67.824005L28.19375 71.65213L27.146875 71.65213L27.146875 67.87088Q27.146875 67.21463 27.021875 66.90213Q26.896875 66.58963 26.584375 66.40213Q26.271875 66.199005 25.85 66.199005Q25.178125 66.199005 24.678125 66.636505Q24.19375 67.05838 24.19375 68.24588L24.19375 71.65213L23.146875 71.65213ZM32.44375 70.71463L32.6 71.636505Q32.146873 71.730255 31.803125 71.730255Q31.225 71.730255 30.9125 71.55838Q30.6 71.37088 30.459375 71.074005Q30.334375 70.77713 30.334375 69.824005L30.334375 66.24588L29.56875 66.24588L29.56875 65.43338L30.334375 65.43338L30.334375 63.886505L31.38125 63.261505L31.38125 65.43338L32.44375 65.43338L32.44375 66.24588L31.38125 66.24588L31.38125 69.886505Q31.38125 70.33963 31.428125 70.46463Q31.490625 70.58963 31.615625 70.667755Q31.740625 70.74588 31.975 70.74588Q32.1625 70.74588 32.44375 70.71463ZM37.209373 70.886505Q36.615623 71.386505 36.06875 71.58963Q35.5375 71.792755 34.9125 71.792755Q33.88125 71.792755 33.334373 71.292755Q32.7875 70.792755 32.7875 70.011505Q32.7875 69.55838 32.990623 69.18338Q33.19375 68.792755 33.5375 68.574005Q33.88125 68.33963 34.303123 68.230255Q34.6 68.136505 35.240623 68.05838Q36.50625 67.917755 37.115623 67.699005Q37.115623 67.480255 37.115623 67.43338Q37.115623 66.77713 36.81875 66.511505Q36.4125 66.167755 35.615623 66.167755Q34.88125 66.167755 34.521873 66.43338Q34.1625 66.68338 33.990623 67.33963L32.959373 67.199005Q33.1 66.542755 33.428123 66.136505Q33.75625 65.730255 34.365623 65.511505Q34.975 65.292755 35.771873 65.292755Q36.56875 65.292755 37.06875 65.480255Q37.56875 65.667755 37.803123 65.949005Q38.0375 66.230255 38.13125 66.667755Q38.178123 66.93338 38.178123 67.636505L38.178123 69.042755Q38.178123 70.511505 38.240623 70.90213Q38.31875 71.292755 38.521873 71.65213L37.4125 71.65213Q37.25625 71.324005 37.209373 70.886505ZM37.115623 68.52713Q36.5375 68.761505 35.396873 68.93338Q34.740623 69.02713 34.475 69.15213Q34.209373 69.261505 34.053123 69.480255Q33.9125 69.699005 33.9125 69.980255Q33.9125 70.40213 34.225 70.68338Q34.553123 70.96463 35.1625 70.96463Q35.771873 70.96463 36.240623 70.699005Q36.725 70.43338 36.94375 69.96463Q37.115623 69.605255 37.115623 68.917755L37.115623 68.52713ZM39.725 69.074005L39.725 68.011505L42.975 68.011505L42.975 69.074005L39.725 69.074005ZM48.303123 68.27713L48.303123 67.27713L51.928123 67.261505L51.928123 70.449005Q51.1 71.12088 50.209373 71.46463Q49.31875 71.792755 48.38125 71.792755Q47.115623 71.792755 46.06875 71.261505Q45.0375 70.71463 44.50625 69.699005Q43.990623 68.667755 43.990623 67.40213Q43.990623 66.136505 44.50625 65.05838Q45.0375 63.96463 46.021873 63.449005Q47.00625 62.917755 48.2875 62.917755Q49.225 62.917755 49.975 63.21463Q50.725 63.511505 51.146873 64.05838Q51.584373 64.58963 51.803123 65.46463L50.7875 65.74588Q50.584373 65.08963 50.2875 64.71463Q50.00625 64.33963 49.475 64.12088Q48.94375 63.886505 48.303123 63.886505Q47.521873 63.886505 46.94375 64.12088Q46.38125 64.355255 46.021873 64.74588Q45.678123 65.136505 45.490623 65.605255Q45.1625 66.40213 45.1625 67.324005Q45.1625 68.480255 45.553123 69.261505Q45.959373 70.02713 46.709373 70.40213Q47.459373 70.77713 48.31875 70.77713Q49.053123 70.77713 49.75625 70.49588Q50.459373 70.199005 50.81875 69.886505L50.81875 68.27713L48.303123 68.27713ZM53.271873 71.65213L53.271873 63.05838L56.521873 63.05838Q57.365623 63.05838 57.81875 63.136505Q58.459373 63.24588 58.88125 63.542755Q59.31875 63.83963 59.56875 64.37088Q59.834373 64.90213 59.834373 65.542755Q59.834373 66.636505 59.13125 67.40213Q58.44375 68.15213 56.615623 68.15213L54.4125 68.15213L54.4125 71.65213L53.271873 71.65213ZM54.4125 67.15213L56.63125 67.15213Q57.740623 67.15213 58.19375 66.74588Q58.6625 66.324005 58.6625 65.574005Q58.6625 65.042755 58.38125 64.667755Q58.115623 64.27713 57.678123 64.15213Q57.38125 64.074005 56.615623 64.074005L54.4125 64.074005L54.4125 67.15213ZM66.9125 63.05838L68.05312 63.05838L68.05312 68.02713Q68.05312 69.324005 67.75625 70.08963Q67.45937 70.83963 66.69375 71.324005Q65.92812 71.792755 64.69375 71.792755Q63.490623 71.792755 62.709373 71.386505Q61.94375 70.96463 61.615623 70.18338Q61.2875 69.386505 61.2875 68.02713L61.2875 63.05838L62.428123 63.05838L62.428123 68.011505Q62.428123 69.136505 62.63125 69.667755Q62.85 70.199005 63.35 70.49588Q63.865623 70.77713 64.6 70.77713Q65.85 70.77713 66.38125 70.21463Q66.9125 69.636505 66.9125 68.011505L66.9125 63.05838ZM72.725 69.792755L73.75625 69.636505Q73.85 70.261505 74.24062 70.58963Q74.64687 70.917755 75.38125 70.917755Q76.1 70.917755 76.44375 70.636505Q76.80312 70.33963 76.80312 69.93338Q76.80312 69.574005 76.49062 69.37088Q76.27187 69.230255 75.4125 69.011505Q74.25625 68.71463 73.80312 68.511505Q73.36562 68.292755 73.13125 67.917755Q72.89687 67.542755 72.89687 67.074005Q72.89687 66.667755 73.08437 66.30838Q73.27187 65.949005 73.6 65.71463Q73.85 65.542755 74.27187 65.417755Q74.69375 65.292755 75.19375 65.292755Q75.9125 65.292755 76.45937 65.511505Q77.02187 65.71463 77.2875 66.074005Q77.55312 66.43338 77.64687 67.02713L76.61562 67.167755Q76.55312 66.699005 76.20937 66.43338Q75.88125 66.15213 75.25625 66.15213Q74.5375 66.15213 74.225 66.40213Q73.9125 66.636505 73.9125 66.96463Q73.9125 67.167755 74.0375 67.324005Q74.17812 67.49588 74.44375 67.605255Q74.6 67.667755 75.38125 67.87088Q76.50625 68.18338 76.94375 68.37088Q77.38125 68.55838 77.63125 68.917755Q77.88125 69.27713 77.88125 69.824005Q77.88125 70.355255 77.56875 70.824005Q77.27187 71.27713 76.69375 71.542755Q76.11562 71.792755 75.38125 71.792755Q74.1625 71.792755 73.52187 71.292755Q72.89687 70.77713 72.725 69.792755ZM84.39687 69.65213L85.49062 69.77713Q85.24062 70.730255 84.5375 71.261505Q83.83437 71.792755 82.75625 71.792755Q81.39687 71.792755 80.58437 70.949005Q79.7875 70.105255 79.7875 68.58963Q79.7875 67.02713 80.6 66.167755Q81.4125 65.292755 82.69375 65.292755Q83.94375 65.292755 84.725 66.136505Q85.52187 66.980255 85.52187 68.52713Q85.52187 68.62088 85.52187 68.80838L80.88125 68.80838Q80.94375 69.83963 81.45937 70.386505Q81.975 70.917755 82.75625 70.917755Q83.33437 70.917755 83.74062 70.62088Q84.1625 70.30838 84.39687 69.65213ZM80.94375 67.949005L84.4125 67.949005Q84.35 67.15213 84.02187 66.761505Q83.50625 66.15213 82.70937 66.15213Q81.975 66.15213 81.475 66.636505Q80.99062 67.12088 80.94375 67.949005ZM87.13125 71.65213L87.13125 65.43338L88.08437 65.43338L88.08437 66.37088Q88.44375 65.71463 88.74062 65.511505Q89.05312 65.292755 89.42812 65.292755Q89.95937 65.292755 90.50625 65.62088L90.14687 66.605255Q89.75625 66.37088 89.38125 66.37088Q89.02187 66.37088 88.74062 66.58963Q88.475 66.792755 88.36562 67.167755Q88.17812 67.730255 88.17812 68.386505L88.17812 71.65213L87.13125 71.65213ZM92.86562 71.65213L90.50625 65.43338L91.61562 65.43338L92.95937 69.15213Q93.1625 69.761505 93.35 70.40213Q93.49062 69.917755 93.74062 69.230255L95.13125 65.43338L96.20937 65.43338L93.85 71.65213L92.86562 71.65213ZM100.39687 69.65213L101.49062 69.77713Q101.24062 70.730255 100.5375 71.261505Q99.83437 71.792755 98.75625 71.792755Q97.39687 71.792755 96.58437 70.949005Q95.7875 70.105255 95.7875 68.58963Q95.7875 67.02713 96.6 66.167755Q97.4125 65.292755 98.69375 65.292755Q99.94375 65.292755 100.725 66.136505Q101.52187 66.980255 101.52187 68.52713Q101.52187 68.62088 101.52187 68.80838L96.88125 68.80838Q96.94375 69.83963 97.45937 70.386505Q97.975 70.917755 98.75625 70.917755Q99.33437 70.917755 99.74062 70.62088Q100.1625 70.30838 100.39687 69.65213ZM96.94375 67.949005L100.4125 67.949005Q100.35 67.15213 100.02187 66.761505Q99.50625 66.15213 98.70937 66.15213Q97.975 66.15213 97.475 66.636505Q96.99062 67.12088 96.94375 67.949005ZM103.13125 71.65213L103.13125 65.43338L104.08437 65.43338L104.08437 66.37088Q104.44375 65.71463 104.74062 65.511505Q105.05312 65.292755 105.42812 65.292755Q105.95937 65.292755 106.50625 65.62088L106.14687 66.605255Q105.75625 66.37088 105.38125 66.37088Q105.02187 66.37088 104.74062 66.58963Q104.475 66.792755 104.36562 67.167755Q104.17812 67.730255 104.17812 68.386505L104.17812 71.65213L103.13125 71.65213Z" fill-rule="nonzero"/><path fill="#000000" d="M109.35 94.41563Q109.35 92.88438 109.6625 91.9625Q109.975 91.025 110.58437 90.525Q111.20937 90.025 112.14687 90.025Q112.83437 90.025 113.35 90.30625Q113.88125 90.5875 114.225 91.11875Q114.56875 91.63438 114.75625 92.38438Q114.94375 93.13438 114.94375 94.41563Q114.94375 95.93125 114.63125 96.85313Q114.33437 97.775 113.70937 98.29063Q113.1 98.79063 112.14687 98.79063Q110.9125 98.79063 110.19375 97.9Q109.35 96.8375 109.35 94.41563ZM110.42812 94.41563Q110.42812 96.525 110.92812 97.22813Q111.42812 97.93125 112.14687 97.93125Q112.88125 97.93125 113.36562 97.22813Q113.86562 96.525 113.86562 94.41563Q113.86562 92.29063 113.36562 91.60313Q112.88125 90.9 112.13125 90.9Q111.4125 90.9 110.975 91.50938Q110.42812 92.29063 110.42812 94.41563Z" fill-rule="nonzero"/><path fill="#000000" d="M211.17876 98.65L210.13188 98.65L210.13188 91.93125Q209.74126 92.29063 209.11626 92.66563Q208.50688 93.025 208.0225 93.19688L208.0225 92.18125Q208.8975 91.75938 209.55376 91.18125Q210.22563 90.5875 210.50688 90.025L211.17876 90.025L211.17876 98.65ZM214.21 94.41563Q214.21 92.88438 214.5225 91.9625Q214.835 91.025 215.44438 90.525Q216.06938 90.025 217.00688 90.025Q217.69438 90.025 218.21 90.30625Q218.74126 90.5875 219.085 91.11875Q219.42876 91.63438 219.61626 92.38438Q219.80376 93.13438 219.80376 94.41563Q219.80376 95.93125 219.49126 96.85313Q219.19438 97.775 218.56938 98.29063Q217.96 98.79063 217.00688 98.79063Q215.7725 98.79063 215.05376 97.9Q214.21 96.8375 214.21 94.41563ZM215.28813 94.41563Q215.28813 96.525 215.78813 97.22813Q216.28813 97.93125 217.00688 97.93125Q217.74126 97.93125 218.22563 97.22813Q218.72563 96.525 218.72563 94.41563Q218.72563 92.29063 218.22563 91.60313Q217.74126 90.9 216.99126 90.9Q216.2725 90.9 215.835 91.50938Q215.28813 92.29063 215.28813 94.41563ZM221.21 94.41563Q221.21 92.88438 221.5225 91.9625Q221.835 91.025 222.44438 90.525Q223.06938 90.025 224.00688 90.025Q224.69438 90.025 225.21 90.30625Q225.74126 90.5875 226.085 91.11875Q226.42876 91.63438 226.61626 92.38438Q226.80376 93.13438 226.80376 94.41563Q226.80376 95.93125 226.49126 96.85313Q226.19438 97.775 225.56938 98.29063Q224.96 98.79063 224.00688 98.79063Q222.7725 98.79063 222.05376 97.9Q221.21 96.8375 221.21 94.41563ZM222.28813 94.41563Q222.28813 96.525 222.78813 97.22813Q223.28813 97.93125 224.00688 97.93125Q224.74126 97.93125 225.22563 97.22813Q225.72563 96.525 225.72563 94.41563Q225.72563 92.29063 225.22563 91.60313Q224.74126 90.9 223.99126 90.9Q223.2725 90.9 222.835 91.50938Q222.28813 92.29063 222.28813 94.41563Z" fill-rule="nonzero"/><path fill="#000000" d="M317.61688 97.63438L317.61688 98.65L311.92938 98.65Q311.92938 98.275 312.05438 97.91563Q312.27313 97.3375 312.74188 96.775Q313.22626 96.2125 314.1325 95.47813Q315.53876 94.32188 316.02313 93.65Q316.52313 92.97813 316.52313 92.38438Q316.52313 91.75938 316.07 91.3375Q315.61688 90.9 314.89813 90.9Q314.1325 90.9 313.67938 91.35313Q313.22626 91.80625 313.21063 92.61875L312.1325 92.50938Q312.24188 91.29063 312.96063 90.66563Q313.695 90.025 314.92938 90.025Q316.16376 90.025 316.8825 90.7125Q317.60126 91.4 317.60126 92.41563Q317.60126 92.93125 317.3825 93.43125Q317.17938 93.91563 316.67938 94.47813Q316.195 95.025 315.07 95.97813Q314.11688 96.775 313.83563 97.07188Q313.57 97.35313 313.39813 97.63438L317.61688 97.63438ZM319.07 94.41563Q319.07 92.88438 319.3825 91.9625Q319.695 91.025 320.30438 90.525Q320.92938 90.025 321.86688 90.025Q322.55438 90.025 323.07 90.30625Q323.60126 90.5875 323.945 91.11875Q324.28876 91.63438 324.47626 92.38438Q324.66376 93.13438 324.66376 94.41563Q324.66376 95.93125 324.35126 96.85313Q324.05438 97.775 323.42938 98.29063Q322.82 98.79063 321.86688 98.79063Q320.6325 98.79063 319.91376 97.9Q319.07 96.8375 319.07 94.41563ZM320.14813 94.41563Q320.14813 96.525 320.64813 97.22813Q321.14813 97.93125 321.86688 97.93125Q322.60126 97.93125 323.08563 97.22813Q323.58563 96.525 323.58563 94.41563Q323.58563 92.29063 323.08563 91.60313Q322.60126 90.9 321.85126 90.9Q321.1325 90.9 320.695 91.50938Q320.14813 92.29063 320.14813 94.41563ZM326.07 94.41563Q326.07 92.88438 326.3825 91.9625Q326.695 91.025 327.30438 90.525Q327.92938 90.025 328.86688 90.025Q329.55438 90.025 330.07 90.30625Q330.60126 90.5875 330.945 91.11875Q331.28876 91.63438 331.47626 92.38438Q331.66376 93.13438 331.66376 94.41563Q331.66376 95.93125 331.35126 96.85313Q331.05438 97.775 330.42938 98.29063Q329.82 98.79063 328.86688 98.79063Q327.6325 98.79063 326.91376 97.9Q326.07 96.8375 326.07 94.41563ZM327.14813 94.41563Q327.14813 96.525 327.64813 97.22813Q328.14813 97.93125 328.86688 97.93125Q329.60126 97.93125 330.08563 97.22813Q330.58563 96.525 330.58563 94.41563Q330.58563 92.29063 330.08563 91.60313Q329.60126 90.9 328.85126 90.9Q328.1325 90.9 327.695 91.50938Q327.14813 92.29063 327.14813 94.41563Z" fill-rule="nonzero"/><path fill="#000000" d="M416.93 96.38438L417.9925 96.24375Q418.16437 97.13438 418.60187 97.54063Q419.03937 97.93125 419.66437 97.93125Q420.41437 97.93125 420.93 97.41563Q421.44562 96.9 421.44562 96.13438Q421.44562 95.41563 420.96124 94.94688Q420.4925 94.4625 419.75812 94.4625Q419.46124 94.4625 419.00812 94.5875L419.13312 93.65Q419.2425 93.66563 419.305 93.66563Q419.97687 93.66563 420.50812 93.32188Q421.055 92.9625 421.055 92.22813Q421.055 91.65 420.66437 91.275Q420.27374 90.88438 419.64874 90.88438Q419.03937 90.88438 418.6175 91.275Q418.21124 91.66563 418.10187 92.43125L417.03937 92.24375Q417.22687 91.19688 417.91437 90.61875Q418.60187 90.025 419.6175 90.025Q420.32062 90.025 420.91437 90.3375Q421.50812 90.63438 421.82062 91.15Q422.13312 91.66563 422.13312 92.25938Q422.13312 92.80625 421.83624 93.275Q421.53937 93.72813 420.96124 93.99375Q421.71124 94.16563 422.13312 94.72813Q422.555 95.275 422.555 96.11875Q422.555 97.24375 421.72687 98.025Q420.91437 98.80625 419.66437 98.80625Q418.53937 98.80625 417.78937 98.13438Q417.03937 97.44688 416.93 96.38438ZM423.93 94.41563Q423.93 92.88438 424.2425 91.9625Q424.555 91.025 425.16437 90.525Q425.78937 90.025 426.72687 90.025Q427.41437 90.025 427.93 90.30625Q428.46124 90.5875 428.805 91.11875Q429.14874 91.63438 429.33624 92.38438Q429.52374 93.13438 429.52374 94.41563Q429.52374 95.93125 429.21124 96.85313Q428.91437 97.775 428.28937 98.29063Q427.68 98.79063 426.72687 98.79063Q425.4925 98.79063 424.77374 97.9Q423.93 96.8375 423.93 94.41563ZM425.00812 94.41563Q425.00812 96.525 425.50812 97.22813Q426.00812 97.93125 426.72687 97.93125Q427.46124 97.93125 427.94562 97.22813Q428.44562 96.525 428.44562 94.41563Q428.44562 92.29063 427.94562 91.60313Q427.46124 90.9 426.71124 90.9Q425.9925 90.9 425.555 91.50938Q425.00812 92.29063 425.00812 94.41563ZM430.93 94.41563Q430.93 92.88438 431.2425 91.9625Q431.555 91.025 432.16437 90.525Q432.78937 90.025 433.72687 90.025Q434.41437 90.025 434.93 90.30625Q435.46124 90.5875 435.805 91.11875Q436.14874 91.63438 436.33624 92.38438Q436.52374 93.13438 436.52374 94.41563Q436.52374 95.93125 436.21124 96.85313Q435.91437 97.775 435.28937 98.29063Q434.68 98.79063 433.72687 98.79063Q432.4925 98.79063 431.77374 97.9Q430.93 96.8375 430.93 94.41563ZM432.00812 94.41563Q432.00812 96.525 432.50812 97.22813Q433.00812 97.93125 433.72687 97.93125Q434.46124 97.93125 434.94562 97.22813Q435.44562 96.525 435.44562 94.41563Q435.44562 92.29063 434.94562 91.60313Q434.46124 90.9 433.71124 90.9Q432.9925 90.9 432.555 91.50938Q432.00812 92.29063 432.00812 94.41563Z" fill-rule="nonzero"/><path fill="#000000" d="M525.165 98.65L525.165 96.5875L521.4462 96.5875L521.4462 95.61875L525.3681 90.05625L526.2275 90.05625L526.2275 95.61875L527.3837 95.61875L527.3837 96.5875L526.2275 96.5875L526.2275 98.65L525.165 98.65ZM525.165 95.61875L525.165 91.75938L522.4775 95.61875L525.165 95.61875ZM528.79 94.41563Q528.79 92.88438 529.1025 91.9625Q529.415 91.025 530.02435 90.525Q530.64935 90.025 531.58685 90.025Q532.27435 90.025 532.79 90.30625Q533.3212 90.5875 533.665 91.11875Q534.0087 91.63438 534.1962 92.38438Q534.3837 93.13438 534.3837 94.41563Q534.3837 95.93125 534.0712 96.85313Q533.77435 97.775 533.14935 98.29063Q532.54 98.79063 531.58685 98.79063Q530.3525 98.79063 529.6337 97.9Q528.79 96.8375 528.79 94.41563ZM529.8681 94.41563Q529.8681 96.525 530.3681 97.22813Q530.8681 97.93125 531.58685 97.93125Q532.3212 97.93125 532.8056 97.22813Q533.3056 96.525 533.3056 94.41563Q533.3056 92.29063 532.8056 91.60313Q532.3212 90.9 531.5712 90.9Q530.8525 90.9 530.415 91.50938Q529.8681 92.29063 529.8681 94.41563ZM535.79 94.41563Q535.79 92.88438 536.1025 91.9625Q536.415 91.025 537.02435 90.525Q537.64935 90.025 538.58685 90.025Q539.27435 90.025 539.79 90.30625Q540.3212 90.5875 540.665 91.11875Q541.0087 91.63438 541.1962 92.38438Q541.3837 93.13438 541.3837 94.41563Q541.3837 95.93125 541.0712 96.85313Q540.77435 97.775 540.14935 98.29063Q539.54 98.79063 538.58685 98.79063Q537.3525 98.79063 536.6337 97.9Q535.79 96.8375 535.79 94.41563ZM536.8681 94.41563Q536.8681 96.525 537.3681 97.22813Q537.8681 97.93125 538.58685 97.93125Q539.3212 97.93125 539.8056 97.22813Q540.3056 96.525 540.3056 94.41563Q540.3056 92.29063 539.8056 91.60313Q539.3212 90.9 538.5712 90.9Q537.8525 90.9 537.415 91.50938Q536.8681 92.29063 536.8681 94.41563Z" fill-rule="nonzero"/><path fill="#757575" d="M6.896875 24.35L6.896875 10.0375L12.2875 10.0375Q13.725 10.0375 14.475 10.1625Q15.521875 10.35 16.240625 10.85Q16.959375 11.334375 17.38125 12.225Q17.81875 13.115625 17.81875 14.178125Q17.81875 16.00625 16.646875 17.271875Q15.490625 18.521875 12.459375 18.521875L8.7875 18.521875L8.7875 24.35L6.896875 24.35ZM8.7875 16.834375L12.490625 16.834375Q14.31875 16.834375 15.084375 16.1625Q15.865625 15.475 15.865625 14.225Q15.865625 13.334375 15.4125 12.69375Q14.959375 12.053125 14.225 11.85Q13.740625 11.725 12.44375 11.725L8.7875 11.725L8.7875 16.834375ZM19.021875 19.1625Q19.021875 16.2875 20.615625 14.896875Q21.959375 13.740625 23.88125 13.740625Q26.021875 13.740625 27.365625 15.146875Q28.725 16.553125 28.725 19.021875Q28.725 21.021875 28.13125 22.178125Q27.5375 23.31875 26.38125 23.959375Q25.240625 24.584375 23.88125 24.584375Q21.69375 24.584375 20.35 23.19375Q19.021875 21.7875 19.021875 19.1625ZM20.81875 19.1625Q20.81875 21.1625 21.678125 22.146875Q22.553125 23.13125 23.88125 23.13125Q25.19375 23.13125 26.053125 22.146875Q26.928125 21.146875 26.928125 19.1Q26.928125 17.178125 26.053125 16.19375Q25.178125 15.19375 23.88125 15.19375Q22.553125 15.19375 21.678125 16.19375Q20.81875 17.178125 20.81875 19.1625ZM32.584373 24.35L29.4125 13.975L31.225 13.975L32.88125 19.959375L33.490623 22.19375Q33.5375 22.021875 34.021873 20.053125L35.678123 13.975L37.490623 13.975L39.0375 19.990625L39.553123 21.975L40.146873 19.975L41.928123 13.975L43.63125 13.975L40.396873 24.35L38.56875 24.35L36.9125 18.13125L36.521873 16.365625L34.4125 24.35L32.584373 24.35ZM52.771873 21.00625L54.584373 21.240625Q54.1625 22.81875 52.990623 23.709375Q51.834373 24.584375 50.021873 24.584375Q47.75625 24.584375 46.4125 23.19375Q45.084373 21.7875 45.084373 19.25625Q45.084373 16.63125 46.428123 15.19375Q47.771873 13.740625 49.928123 13.740625Q52.00625 13.740625 53.31875 15.1625Q54.646873 16.56875 54.646873 19.146875Q54.646873 19.303125 54.63125 19.615625L46.896873 19.615625Q46.990623 21.31875 47.865623 22.225Q48.740623 23.13125 50.0375 23.13125Q51.00625 23.13125 51.678123 22.63125Q52.365623 22.115625 52.771873 21.00625ZM46.990623 18.1625L52.7875 18.1625Q52.678123 16.865625 52.13125 16.209375Q51.2875 15.19375 49.94375 15.19375Q48.740623 15.19375 47.9125 16.00625Q47.084373 16.803125 46.990623 18.1625ZM56.646873 24.35L56.646873 13.975L58.225 13.975L58.225 15.553125Q58.834373 14.44375 59.35 14.1Q59.865623 13.740625 60.475 13.740625Q61.365623 13.740625 62.2875 14.303125L61.678123 15.94375Q61.0375 15.553125 60.396873 15.553125Q59.81875 15.553125 59.35 15.9125Q58.896873 16.25625 58.69375 16.865625Q58.4125 17.803125 58.4125 18.9125L58.4125 24.35L56.646873 24.35ZM70.08437 24.35L70.08437 15.35L68.5375 15.35L68.5375 13.975L70.08437 13.975L70.08437 12.88125Q70.08437 11.834375 70.27187 11.31875Q70.52187 10.63125 71.1625 10.209375Q71.80312 9.7875 72.95937 9.7875Q73.70937 9.7875 74.6 9.959375L74.33437 11.490625Q73.7875 11.396875 73.30312 11.396875Q72.50625 11.396875 72.1625 11.740625Q71.83437 12.084375 71.83437 13.021875L71.83437 13.975L73.86562 13.975L73.86562 15.35L71.83437 15.35L71.83437 24.35L70.08437 24.35ZM75.64687 24.35L75.64687 13.975L77.225 13.975L77.225 15.553125Q77.83437 14.44375 78.35 14.1Q78.86562 13.740625 79.475 13.740625Q80.36562 13.740625 81.2875 14.303125L80.67812 15.94375Q80.0375 15.553125 79.39687 15.553125Q78.81875 15.553125 78.35 15.9125Q77.89687 16.25625 77.69375 16.865625Q77.4125 17.803125 77.4125 18.9125L77.4125 24.35L75.64687 24.35ZM82.02187 19.1625Q82.02187 16.2875 83.61562 14.896875Q84.95937 13.740625 86.88125 13.740625Q89.02187 13.740625 90.36562 15.146875Q91.725 16.553125 91.725 19.021875Q91.725 21.021875 91.13125 22.178125Q90.5375 23.31875 89.38125 23.959375Q88.24062 24.584375 86.88125 24.584375Q84.69375 24.584375 83.35 23.19375Q82.02187 21.7875 82.02187 19.1625ZM83.81875 19.1625Q83.81875 21.1625 84.67812 22.146875Q85.55312 23.13125 86.88125 23.13125Q88.19375 23.13125 89.05312 22.146875Q89.92812 21.146875 89.92812 19.1Q89.92812 17.178125 89.05312 16.19375Q88.17812 15.19375 86.88125 15.19375Q85.55312 15.19375 84.67812 16.19375Q83.81875 17.178125 83.81875 19.1625ZM93.6625 24.35L93.6625 13.975L95.24062 13.975L95.24062 15.428125Q95.725 14.678125 96.5375 14.209375Q97.35 13.740625 98.38125 13.740625Q99.5375 13.740625 100.27187 14.225Q101.00625 14.69375 101.31875 15.553125Q102.55312 13.740625 104.52187 13.740625Q106.06875 13.740625 106.89687 14.6Q107.725 15.459375 107.725 17.225L107.725 24.35L105.975 24.35L105.975 17.81875Q105.975 16.75625 105.80312 16.303125Q105.63125 15.834375 105.17812 15.553125Q104.74062 15.271875 104.13125 15.271875Q103.0375 15.271875 102.30312 16.00625Q101.58437 16.725 101.58437 18.31875L101.58437 24.35L99.83437 24.35L99.83437 17.615625Q99.83437 16.44375 99.39687 15.865625Q98.975 15.271875 97.99062 15.271875Q97.25625 15.271875 96.61562 15.6625Q95.99062 16.053125 95.70937 16.803125Q95.42812 17.553125 95.42812 18.975L95.42812 24.35L93.6625 24.35ZM119.50625 22.771875L119.75625 24.334375Q119.02187 24.490625 118.42812 24.490625Q117.475 24.490625 116.94375 24.19375Q116.42812 23.88125 116.20937 23.396875Q115.99062 22.896875 115.99062 21.31875L115.99062 15.35L114.70937 15.35L114.70937 13.975L115.99062 13.975L115.99062 11.4125L117.74062 10.35L117.74062 13.975L119.50625 13.975L119.50625 15.35L117.74062 15.35L117.74062 21.4125Q117.74062 22.1625 117.83437 22.38125Q117.92812 22.584375 118.13125 22.725Q118.35 22.85 118.74062 22.85Q119.02187 22.85 119.50625 22.771875ZM121.6625 24.35L121.6625 10.0375L123.42812 10.0375L123.42812 15.1625Q124.6625 13.740625 126.5375 13.740625Q127.67812 13.740625 128.52188 14.19375Q129.38126 14.646875 129.74063 15.459375Q130.11563 16.25625 130.11563 17.771875L130.11563 24.35L128.36563 24.35L128.36563 17.771875Q128.36563 16.459375 127.7875 15.865625Q127.20937 15.25625 126.17812 15.25625Q125.39687 15.25625 124.69375 15.6625Q124.00625 16.06875 123.70937 16.771875Q123.42812 17.459375 123.42812 18.678125L123.42812 24.35L121.6625 24.35ZM138.77188 21.00625L140.58438 21.240625Q140.1625 22.81875 138.99063 23.709375Q137.83438 24.584375 136.02188 24.584375Q133.75626 24.584375 132.4125 23.19375Q131.08438 21.7875 131.08438 19.25625Q131.08438 16.63125 132.42813 15.19375Q133.77188 13.740625 135.92813 13.740625Q138.00626 13.740625 139.31876 15.1625Q140.64688 16.56875 140.64688 19.146875Q140.64688 19.303125 140.63126 19.615625L132.89688 19.615625Q132.99063 21.31875 133.86563 22.225Q134.74063 23.13125 136.0375 23.13125Q137.00626 23.13125 137.67813 22.63125Q138.36563 22.115625 138.77188 21.00625ZM132.99063 18.1625L138.7875 18.1625Q138.67813 16.865625 138.13126 16.209375Q137.2875 15.19375 135.94376 15.19375Q134.74063 15.19375 133.9125 16.00625Q133.08438 16.803125 132.99063 18.1625ZM151.39688 24.35L147.6 10.0375L149.5375 10.0375L151.70938 19.4125Q152.06876 20.896875 152.31876 22.35Q152.86563 20.053125 152.95938 19.69375L155.69376 10.0375L157.975 10.0375L160.02188 17.271875Q160.80313 19.975 161.14688 22.35Q161.4125 20.990625 161.85 19.225L164.1 10.0375L166.00626 10.0375L162.08438 24.35L160.25626 24.35L157.24063 13.44375Q156.85 12.06875 156.7875 11.75625Q156.55313 12.740625 156.36563 13.44375L153.33438 24.35L151.39688 24.35ZM174.44376 23.06875Q173.45938 23.896875 172.55313 24.240625Q171.64688 24.584375 170.61563 24.584375Q168.9125 24.584375 167.99063 23.75625Q167.06876 22.9125 167.06876 21.615625Q167.06876 20.85 167.4125 20.225Q167.77188 19.6 168.33438 19.225Q168.89688 18.834375 169.6 18.63125Q170.11563 18.50625 171.1625 18.365625Q173.2875 18.115625 174.2875 17.771875Q174.30313 17.4125 174.30313 17.303125Q174.30313 16.240625 173.80313 15.7875Q173.13126 15.19375 171.80313 15.19375Q170.55313 15.19375 169.95938 15.63125Q169.38126 16.06875 169.1 17.178125L167.38126 16.94375Q167.61563 15.834375 168.14688 15.1625Q168.67813 14.475 169.69376 14.115625Q170.70938 13.740625 172.05313 13.740625Q173.38126 13.740625 174.20938 14.053125Q175.0375 14.365625 175.42813 14.85Q175.81876 15.31875 175.975 16.0375Q176.06876 16.490625 176.06876 17.6625L176.06876 20.00625Q176.06876 22.459375 176.17813 23.115625Q176.2875 23.75625 176.63126 24.35L174.7875 24.35Q174.52188 23.803125 174.44376 23.06875ZM174.2875 19.146875Q173.33438 19.5375 171.4125 19.803125Q170.33438 19.959375 169.88126 20.1625Q169.44376 20.35 169.19376 20.725Q168.94376 21.1 168.94376 21.56875Q168.94376 22.271875 169.475 22.740625Q170.00626 23.209375 171.0375 23.209375Q172.05313 23.209375 172.83438 22.771875Q173.63126 22.31875 174.00626 21.553125Q174.2875 20.94375 174.2875 19.7875L174.2875 19.146875ZM178.63126 24.35L178.63126 10.0375L180.38126 10.0375L180.38126 24.35L178.63126 24.35ZM182.63126 24.35L182.63126 10.0375L184.38126 10.0375L184.38126 24.35L182.63126 24.35ZM192.67813 12.053125L192.67813 10.0375L194.44376 10.0375L194.44376 12.053125L192.67813 12.053125ZM192.67813 24.35L192.67813 13.975L194.44376 13.975L194.44376 24.35L192.67813 24.35ZM196.6625 24.35L196.6625 13.975L198.25626 13.975L198.25626 15.459375Q199.39688 13.740625 201.55313 13.740625Q202.49063 13.740625 203.27188 14.084375Q204.06876 14.4125 204.45938 14.959375Q204.85 15.50625 205.00626 16.25625Q205.1 16.75625 205.1 17.975L205.1 24.35L203.33438 24.35L203.33438 18.0375Q203.33438 16.959375 203.13126 16.428125Q202.92813 15.896875 202.39688 15.584375Q201.88126 15.271875 201.17813 15.271875Q200.05313 15.271875 199.24063 15.990625Q198.42813 16.69375 198.42813 18.678125L198.42813 24.35L196.6625 24.35ZM215.39688 24.35L211.6 10.0375L213.5375 10.0375L215.70938 19.4125Q216.06876 20.896875 216.31876 22.35Q216.86563 20.053125 216.95938 19.69375L219.69376 10.0375L221.975 10.0375L224.02188 17.271875Q224.80313 19.975 225.14688 22.35Q225.4125 20.990625 225.85 19.225L228.1 10.0375L230.00626 10.0375L226.08438 24.35L224.25626 24.35L221.24063 13.44375Q220.85 12.06875 220.7875 11.75625Q220.55313 12.740625 220.36563 13.44375L217.33438 24.35L215.39688 24.35ZM238.44376 23.06875Q237.45938 23.896875 236.55313 24.240625Q235.64688 24.584375 234.61563 24.584375Q232.9125 24.584375 231.99063 23.75625Q231.06876 22.9125 231.06876 21.615625Q231.06876 20.85 231.4125 20.225Q231.77188 19.6 232.33438 19.225Q232.89688 18.834375 233.6 18.63125Q234.11563 18.50625 235.1625 18.365625Q237.2875 18.115625 238.2875 17.771875Q238.30313 17.4125 238.30313 17.303125Q238.30313 16.240625 237.80313 15.7875Q237.13126 15.19375 235.80313 15.19375Q234.55313 15.19375 233.95938 15.63125Q233.38126 16.06875 233.1 17.178125L231.38126 16.94375Q231.61563 15.834375 232.14688 15.1625Q232.67813 14.475 233.69376 14.115625Q234.70938 13.740625 236.05313 13.740625Q237.38126 13.740625 238.20938 14.053125Q239.0375 14.365625 239.42813 14.85Q239.81876 15.31875 239.975 16.0375Q240.06876 16.490625 240.06876 17.6625L240.06876 20.00625Q240.06876 22.459375 240.17813 23.115625Q240.2875 23.75625 240.63126 24.35L238.7875 24.35Q238.52188 23.803125 238.44376 23.06875ZM238.2875 19.146875Q237.33438 19.5375 235.4125 19.803125Q234.33438 19.959375 233.88126 20.1625Q233.44376 20.35 233.19376 20.725Q232.94376 21.1 232.94376 21.56875Q232.94376 22.271875 233.475 22.740625Q234.00626 23.209375 235.0375 23.209375Q236.05313 23.209375 236.83438 22.771875Q237.63126 22.31875 238.00626 21.553125Q238.2875 20.94375 238.2875 19.7875L238.2875 19.146875ZM246.50626 22.771875L246.75626 24.334375Q246.02188 24.490625 245.42813 24.490625Q244.475 24.490625 243.94376 24.19375Q243.42813 23.88125 243.20938 23.396875Q242.99063 22.896875 242.99063 21.31875L242.99063 15.35L241.70938 15.35L241.70938 13.975L242.99063 13.975L242.99063 11.4125L244.74063 10.35L244.74063 13.975L246.50626 13.975L246.50626 15.35L244.74063 15.35L244.74063 21.4125Q244.74063 22.1625 244.83438 22.38125Q244.92813 22.584375 245.13126 22.725Q245.35 22.85 245.74063 22.85Q246.02188 22.85 246.50626 22.771875ZM252.50626 22.771875L252.75626 24.334375Q252.02188 24.490625 251.42813 24.490625Q250.475 24.490625 249.94376 24.19375Q249.42813 23.88125 249.20938 23.396875Q248.99063 22.896875 248.99063 21.31875L248.99063 15.35L247.70938 15.35L247.70938 13.975L248.99063 13.975L248.99063 11.4125L250.74063 10.35L250.74063 13.975L252.50626 13.975L252.50626 15.35L250.74063 15.35L250.74063 21.4125Q250.74063 22.1625 250.83438 22.38125Q250.92813 22.584375 251.13126 22.725Q251.35 22.85 251.74063 22.85Q252.02188 22.85 252.50626 22.771875Z" fill-rule="nonzero"/></svg>